{"glyphs":{"0":{"ha":918,"x_min":43,"x_max":875,"o":"m 458 -25 q 217 29 308 -25 q 84 188 125 83 q 43 442 43 293 q 84 694 43 590 q 217 853 125 799 q 458 908 308 908 q 701 853 610 908 q 833 694 792 799 q 875 442 875 590 q 833 188 875 293 q 701 29 792 83 q 458 -25 610 -25 m 458 167 q 605 237 564 167 q 646 442 646 307 q 605 647 646 576 q 458 717 564 717 q 312 647 353 717 q 271 442 271 576 q 312 237 271 307 q 458 167 353 167 z "},"1":{"ha":485,"x_min":43,"x_max":414,"o":"m 190 0 l 190 689 l 43 665 l 43 853 l 414 908 l 414 0 l 190 0 z "},"2":{"ha":718,"x_min":43,"x_max":675,"o":"m 43 0 l 43 104 q 140 243 81 182 q 268 367 199 304 q 369 460 332 425 q 423 526 407 494 q 439 603 439 558 q 292 717 439 717 q 179 703 235 717 q 74 671 124 690 l 74 864 q 201 896 128 883 q 346 908 274 908 q 585 829 503 908 q 667 607 667 750 q 629 467 667 526 q 517 343 592 408 q 417 256 461 296 q 343 172 374 217 l 675 172 l 675 0 l 43 0 z "},"3":{"ha":735,"x_min":43,"x_max":690,"o":"m 322 -14 q 231 -8 283 -14 q 127 8 178 -3 q 43 32 76 18 l 43 218 q 165 181 100 192 q 288 169 231 169 q 419 193 375 169 q 463 279 463 217 q 426 350 463 328 q 319 372 389 372 l 174 372 l 189 529 l 310 529 q 413 552 381 529 q 444 626 444 575 q 406 700 444 675 q 283 725 368 725 q 163 712 224 725 q 57 678 101 699 l 57 861 q 178 894 106 881 q 325 908 251 908 q 584 837 494 908 q 674 654 674 765 q 647 535 674 590 q 564 451 619 479 q 659 379 628 429 q 690 258 690 329 q 643 105 690 165 q 513 15 596 44 q 322 -14 431 -14 z "},"4":{"ha":760,"x_min":15,"x_max":743,"o":"m 436 0 l 436 178 l 15 178 l 15 326 l 464 894 l 660 894 l 660 358 l 743 358 l 743 178 l 660 178 l 660 0 l 436 0 m 231 350 l 474 350 l 474 649 l 231 350 z "},"5":{"ha":724,"x_min":43,"x_max":679,"o":"m 318 -14 q 228 -9 278 -14 q 131 6 179 -4 q 47 31 83 15 l 47 217 q 123 192 81 203 q 208 176 165 182 q 283 171 250 171 q 410 197 369 171 q 451 288 451 224 q 423 370 451 344 q 314 396 394 396 l 43 396 l 43 508 l 67 894 l 622 894 l 606 722 l 258 722 l 249 560 l 365 560 q 603 488 528 560 q 679 279 679 417 q 590 66 679 146 q 318 -14 500 -14 z "},"6":{"ha":810,"x_min":43,"x_max":767,"o":"m 407 -14 q 43 343 43 -14 l 43 525 q 92 723 43 636 q 233 859 142 810 q 451 908 325 908 q 577 900 524 908 q 679 872 631 892 l 679 690 q 582 719 633 710 q 469 728 531 728 q 308 684 363 728 q 253 571 253 640 l 253 536 q 350 578 293 564 q 454 593 407 593 q 691 516 615 593 q 767 294 767 439 q 730 135 767 204 q 614 26 693 65 q 407 -14 535 -14 m 408 147 q 527 185 488 147 q 567 286 567 222 q 532 392 567 356 q 411 428 497 428 q 330 414 371 428 q 253 378 289 400 l 253 303 q 408 147 253 147 z "},"7":{"ha":692,"x_min":29,"x_max":661,"o":"m 106 0 l 413 722 l 29 722 l 29 894 l 661 894 l 661 761 l 339 0 l 106 0 z "},"8":{"ha":838,"x_min":43,"x_max":794,"o":"m 418 -14 q 135 53 226 -14 q 43 254 43 121 q 78 379 43 322 q 174 463 113 436 q 92 538 118 490 q 65 640 65 586 q 149 835 65 763 q 418 908 233 908 q 689 835 607 908 q 771 640 771 763 q 745 534 771 585 q 660 454 719 483 q 794 254 794 399 q 702 53 794 121 q 418 -14 610 -14 m 453 518 q 533 560 508 535 q 558 636 558 586 q 418 740 558 740 q 313 716 349 740 q 278 636 278 692 q 368 535 278 553 l 453 518 m 418 153 q 541 178 501 153 q 581 258 581 203 q 554 330 581 307 q 468 365 528 353 l 367 386 q 285 349 315 375 q 256 265 256 322 q 296 179 256 206 q 418 153 336 153 z "},"9":{"ha":810,"x_min":43,"x_max":767,"o":"m 358 -14 q 233 -6 286 -14 q 131 19 179 1 l 131 201 q 340 165 221 165 q 503 210 449 165 q 557 322 557 254 l 557 357 q 460 315 517 331 q 356 300 404 300 q 118 378 193 300 q 43 599 43 456 q 80 759 43 689 q 197 869 117 829 q 403 908 276 908 q 678 819 589 908 q 767 551 767 731 l 767 369 q 717 172 767 258 q 577 35 668 85 q 358 -14 486 -14 m 399 465 q 481 480 439 465 q 557 517 522 494 l 557 590 q 401 746 557 746 q 283 709 322 746 q 243 607 243 672 q 277 502 243 539 q 399 465 311 465 z "},"A":{"ha":1011,"x_min":43,"x_max":968,"o":"m 43 0 l 385 894 l 626 894 l 968 0 l 735 0 l 654 203 l 356 203 l 276 0 l 43 0 m 386 368 l 624 368 l 504 679 l 386 368 z "},"Á":{"ha":1011,"x_min":43,"x_max":968,"o":"m 413 956 l 529 1228 l 713 1228 l 585 956 l 413 956 m 43 0 l 385 894 l 626 894 l 968 0 l 735 0 l 654 203 l 356 203 l 276 0 l 43 0 m 386 368 l 624 368 l 504 679 l 386 368 z "},"Ă":{"ha":1011,"x_min":43,"x_max":968,"o":"m 504 956 q 331 1018 397 956 q 264 1194 264 1081 l 411 1194 q 433 1114 411 1147 q 504 1081 454 1081 q 578 1114 556 1081 q 600 1194 600 1147 l 747 1194 q 680 1018 747 1081 q 504 956 613 956 m 43 0 l 385 894 l 626 894 l 968 0 l 735 0 l 654 203 l 356 203 l 276 0 l 43 0 m 386 368 l 624 368 l 504 679 l 386 368 z "},"Ắ":{"ha":1011,"x_min":43,"x_max":968,"o":"m 429 1163 l 521 1369 l 678 1369 l 569 1163 l 429 1163 m 506 956 q 332 1009 400 956 q 264 1183 264 1063 l 393 1183 q 422 1099 393 1129 q 506 1068 451 1068 q 588 1099 558 1068 q 617 1183 617 1129 l 744 1183 q 677 1009 744 1063 q 506 956 610 956 m 43 0 l 385 894 l 626 894 l 968 0 l 735 0 l 654 203 l 356 203 l 276 0 l 43 0 m 386 368 l 624 368 l 504 679 l 386 368 z "},"Ặ":{"ha":1011,"x_min":43,"x_max":968,"o":"m 503 956 q 329 1018 396 956 q 263 1194 263 1081 l 410 1194 q 431 1114 410 1147 q 503 1081 453 1081 q 576 1114 554 1081 q 599 1194 599 1147 l 746 1194 q 678 1018 746 1081 q 503 956 611 956 m 43 0 l 385 894 l 626 894 l 968 0 l 735 0 l 654 203 l 356 203 l 276 0 l 43 0 m 386 368 l 624 368 l 504 679 l 386 368 m 422 -249 l 422 -97 l 586 -97 l 586 -249 l 422 -249 z "},"Ằ":{"ha":1011,"x_min":43,"x_max":968,"o":"m 439 1163 l 331 1369 l 489 1369 l 581 1163 l 439 1163 m 504 956 q 332 1009 400 956 q 264 1183 264 1063 l 393 1183 q 422 1099 393 1129 q 504 1068 450 1068 q 588 1099 558 1068 q 617 1183 617 1129 l 744 1183 q 676 1009 744 1063 q 504 956 608 956 m 43 0 l 385 894 l 626 894 l 968 0 l 735 0 l 654 203 l 356 203 l 276 0 l 43 0 m 386 368 l 624 368 l 504 679 l 386 368 z "},"Ẳ":{"ha":1011,"x_min":43,"x_max":968,"o":"m 428 1172 l 428 1257 q 512 1274 489 1260 q 535 1311 535 1288 q 518 1344 535 1335 q 467 1353 501 1353 q 428 1349 447 1353 q 394 1338 410 1344 l 394 1424 q 526 1442 446 1442 q 640 1409 600 1442 q 681 1326 681 1376 q 656 1253 681 1279 q 575 1215 632 1228 l 575 1172 l 428 1172 m 504 956 q 332 1009 400 956 q 264 1183 264 1063 l 393 1183 q 422 1099 393 1129 q 504 1068 450 1068 q 588 1099 558 1068 q 617 1183 617 1129 l 744 1183 q 676 1009 744 1063 q 504 956 608 956 m 43 0 l 385 894 l 626 894 l 968 0 l 735 0 l 654 203 l 356 203 l 276 0 l 43 0 m 386 368 l 624 368 l 504 679 l 386 368 z "},"Ẵ":{"ha":1011,"x_min":43,"x_max":968,"o":"m 629 1208 q 547 1222 588 1208 q 469 1250 507 1236 q 394 1264 431 1264 q 267 1213 315 1264 l 267 1339 q 319 1371 286 1358 q 390 1383 353 1383 q 473 1369 435 1383 q 548 1341 511 1356 q 625 1326 585 1326 q 696 1341 665 1326 q 744 1381 726 1356 l 744 1253 q 700 1222 731 1235 q 629 1208 669 1208 m 504 956 q 332 1009 400 956 q 264 1183 264 1063 l 393 1183 q 422 1099 393 1129 q 504 1068 450 1068 q 588 1099 558 1068 q 617 1183 617 1129 l 744 1183 q 676 1009 744 1063 q 504 956 608 956 m 43 0 l 385 894 l 626 894 l 968 0 l 735 0 l 654 203 l 356 203 l 276 0 l 43 0 m 386 368 l 624 368 l 504 679 l 386 368 z "},"Ǎ":{"ha":1011,"x_min":43,"x_max":968,"o":"m 435 956 l 233 1215 l 404 1215 l 504 1071 l 608 1215 l 775 1215 l 574 956 l 435 956 m 43 0 l 385 894 l 626 894 l 968 0 l 735 0 l 654 203 l 356 203 l 276 0 l 43 0 m 386 368 l 624 368 l 504 679 l 386 368 z "},"Â":{"ha":1011,"x_min":43,"x_max":968,"o":"m 233 954 l 435 1214 l 574 1214 l 775 954 l 608 954 l 504 1099 l 404 954 l 233 954 m 43 0 l 385 894 l 626 894 l 968 0 l 735 0 l 654 203 l 356 203 l 276 0 l 43 0 m 386 368 l 624 368 l 504 679 l 386 368 z "},"Ấ":{"ha":1011,"x_min":43,"x_max":968,"o":"m 656 1124 l 751 1331 l 918 1331 l 814 1124 l 656 1124 m 231 956 l 417 1156 l 585 1156 l 771 956 l 592 956 l 501 1067 l 411 956 l 231 956 m 43 0 l 385 894 l 626 894 l 968 0 l 735 0 l 654 203 l 356 203 l 276 0 l 43 0 m 386 368 l 624 368 l 504 679 l 386 368 z "},"Ậ":{"ha":1011,"x_min":43,"x_max":968,"o":"m 233 956 l 435 1215 l 574 1215 l 775 956 l 608 956 l 504 1100 l 404 956 l 233 956 m 43 0 l 385 894 l 626 894 l 968 0 l 735 0 l 654 203 l 356 203 l 276 0 l 43 0 m 386 368 l 624 368 l 504 679 l 386 368 m 422 -249 l 422 -97 l 586 -97 l 586 -249 l 422 -249 z "},"Ầ":{"ha":1011,"x_min":43,"x_max":968,"o":"m 193 1124 l 89 1331 l 256 1331 l 351 1124 l 193 1124 m 236 956 l 422 1156 l 590 1156 l 776 956 l 596 956 l 506 1067 l 415 956 l 236 956 m 43 0 l 385 894 l 626 894 l 968 0 l 735 0 l 654 203 l 356 203 l 276 0 l 43 0 m 386 368 l 624 368 l 504 679 l 386 368 z "},"Ẩ":{"ha":1011,"x_min":43,"x_max":968,"o":"m 672 1093 l 672 1192 q 754 1206 735 1194 q 774 1238 774 1218 q 714 1272 774 1272 q 674 1269 693 1272 q 640 1258 656 1265 l 640 1351 q 696 1363 664 1358 q 767 1368 728 1368 q 886 1337 846 1368 q 926 1253 926 1306 q 901 1176 926 1206 q 824 1139 876 1147 l 824 1093 l 672 1093 m 233 956 l 419 1156 l 588 1156 l 774 956 l 594 956 l 504 1067 l 414 956 l 233 956 m 43 0 l 385 894 l 626 894 l 968 0 l 735 0 l 654 203 l 356 203 l 276 0 l 43 0 m 386 368 l 624 368 l 504 679 l 386 368 z "},"Ẫ":{"ha":1011,"x_min":43,"x_max":968,"o":"m 639 1176 q 557 1190 597 1176 q 478 1218 517 1204 q 404 1232 440 1232 q 276 1181 325 1232 l 276 1307 q 329 1339 296 1326 q 400 1351 363 1351 q 483 1338 444 1351 q 558 1309 521 1324 q 635 1294 594 1294 q 706 1309 675 1294 q 754 1349 736 1324 l 754 1221 q 710 1190 740 1203 q 639 1176 679 1176 m 233 956 l 419 1156 l 588 1156 l 774 956 l 594 956 l 504 1067 l 414 956 l 233 956 m 43 0 l 385 894 l 626 894 l 968 0 l 735 0 l 654 203 l 356 203 l 276 0 l 43 0 m 386 368 l 624 368 l 504 679 l 386 368 z "},"Ä":{"ha":1011,"x_min":43,"x_max":968,"o":"m 279 990 l 279 1142 l 443 1142 l 443 990 l 279 990 m 565 990 l 565 1142 l 729 1142 l 729 990 l 565 990 m 43 0 l 385 894 l 626 894 l 968 0 l 735 0 l 654 203 l 356 203 l 276 0 l 43 0 m 386 368 l 624 368 l 504 679 l 386 368 z "},"Ạ":{"ha":1011,"x_min":43,"x_max":968,"o":"m 43 0 l 385 894 l 626 894 l 968 0 l 735 0 l 654 203 l 356 203 l 276 0 l 43 0 m 386 368 l 624 368 l 504 679 l 386 368 m 422 -249 l 422 -97 l 586 -97 l 586 -249 l 422 -249 z "},"À":{"ha":1011,"x_min":43,"x_max":968,"o":"m 417 956 l 288 1228 l 471 1228 l 588 956 l 417 956 m 43 0 l 385 894 l 626 894 l 968 0 l 735 0 l 654 203 l 356 203 l 276 0 l 43 0 m 386 368 l 624 368 l 504 679 l 386 368 z "},"Ả":{"ha":1011,"x_min":43,"x_max":968,"o":"m 421 956 l 421 1068 q 519 1088 494 1072 q 544 1132 544 1104 q 521 1170 544 1158 q 454 1182 497 1182 q 411 1178 435 1182 q 371 1169 388 1175 l 371 1269 q 519 1289 426 1289 q 660 1251 611 1289 q 708 1151 708 1213 q 680 1062 708 1092 q 590 1017 651 1032 l 590 956 l 421 956 m 43 0 l 385 894 l 626 894 l 968 0 l 735 0 l 654 203 l 356 203 l 276 0 l 43 0 m 386 368 l 624 368 l 504 679 l 386 368 z "},"Ā":{"ha":1011,"x_min":43,"x_max":968,"o":"m 283 978 l 283 1113 l 725 1113 l 725 978 l 283 978 m 43 0 l 385 894 l 626 894 l 968 0 l 735 0 l 654 203 l 356 203 l 276 0 l 43 0 m 386 368 l 624 368 l 504 679 l 386 368 z "},"Ą":{"ha":1011,"x_min":43,"x_max":968,"o":"m 43 0 l 385 894 l 626 894 l 968 0 l 906 0 q 842 -63 867 -29 q 818 -135 818 -97 q 835 -175 818 -162 q 879 -187 851 -187 q 917 -183 897 -187 q 949 -172 936 -179 l 949 -285 q 893 -299 929 -293 q 818 -306 857 -306 q 697 -274 747 -306 q 647 -175 647 -243 q 674 -76 647 -122 q 749 0 701 -31 l 735 0 l 654 203 l 356 203 l 276 0 l 43 0 m 386 368 l 624 368 l 504 679 l 386 368 z "},"Å":{"ha":1011,"x_min":43,"x_max":968,"o":"m 43 0 l 375 868 q 322 996 322 917 q 371 1120 322 1069 q 504 1171 419 1171 q 640 1120 592 1171 q 688 996 688 1069 q 636 869 688 918 l 968 0 l 735 0 l 654 203 l 356 203 l 276 0 l 43 0 m 504 919 q 564 942 543 919 q 585 996 585 964 q 564 1051 585 1028 q 504 1074 543 1074 q 447 1051 468 1074 q 425 996 425 1028 q 447 942 425 964 q 504 919 468 919 m 386 368 l 624 368 l 504 679 l 386 368 z "},"Ǻ":{"ha":1011,"x_min":43,"x_max":968,"o":"m 404 1204 l 521 1463 l 704 1463 l 576 1204 l 404 1204 m 43 0 l 375 868 q 322 996 322 917 q 371 1120 322 1069 q 504 1171 419 1171 q 640 1120 592 1171 q 688 996 688 1069 q 636 869 688 918 l 968 0 l 735 0 l 654 203 l 356 203 l 276 0 l 43 0 m 504 919 q 564 942 543 919 q 585 996 585 964 q 564 1051 585 1028 q 504 1074 543 1074 q 447 1051 468 1074 q 425 996 425 1028 q 447 942 425 964 q 504 919 468 919 m 386 368 l 624 368 l 504 679 l 386 368 z "},"Ã":{"ha":1011,"x_min":43,"x_max":968,"o":"m 631 958 q 547 973 588 958 q 467 1001 506 988 q 393 1015 429 1015 q 320 1001 353 1015 q 263 963 288 988 l 263 1111 q 316 1143 282 1131 q 389 1156 350 1156 q 472 1142 433 1156 q 549 1113 511 1128 q 626 1099 586 1099 q 699 1113 668 1099 q 747 1153 729 1128 l 747 1003 q 702 972 733 985 q 631 958 671 958 m 43 0 l 385 894 l 626 894 l 968 0 l 735 0 l 654 203 l 356 203 l 276 0 l 43 0 m 386 368 l 624 368 l 504 679 l 386 368 z "},"Æ":{"ha":1186,"x_min":43,"x_max":1143,"o":"m 43 0 l 385 894 l 1143 894 l 1143 722 l 781 722 l 781 535 l 1092 535 l 1092 360 l 781 360 l 781 172 l 1143 172 l 1143 0 l 558 0 l 558 204 l 361 204 l 282 0 l 43 0 m 413 378 l 558 378 l 558 722 l 542 722 l 413 378 z "},"Ǽ":{"ha":1186,"x_min":43,"x_max":1143,"o":"m 581 956 l 697 1228 l 881 1228 l 753 956 l 581 956 m 43 0 l 385 894 l 1143 894 l 1143 722 l 781 722 l 781 535 l 1092 535 l 1092 360 l 781 360 l 781 172 l 1143 172 l 1143 0 l 558 0 l 558 204 l 361 204 l 282 0 l 43 0 m 413 378 l 558 378 l 558 722 l 542 722 l 413 378 z "},"B":{"ha":890,"x_min":71,"x_max":847,"o":"m 71 0 l 71 894 l 543 894 q 747 831 678 894 q 815 650 815 767 q 788 531 815 579 q 717 457 761 483 q 813 392 778 435 q 847 263 847 349 q 772 67 847 135 q 557 0 697 0 l 71 0 m 294 531 l 476 531 q 561 557 535 531 q 588 631 588 583 q 561 708 588 682 q 465 733 535 733 l 294 733 l 294 531 m 294 160 l 499 160 q 590 185 560 160 q 619 274 619 210 q 590 351 619 325 q 490 376 561 376 l 294 376 l 294 160 z "},"C":{"ha":838,"x_min":43,"x_max":794,"o":"m 524 -14 q 166 106 289 -14 q 43 440 43 226 q 163 786 43 664 q 522 908 283 908 q 669 896 604 908 q 793 863 733 883 l 793 667 q 539 717 672 717 q 335 650 400 717 q 271 440 271 583 q 339 240 271 304 q 542 176 407 176 q 671 188 607 176 q 794 225 735 200 l 794 28 q 671 -3 736 8 q 524 -14 606 -14 z "},"Ć":{"ha":838,"x_min":43,"x_max":794,"o":"m 415 956 l 532 1228 l 715 1228 l 588 956 l 415 956 m 524 -14 q 166 106 289 -14 q 43 440 43 226 q 163 786 43 664 q 522 908 283 908 q 669 896 604 908 q 793 863 733 883 l 793 667 q 539 717 672 717 q 335 650 400 717 q 271 440 271 583 q 339 240 271 304 q 542 176 407 176 q 671 188 607 176 q 794 225 735 200 l 794 28 q 671 -3 736 8 q 524 -14 606 -14 z "},"Č":{"ha":838,"x_min":43,"x_max":794,"o":"m 440 954 l 239 1214 l 410 1214 l 510 1069 l 614 1214 l 781 1214 l 579 954 l 440 954 m 524 -14 q 166 106 289 -14 q 43 440 43 226 q 163 786 43 664 q 522 908 283 908 q 669 896 604 908 q 793 863 733 883 l 793 667 q 539 717 672 717 q 335 650 400 717 q 271 440 271 583 q 339 240 271 304 q 542 176 407 176 q 671 188 607 176 q 794 225 735 200 l 794 28 q 671 -3 736 8 q 524 -14 606 -14 z "},"Ç":{"ha":838,"x_min":43,"x_max":794,"o":"m 496 -333 q 437 -330 472 -333 q 386 -322 401 -326 l 386 -224 q 469 -235 426 -235 q 551 -226 526 -235 q 575 -186 575 -217 q 550 -147 575 -154 q 485 -139 525 -139 l 410 -139 l 447 -10 q 147 127 250 10 q 43 440 43 244 q 163 786 43 664 q 522 908 283 908 q 669 896 604 908 q 793 863 733 883 l 793 667 q 539 717 672 717 q 335 650 400 717 q 271 440 271 583 q 339 240 271 304 q 542 176 407 176 q 671 188 607 176 q 794 225 735 200 l 794 28 q 694 1 746 11 q 579 -12 642 -10 l 563 -60 q 677 -95 640 -60 q 714 -189 714 -131 q 660 -295 714 -257 q 496 -333 607 -333 z "},"Ĉ":{"ha":838,"x_min":43,"x_max":794,"o":"m 208 954 l 410 1214 l 549 1214 l 750 954 l 583 954 l 479 1099 l 379 954 l 208 954 m 524 -14 q 166 106 289 -14 q 43 440 43 226 q 163 786 43 664 q 522 908 283 908 q 669 896 604 908 q 793 863 733 883 l 793 667 q 539 717 672 717 q 335 650 400 717 q 271 440 271 583 q 339 240 271 304 q 542 176 407 176 q 671 188 607 176 q 794 225 735 200 l 794 28 q 671 -3 736 8 q 524 -14 606 -14 z "},"Ċ":{"ha":838,"x_min":43,"x_max":794,"o":"m 417 992 l 417 1143 l 579 1143 l 579 992 l 417 992 m 524 -14 q 166 106 289 -14 q 43 440 43 226 q 163 786 43 664 q 522 908 283 908 q 669 896 604 908 q 793 863 733 883 l 793 667 q 539 717 672 717 q 335 650 400 717 q 271 440 271 583 q 339 240 271 304 q 542 176 407 176 q 671 188 607 176 q 794 225 735 200 l 794 28 q 671 -3 736 8 q 524 -14 606 -14 z "},"D":{"ha":921,"x_min":71,"x_max":878,"o":"m 71 0 l 71 894 l 458 894 q 688 849 594 894 q 829 705 781 804 q 878 442 878 606 q 772 106 878 211 q 458 0 665 0 l 71 0 m 294 172 l 428 172 q 549 194 500 172 q 624 274 599 215 q 650 442 650 332 q 627 613 650 553 q 555 698 604 674 q 428 722 506 722 l 294 722 l 294 172 z "},"Ð":{"ha":982,"x_min":29,"x_max":938,"o":"m 131 0 l 131 357 l 29 357 l 29 519 l 131 519 l 131 894 l 518 894 q 747 849 654 894 q 889 705 840 804 q 938 442 938 606 q 831 106 938 211 q 518 0 725 0 l 131 0 m 354 172 l 488 172 q 609 194 560 172 q 684 274 658 215 q 710 442 710 332 q 687 613 710 553 q 615 698 664 674 q 488 722 565 722 l 354 722 l 354 519 l 529 519 l 529 357 l 354 357 l 354 172 z "},"Ď":{"ha":921,"x_min":71,"x_max":878,"o":"m 349 969 l 147 1229 l 318 1229 l 418 1085 l 522 1229 l 689 1229 l 488 969 l 349 969 m 71 0 l 71 894 l 458 894 q 688 849 594 894 q 829 705 781 804 q 878 442 878 606 q 772 106 878 211 q 458 0 665 0 l 71 0 m 294 172 l 428 172 q 549 194 500 172 q 624 274 599 215 q 650 442 650 332 q 627 613 650 553 q 555 698 604 674 q 428 722 506 722 l 294 722 l 294 172 z "},"Đ":{"ha":968,"x_min":15,"x_max":924,"o":"m 117 0 l 117 357 l 15 357 l 15 519 l 117 519 l 117 894 l 504 894 q 733 849 640 894 q 875 705 826 804 q 924 442 924 606 q 817 106 924 211 q 504 0 711 0 l 117 0 m 340 172 l 474 172 q 595 194 546 172 q 670 274 644 215 q 696 442 696 332 q 673 613 696 553 q 601 698 650 674 q 474 722 551 722 l 340 722 l 340 519 l 515 519 l 515 357 l 340 357 l 340 172 z "},"Ḍ":{"ha":921,"x_min":71,"x_max":878,"o":"m 71 0 l 71 894 l 458 894 q 688 849 594 894 q 829 705 781 804 q 878 442 878 606 q 772 106 878 211 q 458 0 665 0 l 71 0 m 294 172 l 428 172 q 549 194 500 172 q 624 274 599 215 q 650 442 650 332 q 627 613 650 553 q 555 698 604 674 q 428 722 506 722 l 294 722 l 294 172 m 335 -262 l 335 -111 l 499 -111 l 499 -262 l 335 -262 z "},"Ḏ":{"ha":921,"x_min":71,"x_max":878,"o":"m 71 0 l 71 894 l 458 894 q 688 849 594 894 q 829 705 781 804 q 878 442 878 606 q 772 106 878 211 q 458 0 665 0 l 71 0 m 294 172 l 428 172 q 549 194 500 172 q 624 274 599 215 q 650 442 650 332 q 627 613 650 553 q 555 698 604 674 q 428 722 506 722 l 294 722 l 294 172 m 199 -250 l 199 -114 l 640 -114 l 640 -250 l 199 -250 z "},"E":{"ha":767,"x_min":71,"x_max":731,"o":"m 71 0 l 71 894 l 731 894 l 731 722 l 294 722 l 294 535 l 679 535 l 679 360 l 294 360 l 294 172 l 731 172 l 731 0 l 71 0 z "},"É":{"ha":767,"x_min":71,"x_max":731,"o":"m 293 956 l 410 1228 l 593 1228 l 465 956 l 293 956 m 71 0 l 71 894 l 731 894 l 731 722 l 294 722 l 294 535 l 679 535 l 679 360 l 294 360 l 294 172 l 731 172 l 731 0 l 71 0 z "},"Ĕ":{"ha":767,"x_min":71,"x_max":731,"o":"m 407 956 q 233 1018 300 956 q 167 1194 167 1081 l 314 1194 q 335 1114 314 1147 q 407 1081 357 1081 q 481 1114 458 1081 q 503 1194 503 1147 l 650 1194 q 583 1018 650 1081 q 407 956 515 956 m 71 0 l 71 894 l 731 894 l 731 722 l 294 722 l 294 535 l 679 535 l 679 360 l 294 360 l 294 172 l 731 172 l 731 0 l 71 0 z "},"Ě":{"ha":767,"x_min":71,"x_max":731,"o":"m 342 954 l 140 1214 l 311 1214 l 411 1069 l 515 1214 l 682 1214 l 481 954 l 342 954 m 71 0 l 71 894 l 731 894 l 731 722 l 294 722 l 294 535 l 679 535 l 679 360 l 294 360 l 294 172 l 731 172 l 731 0 l 71 0 z "},"Ê":{"ha":767,"x_min":71,"x_max":731,"o":"m 129 954 l 331 1214 l 469 1214 l 671 954 l 504 954 l 400 1099 l 300 954 l 129 954 m 71 0 l 71 894 l 731 894 l 731 722 l 294 722 l 294 535 l 679 535 l 679 360 l 294 360 l 294 172 l 731 172 l 731 0 l 71 0 z "},"Ế":{"ha":767,"x_min":71,"x_max":804,"o":"m 542 1124 l 638 1331 l 804 1331 l 700 1124 l 542 1124 m 117 956 l 303 1156 l 471 1156 l 657 956 l 478 956 l 388 1067 l 297 956 l 117 956 m 71 0 l 71 894 l 731 894 l 731 722 l 294 722 l 294 535 l 679 535 l 679 360 l 294 360 l 294 172 l 731 172 l 731 0 l 71 0 z "},"Ệ":{"ha":767,"x_min":71,"x_max":731,"o":"m 119 956 l 321 1215 l 460 1215 l 661 956 l 494 956 l 390 1100 l 290 956 l 119 956 m 71 0 l 71 894 l 731 894 l 731 722 l 294 722 l 294 535 l 679 535 l 679 360 l 294 360 l 294 172 l 731 172 l 731 0 l 71 0 m 310 -249 l 310 -97 l 474 -97 l 474 -249 l 310 -249 z "},"Ề":{"ha":767,"x_min":-19,"x_max":731,"o":"m 85 1124 l -19 1331 l 147 1331 l 243 1124 l 85 1124 m 128 956 l 314 1156 l 482 1156 l 668 956 l 488 956 l 397 1067 l 307 956 l 128 956 m 71 0 l 71 894 l 731 894 l 731 722 l 294 722 l 294 535 l 679 535 l 679 360 l 294 360 l 294 172 l 731 172 l 731 0 l 71 0 z "},"Ể":{"ha":767,"x_min":71,"x_max":815,"o":"m 561 1093 l 561 1192 q 643 1206 624 1194 q 663 1238 663 1218 q 603 1272 663 1272 q 563 1269 582 1272 q 529 1258 544 1265 l 529 1351 q 585 1363 553 1358 q 656 1368 617 1368 q 775 1337 735 1368 q 815 1253 815 1306 q 790 1176 815 1206 q 713 1139 765 1147 l 713 1093 l 561 1093 m 122 956 l 308 1156 l 476 1156 l 663 956 l 483 956 l 393 1067 l 303 956 l 122 956 m 71 0 l 71 894 l 731 894 l 731 722 l 294 722 l 294 535 l 679 535 l 679 360 l 294 360 l 294 172 l 731 172 l 731 0 l 71 0 z "},"Ễ":{"ha":767,"x_min":71,"x_max":731,"o":"m 535 1176 q 453 1190 493 1176 q 374 1218 413 1204 q 300 1232 336 1232 q 172 1181 221 1232 l 172 1307 q 225 1339 192 1326 q 296 1351 258 1351 q 378 1338 340 1351 q 453 1309 417 1324 q 531 1294 490 1294 q 601 1309 571 1294 q 650 1349 632 1324 l 650 1221 q 606 1190 636 1203 q 535 1176 575 1176 m 129 956 l 315 1156 l 483 1156 l 669 956 l 490 956 l 400 1067 l 310 956 l 129 956 m 71 0 l 71 894 l 731 894 l 731 722 l 294 722 l 294 535 l 679 535 l 679 360 l 294 360 l 294 172 l 731 172 l 731 0 l 71 0 z "},"Ë":{"ha":767,"x_min":71,"x_max":731,"o":"m 181 992 l 181 1143 l 344 1143 l 344 992 l 181 992 m 467 992 l 467 1143 l 631 1143 l 631 992 l 467 992 m 71 0 l 71 894 l 731 894 l 731 722 l 294 722 l 294 535 l 679 535 l 679 360 l 294 360 l 294 172 l 731 172 l 731 0 l 71 0 z "},"Ė":{"ha":767,"x_min":71,"x_max":731,"o":"m 318 992 l 318 1143 l 481 1143 l 481 992 l 318 992 m 71 0 l 71 894 l 731 894 l 731 722 l 294 722 l 294 535 l 679 535 l 679 360 l 294 360 l 294 172 l 731 172 l 731 0 l 71 0 z "},"Ẹ":{"ha":767,"x_min":71,"x_max":731,"o":"m 71 0 l 71 894 l 731 894 l 731 722 l 294 722 l 294 535 l 679 535 l 679 360 l 294 360 l 294 172 l 731 172 l 731 0 l 71 0 m 308 -249 l 308 -97 l 472 -97 l 472 -249 l 308 -249 z "},"È":{"ha":767,"x_min":71,"x_max":731,"o":"m 338 956 l 208 1228 l 392 1228 l 508 956 l 338 956 m 71 0 l 71 894 l 731 894 l 731 722 l 294 722 l 294 535 l 679 535 l 679 360 l 294 360 l 294 172 l 731 172 l 731 0 l 71 0 z "},"Ẻ":{"ha":767,"x_min":71,"x_max":731,"o":"m 311 956 l 311 1068 q 410 1088 385 1072 q 435 1132 435 1104 q 411 1170 435 1158 q 344 1182 388 1182 q 301 1178 325 1182 q 261 1169 278 1175 l 261 1269 q 410 1289 317 1289 q 550 1251 501 1289 q 599 1151 599 1213 q 570 1062 599 1092 q 481 1017 542 1032 l 481 956 l 311 956 m 71 0 l 71 894 l 731 894 l 731 722 l 294 722 l 294 535 l 679 535 l 679 360 l 294 360 l 294 172 l 731 172 l 731 0 l 71 0 z "},"Ē":{"ha":767,"x_min":71,"x_max":731,"o":"m 168 1004 l 168 1139 l 610 1139 l 610 1004 l 168 1004 m 71 0 l 71 894 l 731 894 l 731 722 l 294 722 l 294 535 l 679 535 l 679 360 l 294 360 l 294 172 l 731 172 l 731 0 l 71 0 z "},"Ę":{"ha":767,"x_min":71,"x_max":731,"o":"m 71 0 l 71 894 l 731 894 l 731 722 l 294 722 l 294 535 l 679 535 l 679 360 l 294 360 l 294 172 l 731 172 l 731 0 l 676 0 q 613 -63 638 -29 q 589 -135 589 -97 q 606 -175 589 -162 q 650 -187 622 -187 q 688 -183 668 -187 q 719 -172 707 -179 l 719 -285 q 664 -299 700 -293 q 589 -306 628 -306 q 468 -274 518 -306 q 418 -175 418 -243 q 445 -76 418 -122 q 519 0 472 -31 l 71 0 z "},"Ẽ":{"ha":767,"x_min":71,"x_max":731,"o":"m 529 969 q 445 984 486 969 q 366 1013 404 999 q 292 1026 328 1026 q 219 1013 251 1026 q 161 974 186 999 l 161 1122 q 215 1154 181 1142 q 288 1167 249 1167 q 371 1153 332 1167 q 447 1124 410 1139 q 525 1110 485 1110 q 597 1124 567 1110 q 646 1164 628 1139 l 646 1014 q 601 983 632 996 q 529 969 569 969 m 71 0 l 71 894 l 731 894 l 731 722 l 294 722 l 294 535 l 679 535 l 679 360 l 294 360 l 294 172 l 731 172 l 731 0 l 71 0 z "},"F":{"ha":736,"x_min":71,"x_max":721,"o":"m 71 0 l 71 894 l 721 894 l 721 722 l 294 722 l 294 535 l 669 535 l 669 360 l 294 360 l 294 0 l 71 0 z "},"G":{"ha":899,"x_min":43,"x_max":856,"o":"m 517 -14 q 164 103 285 -14 q 43 435 43 221 q 167 783 43 658 q 531 908 290 908 q 678 899 613 908 q 804 869 744 889 l 804 678 q 680 708 744 700 q 547 717 615 717 q 337 648 403 717 q 271 435 271 579 q 333 240 271 303 q 518 176 396 176 q 668 199 599 176 l 668 368 l 475 368 l 475 508 l 856 508 l 856 65 q 724 10 808 35 q 517 -14 640 -14 z "},"Ğ":{"ha":899,"x_min":43,"x_max":856,"o":"m 517 956 q 343 1018 410 956 q 276 1194 276 1081 l 424 1194 q 445 1114 424 1147 q 517 1081 467 1081 q 590 1114 568 1081 q 613 1194 613 1147 l 760 1194 q 692 1018 760 1081 q 517 956 625 956 m 517 -14 q 164 103 285 -14 q 43 435 43 221 q 167 783 43 658 q 531 908 290 908 q 678 899 613 908 q 804 869 744 889 l 804 678 q 680 708 744 700 q 547 717 615 717 q 337 648 403 717 q 271 435 271 579 q 333 240 271 303 q 518 176 396 176 q 668 199 599 176 l 668 368 l 475 368 l 475 508 l 856 508 l 856 65 q 724 10 808 35 q 517 -14 640 -14 z "},"Ǧ":{"ha":899,"x_min":43,"x_max":856,"o":"m 443 956 l 242 1215 l 413 1215 l 513 1071 l 617 1215 l 783 1215 l 582 956 l 443 956 m 517 -14 q 164 103 285 -14 q 43 435 43 221 q 167 783 43 658 q 531 908 290 908 q 678 899 613 908 q 804 869 744 889 l 804 678 q 680 708 744 700 q 547 717 615 717 q 337 648 403 717 q 271 435 271 579 q 333 240 271 303 q 518 176 396 176 q 668 199 599 176 l 668 368 l 475 368 l 475 508 l 856 508 l 856 65 q 724 10 808 35 q 517 -14 640 -14 z "},"Ĝ":{"ha":899,"x_min":43,"x_max":856,"o":"m 231 954 l 432 1214 l 571 1214 l 772 954 l 606 954 l 501 1099 l 401 954 l 231 954 m 517 -14 q 164 103 285 -14 q 43 435 43 221 q 167 783 43 658 q 531 908 290 908 q 678 899 613 908 q 804 869 744 889 l 804 678 q 680 708 744 700 q 547 717 615 717 q 337 648 403 717 q 271 435 271 579 q 333 240 271 303 q 518 176 396 176 q 668 199 599 176 l 668 368 l 475 368 l 475 508 l 856 508 l 856 65 q 724 10 808 35 q 517 -14 640 -14 z "},"Ģ":{"ha":899,"x_min":43,"x_max":856,"o":"m 517 -14 q 164 103 285 -14 q 43 435 43 221 q 167 783 43 658 q 531 908 290 908 q 678 899 613 908 q 804 869 744 889 l 804 678 q 680 708 744 700 q 547 717 615 717 q 337 648 403 717 q 271 435 271 579 q 333 240 271 303 q 518 176 396 176 q 668 199 599 176 l 668 368 l 475 368 l 475 508 l 856 508 l 856 65 q 724 10 808 35 q 517 -14 640 -14 m 397 -347 l 443 -51 l 622 -51 l 549 -347 l 397 -347 z "},"Ġ":{"ha":899,"x_min":43,"x_max":856,"o":"m 446 992 l 446 1143 l 608 1143 l 608 992 l 446 992 m 517 -14 q 164 103 285 -14 q 43 435 43 221 q 167 783 43 658 q 531 908 290 908 q 678 899 613 908 q 804 869 744 889 l 804 678 q 680 708 744 700 q 547 717 615 717 q 337 648 403 717 q 271 435 271 579 q 333 240 271 303 q 518 176 396 176 q 668 199 599 176 l 668 368 l 475 368 l 475 508 l 856 508 l 856 65 q 724 10 808 35 q 517 -14 640 -14 z "},"Ḡ":{"ha":899,"x_min":43,"x_max":856,"o":"m 299 996 l 299 1131 l 740 1131 l 740 996 l 299 996 m 517 -14 q 164 103 285 -14 q 43 435 43 221 q 167 783 43 658 q 531 908 290 908 q 678 899 613 908 q 804 869 744 889 l 804 678 q 680 708 744 700 q 547 717 615 717 q 337 648 403 717 q 271 435 271 579 q 333 240 271 303 q 518 176 396 176 q 668 199 599 176 l 668 368 l 475 368 l 475 508 l 856 508 l 856 65 q 724 10 808 35 q 517 -14 640 -14 z "},"H":{"ha":939,"x_min":71,"x_max":868,"o":"m 71 0 l 71 894 l 294 894 l 294 540 l 644 540 l 644 894 l 868 894 l 868 0 l 644 0 l 644 354 l 294 354 l 294 0 l 71 0 z "},"Ħ":{"ha":940,"x_min":14,"x_max":925,"o":"m 71 0 l 71 631 l 14 631 l 14 790 l 71 790 l 71 894 l 294 894 l 294 790 l 644 790 l 644 894 l 868 894 l 868 790 l 925 790 l 925 631 l 868 631 l 868 0 l 644 0 l 644 354 l 294 354 l 294 0 l 71 0 m 294 540 l 644 540 l 644 631 l 294 631 l 294 540 z "},"Ḫ":{"ha":939,"x_min":71,"x_max":868,"o":"m 71 0 l 71 894 l 294 894 l 294 540 l 644 540 l 644 894 l 868 894 l 868 0 l 644 0 l 644 354 l 294 354 l 294 0 l 71 0 m 468 -315 q 294 -253 361 -315 q 228 -76 228 -190 l 375 -76 q 397 -157 375 -124 q 468 -190 418 -190 q 542 -157 519 -190 q 564 -76 564 -124 l 711 -76 q 644 -253 711 -190 q 468 -315 576 -315 z "},"Ĥ":{"ha":939,"x_min":71,"x_max":868,"o":"m 197 954 l 399 1214 l 538 1214 l 739 954 l 572 954 l 468 1099 l 368 954 l 197 954 m 71 0 l 71 894 l 294 894 l 294 540 l 644 540 l 644 894 l 868 894 l 868 0 l 644 0 l 644 354 l 294 354 l 294 0 l 71 0 z "},"Ḥ":{"ha":939,"x_min":71,"x_max":868,"o":"m 71 0 l 71 894 l 294 894 l 294 540 l 644 540 l 644 894 l 868 894 l 868 0 l 644 0 l 644 354 l 294 354 l 294 0 l 71 0 m 388 -262 l 388 -111 l 551 -111 l 551 -262 l 388 -262 z "},"I":{"ha":365,"x_min":71,"x_max":294,"o":"m 71 0 l 71 894 l 294 894 l 294 0 l 71 0 z "},"Ĳ":{"ha":967,"x_min":71,"x_max":901,"o":"m 574 -14 q 465 -6 517 -14 q 368 18 413 1 l 368 206 q 443 184 401 192 q 528 176 485 176 q 644 209 610 176 q 678 318 678 242 l 678 894 l 901 894 l 901 276 q 818 61 901 136 q 574 -14 735 -14 m 71 0 l 71 894 l 294 894 l 294 0 l 71 0 z "},"Í":{"ha":367,"x_min":71,"x_max":393,"o":"m 93 956 l 210 1228 l 393 1228 l 265 956 l 93 956 m 71 0 l 71 894 l 294 894 l 294 0 l 71 0 z "},"Ĭ":{"ha":367,"x_min":-58,"x_max":425,"o":"m 182 979 q 8 1042 75 979 q -58 1218 -58 1104 l 89 1218 q 110 1138 89 1171 q 182 1104 132 1104 q 256 1138 233 1104 q 278 1218 278 1171 l 425 1218 q 358 1042 425 1104 q 182 979 290 979 m 71 0 l 71 894 l 294 894 l 294 0 l 71 0 z "},"Ǐ":{"ha":367,"x_min":-89,"x_max":453,"o":"m 113 956 l -89 1215 l 82 1215 l 182 1071 l 286 1215 l 453 1215 l 251 956 l 113 956 m 71 0 l 71 894 l 294 894 l 294 0 l 71 0 z "},"Î":{"ha":367,"x_min":-89,"x_max":453,"o":"m -89 954 l 113 1214 l 251 1214 l 453 954 l 286 954 l 182 1099 l 82 954 l -89 954 m 71 0 l 71 894 l 294 894 l 294 0 l 71 0 z "},"Ï":{"ha":365,"x_min":-42,"x_max":408,"o":"m -42 1000 l -42 1151 l 122 1151 l 122 1000 l -42 1000 m 244 1000 l 244 1151 l 408 1151 l 408 1000 l 244 1000 m 71 0 l 71 894 l 294 894 l 294 0 l 71 0 z "},"İ":{"ha":365,"x_min":71,"x_max":294,"o":"m 101 1000 l 101 1151 l 264 1151 l 264 1000 l 101 1000 m 71 0 l 71 894 l 294 894 l 294 0 l 71 0 z "},"Ị":{"ha":365,"x_min":71,"x_max":294,"o":"m 71 0 l 71 894 l 294 894 l 294 0 l 71 0 m 100 -249 l 100 -97 l 264 -97 l 264 -249 l 100 -249 z "},"Ì":{"ha":365,"x_min":-31,"x_max":294,"o":"m 99 956 l -31 1228 l 153 1228 l 269 956 l 99 956 m 71 0 l 71 894 l 294 894 l 294 0 l 71 0 z "},"Ỉ":{"ha":367,"x_min":42,"x_max":379,"o":"m 92 956 l 92 1068 q 190 1088 165 1072 q 215 1132 215 1104 q 192 1170 215 1158 q 125 1182 168 1182 q 82 1178 106 1182 q 42 1169 58 1175 l 42 1269 q 190 1289 97 1289 q 331 1251 282 1289 q 379 1151 379 1213 q 351 1062 379 1092 q 261 1017 322 1032 l 261 956 l 92 956 m 71 0 l 71 894 l 294 894 l 294 0 l 71 0 z "},"Ī":{"ha":367,"x_min":-37,"x_max":404,"o":"m -37 1004 l -37 1139 l 404 1139 l 404 1004 l -37 1004 m 71 0 l 71 894 l 294 894 l 294 0 l 71 0 z "},"Į":{"ha":367,"x_min":6,"x_max":307,"o":"m 71 0 l 71 894 l 294 894 l 294 0 l 264 0 q 201 -63 225 -29 q 176 -135 176 -97 q 193 -175 176 -162 q 238 -187 210 -187 q 275 -183 256 -187 q 307 -172 294 -179 l 307 -285 q 251 -299 288 -293 q 176 -306 215 -306 q 56 -274 106 -306 q 6 -175 6 -243 q 33 -76 6 -122 q 107 0 60 -31 l 71 0 z "},"Ĩ":{"ha":367,"x_min":-60,"x_max":425,"o":"m 308 979 q 224 994 265 979 q 145 1022 183 1008 q 71 1036 107 1036 q -2 1022 31 1036 q -60 983 -35 1008 l -60 1132 q -6 1164 -40 1151 q 67 1176 28 1176 q 150 1163 111 1176 q 226 1134 189 1149 q 304 1119 264 1119 q 376 1134 346 1119 q 425 1174 407 1149 l 425 1024 q 380 992 411 1006 q 308 979 349 979 m 71 0 l 71 894 l 294 894 l 294 0 l 71 0 z "},"J":{"ha":613,"x_min":15,"x_max":549,"o":"m 221 -14 q 112 -6 164 -14 q 15 18 60 1 l 15 206 q 90 184 49 192 q 175 176 132 176 q 291 209 257 176 q 325 318 325 242 l 325 894 l 549 894 l 549 276 q 465 61 549 136 q 221 -14 382 -14 z "},"Ĵ":{"ha":613,"x_min":15,"x_max":700,"o":"m 158 954 l 360 1214 l 499 1214 l 700 954 l 533 954 l 429 1099 l 329 954 l 158 954 m 221 -14 q 112 -6 164 -14 q 15 18 60 1 l 15 206 q 90 184 49 192 q 175 176 132 176 q 291 209 257 176 q 325 318 325 242 l 325 894 l 549 894 l 549 276 q 465 61 549 136 q 221 -14 382 -14 z "},"K":{"ha":921,"x_min":71,"x_max":878,"o":"m 71 0 l 71 894 l 294 894 l 294 547 l 603 894 l 858 894 l 539 529 l 878 0 l 639 0 l 400 386 l 294 271 l 294 0 l 71 0 z "},"Ķ":{"ha":921,"x_min":71,"x_max":878,"o":"m 71 0 l 71 894 l 294 894 l 294 547 l 603 894 l 858 894 l 539 529 l 878 0 l 639 0 l 400 386 l 294 271 l 294 0 l 71 0 m 332 -347 l 378 -51 l 557 -51 l 483 -347 l 332 -347 z "},"L":{"ha":732,"x_min":71,"x_max":717,"o":"m 71 0 l 71 894 l 294 894 l 294 172 l 717 172 l 717 0 l 71 0 z "},"Ĺ":{"ha":732,"x_min":71,"x_max":717,"o":"m 94 956 l 211 1228 l 394 1228 l 267 956 l 94 956 m 71 0 l 71 894 l 294 894 l 294 172 l 717 172 l 717 0 l 71 0 z "},"Ľ":{"ha":732,"x_min":71,"x_max":717,"o":"m 71 0 l 71 894 l 294 894 l 294 172 l 717 172 l 717 0 l 71 0 m 425 599 l 471 894 l 650 894 l 576 599 l 425 599 z "},"Ļ":{"ha":732,"x_min":71,"x_max":717,"o":"m 71 0 l 71 894 l 294 894 l 294 172 l 717 172 l 717 0 l 71 0 m 281 -347 l 326 -51 l 506 -51 l 432 -347 l 281 -347 z "},"Ŀ":{"ha":732,"x_min":71,"x_max":717,"o":"m 71 0 l 71 894 l 294 894 l 294 172 l 717 172 l 717 0 l 71 0 m 467 394 l 467 546 l 631 546 l 631 394 l 467 394 z "},"Ḷ":{"ha":732,"x_min":71,"x_max":717,"o":"m 71 0 l 71 894 l 294 894 l 294 172 l 717 172 l 717 0 l 71 0 m 301 -249 l 301 -97 l 465 -97 l 465 -249 l 301 -249 z "},"Ḹ":{"ha":732,"x_min":-14,"x_max":717,"o":"m -14 996 l -14 1131 l 428 1131 l 428 996 l -14 996 m 71 0 l 71 894 l 294 894 l 294 172 l 717 172 l 717 0 l 71 0 m 301 -249 l 301 -97 l 465 -97 l 465 -249 l 301 -249 z "},"Ḻ":{"ha":732,"x_min":71,"x_max":717,"o":"m 71 0 l 71 894 l 294 894 l 294 172 l 717 172 l 717 0 l 71 0 m 167 -233 l 167 -97 l 608 -97 l 608 -233 l 167 -233 z "},"Ł":{"ha":732,"x_min":-37,"x_max":717,"o":"m 71 0 l 71 346 l -37 299 l -37 458 l 71 506 l 71 894 l 294 894 l 294 603 l 442 668 l 442 508 l 294 443 l 294 172 l 717 172 l 717 0 l 71 0 z "},"M":{"ha":1067,"x_min":71,"x_max":996,"o":"m 71 0 l 71 894 l 292 894 l 535 399 l 776 894 l 996 894 l 996 0 l 772 0 l 772 514 l 596 153 l 472 153 l 294 514 l 294 0 l 71 0 z "},"Ṃ":{"ha":1067,"x_min":71,"x_max":996,"o":"m 71 0 l 71 894 l 292 894 l 535 399 l 776 894 l 996 894 l 996 0 l 772 0 l 772 514 l 596 153 l 472 153 l 294 514 l 294 0 l 71 0 m 461 -249 l 461 -97 l 625 -97 l 625 -249 l 461 -249 z "},"N":{"ha":939,"x_min":71,"x_max":868,"o":"m 71 0 l 71 894 l 263 894 l 643 360 l 643 894 l 868 894 l 868 0 l 675 0 l 294 533 l 294 0 l 71 0 z "},"Ń":{"ha":939,"x_min":71,"x_max":868,"o":"m 360 956 l 476 1228 l 660 1228 l 532 956 l 360 956 m 71 0 l 71 894 l 263 894 l 643 360 l 643 894 l 868 894 l 868 0 l 675 0 l 294 533 l 294 0 l 71 0 z "},"Ň":{"ha":939,"x_min":71,"x_max":868,"o":"m 400 954 l 199 1214 l 369 1214 l 469 1069 l 574 1214 l 740 1214 l 539 954 l 400 954 m 71 0 l 71 894 l 263 894 l 643 360 l 643 894 l 868 894 l 868 0 l 675 0 l 294 533 l 294 0 l 71 0 z "},"Ņ":{"ha":939,"x_min":71,"x_max":868,"o":"m 71 0 l 71 894 l 263 894 l 643 360 l 643 894 l 868 894 l 868 0 l 675 0 l 294 533 l 294 0 l 71 0 m 347 -347 l 393 -51 l 572 -51 l 499 -347 l 347 -347 z "},"Ṅ":{"ha":939,"x_min":71,"x_max":868,"o":"m 392 992 l 392 1143 l 554 1143 l 554 992 l 392 992 m 71 0 l 71 894 l 263 894 l 643 360 l 643 894 l 868 894 l 868 0 l 675 0 l 294 533 l 294 0 l 71 0 z "},"Ṇ":{"ha":939,"x_min":71,"x_max":868,"o":"m 71 0 l 71 894 l 263 894 l 643 360 l 643 894 l 868 894 l 868 0 l 675 0 l 294 533 l 294 0 l 71 0 m 389 -249 l 389 -97 l 553 -97 l 553 -249 l 389 -249 z "},"Ŋ":{"ha":939,"x_min":71,"x_max":868,"o":"m 626 -325 q 463 -297 528 -325 l 463 -149 q 506 -159 485 -156 q 546 -162 528 -162 q 620 -141 597 -162 q 643 -76 643 -119 l 643 44 l 294 533 l 294 0 l 71 0 l 71 894 l 263 894 l 643 360 l 643 894 l 868 894 l 868 -96 q 809 -261 868 -197 q 626 -325 750 -325 z "},"Ṉ":{"ha":939,"x_min":71,"x_max":868,"o":"m 71 0 l 71 894 l 263 894 l 643 360 l 643 894 l 868 894 l 868 0 l 675 0 l 294 533 l 294 0 l 71 0 m 254 -231 l 254 -94 l 696 -94 l 696 -231 l 254 -231 z "},"Ñ":{"ha":939,"x_min":71,"x_max":868,"o":"m 607 969 q 523 984 564 969 q 444 1013 482 999 q 369 1026 406 1026 q 297 1013 329 1026 q 239 974 264 999 l 239 1122 q 292 1154 258 1142 q 365 1167 326 1167 q 449 1153 410 1167 q 525 1124 488 1139 q 603 1110 563 1110 q 675 1124 644 1110 q 724 1164 706 1139 l 724 1014 q 678 983 710 996 q 607 969 647 969 m 71 0 l 71 894 l 263 894 l 643 360 l 643 894 l 868 894 l 868 0 l 675 0 l 294 533 l 294 0 l 71 0 z "},"O":{"ha":978,"x_min":43,"x_max":935,"o":"m 489 -14 q 157 97 271 -14 q 43 443 43 208 q 157 800 43 692 q 489 908 271 908 q 821 800 707 908 q 935 443 935 692 q 821 97 935 208 q 489 -14 707 -14 m 489 176 q 653 241 601 176 q 706 443 706 306 q 653 655 706 593 q 489 717 601 717 q 323 655 375 717 q 271 443 271 593 q 323 241 271 306 q 489 176 375 176 z "},"Ó":{"ha":978,"x_min":43,"x_max":935,"o":"m 388 956 l 504 1228 l 688 1228 l 560 956 l 388 956 m 489 -14 q 157 97 271 -14 q 43 443 43 208 q 157 800 43 692 q 489 908 271 908 q 821 800 707 908 q 935 443 935 692 q 821 97 935 208 q 489 -14 707 -14 m 489 176 q 653 241 601 176 q 706 443 706 306 q 653 655 706 593 q 489 717 601 717 q 323 655 375 717 q 271 443 271 593 q 323 241 271 306 q 489 176 375 176 z "},"Ŏ":{"ha":978,"x_min":43,"x_max":935,"o":"m 488 956 q 314 1018 381 956 q 247 1194 247 1081 l 394 1194 q 416 1114 394 1147 q 488 1081 438 1081 q 561 1114 539 1081 q 583 1194 583 1147 l 731 1194 q 663 1018 731 1081 q 488 956 596 956 m 489 -14 q 157 97 271 -14 q 43 443 43 208 q 157 800 43 692 q 489 908 271 908 q 821 800 707 908 q 935 443 935 692 q 821 97 935 208 q 489 -14 707 -14 m 489 176 q 653 241 601 176 q 706 443 706 306 q 653 655 706 593 q 489 717 601 717 q 323 655 375 717 q 271 443 271 593 q 323 241 271 306 q 489 176 375 176 z "},"Ǒ":{"ha":978,"x_min":43,"x_max":935,"o":"m 418 956 l 217 1215 l 388 1215 l 488 1071 l 592 1215 l 758 1215 l 557 956 l 418 956 m 489 -14 q 157 97 271 -14 q 43 443 43 208 q 157 800 43 692 q 489 908 271 908 q 821 800 707 908 q 935 443 935 692 q 821 97 935 208 q 489 -14 707 -14 m 489 176 q 653 241 601 176 q 706 443 706 306 q 653 655 706 593 q 489 717 601 717 q 323 655 375 717 q 271 443 271 593 q 323 241 271 306 q 489 176 375 176 z "},"Ô":{"ha":978,"x_min":43,"x_max":935,"o":"m 218 954 l 419 1214 l 558 1214 l 760 954 l 593 954 l 489 1099 l 389 954 l 218 954 m 489 -14 q 157 97 271 -14 q 43 443 43 208 q 157 800 43 692 q 489 908 271 908 q 821 800 707 908 q 935 443 935 692 q 821 97 935 208 q 489 -14 707 -14 m 489 176 q 653 241 601 176 q 706 443 706 306 q 653 655 706 593 q 489 717 601 717 q 323 655 375 717 q 271 443 271 593 q 323 241 271 306 q 489 176 375 176 z "},"Ố":{"ha":978,"x_min":43,"x_max":935,"o":"m 642 1124 l 738 1331 l 904 1331 l 800 1124 l 642 1124 m 217 956 l 403 1156 l 571 1156 l 757 956 l 578 956 l 488 1067 l 397 956 l 217 956 m 489 -14 q 157 97 271 -14 q 43 443 43 208 q 157 800 43 692 q 489 908 271 908 q 821 800 707 908 q 935 443 935 692 q 821 97 935 208 q 489 -14 707 -14 m 489 176 q 653 241 601 176 q 706 443 706 306 q 653 655 706 593 q 489 717 601 717 q 323 655 375 717 q 271 443 271 593 q 323 241 271 306 q 489 176 375 176 z "},"Ộ":{"ha":978,"x_min":43,"x_max":935,"o":"m 217 957 l 418 1217 l 557 1217 l 758 957 l 592 957 l 488 1101 l 388 957 l 217 957 m 489 -14 q 157 97 271 -14 q 43 443 43 208 q 157 800 43 692 q 489 908 271 908 q 821 800 707 908 q 935 443 935 692 q 821 97 935 208 q 489 -14 707 -14 m 489 176 q 653 241 601 176 q 706 443 706 306 q 653 655 706 593 q 489 717 601 717 q 323 655 375 717 q 271 443 271 593 q 323 241 271 306 q 489 176 375 176 m 406 -249 l 406 -97 l 569 -97 l 569 -249 l 406 -249 z "},"Ồ":{"ha":978,"x_min":43,"x_max":935,"o":"m 175 1124 l 71 1331 l 238 1331 l 333 1124 l 175 1124 m 218 956 l 404 1156 l 572 1156 l 758 956 l 578 956 l 488 1067 l 397 956 l 218 956 m 489 -14 q 157 97 271 -14 q 43 443 43 208 q 157 800 43 692 q 489 908 271 908 q 821 800 707 908 q 935 443 935 692 q 821 97 935 208 q 489 -14 707 -14 m 489 176 q 653 241 601 176 q 706 443 706 306 q 653 655 706 593 q 489 717 601 717 q 323 655 375 717 q 271 443 271 593 q 323 241 271 306 q 489 176 375 176 z "},"Ổ":{"ha":978,"x_min":43,"x_max":935,"o":"m 656 1093 l 656 1192 q 738 1206 718 1194 q 757 1238 757 1218 q 697 1272 757 1272 q 658 1269 676 1272 q 624 1258 639 1265 l 624 1351 q 679 1363 647 1358 q 750 1368 711 1368 q 869 1337 829 1368 q 910 1253 910 1306 q 885 1176 910 1206 q 807 1139 860 1147 l 807 1093 l 656 1093 m 217 956 l 403 1156 l 571 1156 l 757 956 l 578 956 l 488 1067 l 397 956 l 217 956 m 489 -14 q 157 97 271 -14 q 43 443 43 208 q 157 800 43 692 q 489 908 271 908 q 821 800 707 908 q 935 443 935 692 q 821 97 935 208 q 489 -14 707 -14 m 489 176 q 653 241 601 176 q 706 443 706 306 q 653 655 706 593 q 489 717 601 717 q 323 655 375 717 q 271 443 271 593 q 323 241 271 306 q 489 176 375 176 z "},"Ỗ":{"ha":978,"x_min":43,"x_max":935,"o":"m 611 1176 q 529 1190 569 1176 q 451 1218 489 1204 q 376 1232 413 1232 q 249 1181 297 1232 l 249 1307 q 301 1339 268 1326 q 372 1351 335 1351 q 455 1338 417 1351 q 530 1309 493 1324 q 607 1294 567 1294 q 678 1309 647 1294 q 726 1349 708 1324 l 726 1221 q 682 1190 713 1203 q 611 1176 651 1176 m 217 956 l 403 1156 l 571 1156 l 757 956 l 578 956 l 488 1067 l 397 956 l 217 956 m 489 -14 q 157 97 271 -14 q 43 443 43 208 q 157 800 43 692 q 489 908 271 908 q 821 800 707 908 q 935 443 935 692 q 821 97 935 208 q 489 -14 707 -14 m 489 176 q 653 241 601 176 q 706 443 706 306 q 653 655 706 593 q 489 717 601 717 q 323 655 375 717 q 271 443 271 593 q 323 241 271 306 q 489 176 375 176 z "},"Ö":{"ha":978,"x_min":43,"x_max":935,"o":"m 264 992 l 264 1143 l 428 1143 l 428 992 l 264 992 m 550 992 l 550 1143 l 714 1143 l 714 992 l 550 992 m 489 -14 q 157 97 271 -14 q 43 443 43 208 q 157 800 43 692 q 489 908 271 908 q 821 800 707 908 q 935 443 935 692 q 821 97 935 208 q 489 -14 707 -14 m 489 176 q 653 241 601 176 q 706 443 706 306 q 653 655 706 593 q 489 717 601 717 q 323 655 375 717 q 271 443 271 593 q 323 241 271 306 q 489 176 375 176 z "},"Ọ":{"ha":978,"x_min":43,"x_max":935,"o":"m 489 -14 q 157 97 271 -14 q 43 443 43 208 q 157 800 43 692 q 489 908 271 908 q 821 800 707 908 q 935 443 935 692 q 821 97 935 208 q 489 -14 707 -14 m 489 176 q 653 241 601 176 q 706 443 706 306 q 653 655 706 593 q 489 717 601 717 q 323 655 375 717 q 271 443 271 593 q 323 241 271 306 q 489 176 375 176 m 407 -249 l 407 -97 l 571 -97 l 571 -249 l 407 -249 z "},"Ò":{"ha":978,"x_min":43,"x_max":935,"o":"m 411 956 l 282 1228 l 465 1228 l 582 956 l 411 956 m 489 -14 q 157 97 271 -14 q 43 443 43 208 q 157 800 43 692 q 489 908 271 908 q 821 800 707 908 q 935 443 935 692 q 821 97 935 208 q 489 -14 707 -14 m 489 176 q 653 241 601 176 q 706 443 706 306 q 653 655 706 593 q 489 717 601 717 q 323 655 375 717 q 271 443 271 593 q 323 241 271 306 q 489 176 375 176 z "},"Ỏ":{"ha":978,"x_min":43,"x_max":935,"o":"m 400 956 l 400 1068 q 499 1088 474 1072 q 524 1132 524 1104 q 500 1170 524 1158 q 433 1182 476 1182 q 390 1178 414 1182 q 350 1169 367 1175 l 350 1269 q 499 1289 406 1289 q 639 1251 590 1289 q 688 1151 688 1213 q 659 1062 688 1092 q 569 1017 631 1032 l 569 956 l 400 956 m 489 -14 q 157 97 271 -14 q 43 443 43 208 q 157 800 43 692 q 489 908 271 908 q 821 800 707 908 q 935 443 935 692 q 821 97 935 208 q 489 -14 707 -14 m 489 176 q 653 241 601 176 q 706 443 706 306 q 653 655 706 593 q 489 717 601 717 q 323 655 375 717 q 271 443 271 593 q 323 241 271 306 q 489 176 375 176 z "},"Ơ":{"ha":1090,"x_min":43,"x_max":1085,"o":"m 489 -14 q 157 97 271 -14 q 43 443 43 208 q 157 800 43 692 q 489 908 271 908 q 800 813 692 908 q 897 846 868 815 q 925 956 925 876 l 1085 956 q 1040 758 1085 821 q 897 675 994 694 q 935 443 935 583 q 821 97 935 208 q 489 -14 707 -14 m 489 176 q 653 241 601 176 q 706 443 706 306 q 653 655 706 593 q 489 717 601 717 q 323 655 375 717 q 271 443 271 593 q 323 241 271 306 q 489 176 375 176 z "},"Ớ":{"ha":1090,"x_min":43,"x_max":1085,"o":"m 404 956 l 521 1228 l 704 1228 l 576 956 l 404 956 m 489 -14 q 157 97 271 -14 q 43 443 43 208 q 157 800 43 692 q 489 908 271 908 q 800 813 692 908 q 897 846 868 815 q 925 956 925 876 l 1085 956 q 1040 758 1085 821 q 897 675 994 694 q 935 443 935 583 q 821 97 935 208 q 489 -14 707 -14 m 489 176 q 653 241 601 176 q 706 443 706 306 q 653 655 706 593 q 489 717 601 717 q 323 655 375 717 q 271 443 271 593 q 323 241 271 306 q 489 176 375 176 z "},"Ợ":{"ha":1090,"x_min":43,"x_max":1085,"o":"m 489 -14 q 157 97 271 -14 q 43 443 43 208 q 157 800 43 692 q 489 908 271 908 q 800 813 692 908 q 897 846 868 815 q 925 956 925 876 l 1085 956 q 1040 758 1085 821 q 897 675 994 694 q 935 443 935 583 q 821 97 935 208 q 489 -14 707 -14 m 489 176 q 653 241 601 176 q 706 443 706 306 q 653 655 706 593 q 489 717 601 717 q 323 655 375 717 q 271 443 271 593 q 323 241 271 306 q 489 176 375 176 m 408 -249 l 408 -97 l 572 -97 l 572 -249 l 408 -249 z "},"Ờ":{"ha":1090,"x_min":43,"x_max":1085,"o":"m 426 956 l 297 1228 l 481 1228 l 597 956 l 426 956 m 489 -14 q 157 97 271 -14 q 43 443 43 208 q 157 800 43 692 q 489 908 271 908 q 800 813 692 908 q 897 846 868 815 q 925 956 925 876 l 1085 956 q 1040 758 1085 821 q 897 675 994 694 q 935 443 935 583 q 821 97 935 208 q 489 -14 707 -14 m 489 176 q 653 241 601 176 q 706 443 706 306 q 653 655 706 593 q 489 717 601 717 q 323 655 375 717 q 271 443 271 593 q 323 241 271 306 q 489 176 375 176 z "},"Ở":{"ha":1090,"x_min":43,"x_max":1085,"o":"m 404 956 l 404 1068 q 503 1088 478 1072 q 528 1132 528 1104 q 504 1170 528 1158 q 438 1182 481 1182 q 394 1178 418 1182 q 354 1169 371 1175 l 354 1269 q 503 1289 410 1289 q 643 1251 594 1289 q 692 1151 692 1213 q 663 1062 692 1092 q 574 1017 635 1032 l 574 956 l 404 956 m 489 -14 q 157 97 271 -14 q 43 443 43 208 q 157 800 43 692 q 489 908 271 908 q 800 813 692 908 q 897 846 868 815 q 925 956 925 876 l 1085 956 q 1040 758 1085 821 q 897 675 994 694 q 935 443 935 583 q 821 97 935 208 q 489 -14 707 -14 m 489 176 q 653 241 601 176 q 706 443 706 306 q 653 655 706 593 q 489 717 601 717 q 323 655 375 717 q 271 443 271 593 q 323 241 271 306 q 489 176 375 176 z "},"Ỡ":{"ha":1090,"x_min":43,"x_max":1085,"o":"m 624 964 q 540 978 581 964 q 460 1007 499 993 q 386 1021 422 1021 q 313 1007 346 1021 q 256 968 281 993 l 256 1117 q 309 1149 275 1136 q 382 1161 343 1161 q 465 1147 426 1161 q 542 1119 504 1133 q 619 1104 579 1104 q 692 1119 661 1104 q 740 1158 722 1133 l 740 1008 q 695 977 726 990 q 624 964 664 964 m 489 -14 q 157 97 271 -14 q 43 443 43 208 q 157 800 43 692 q 489 908 271 908 q 800 813 692 908 q 897 846 868 815 q 925 956 925 876 l 1085 956 q 1040 758 1085 821 q 897 675 994 694 q 935 443 935 583 q 821 97 935 208 q 489 -14 707 -14 m 489 176 q 653 241 601 176 q 706 443 706 306 q 653 655 706 593 q 489 717 601 717 q 323 655 375 717 q 271 443 271 593 q 323 241 271 306 q 489 176 375 176 z "},"Ő":{"ha":978,"x_min":43,"x_max":935,"o":"m 206 956 l 319 1206 l 513 1206 l 378 956 l 206 956 m 526 956 l 640 1206 l 833 1206 l 699 956 l 526 956 m 489 -14 q 157 97 271 -14 q 43 443 43 208 q 157 800 43 692 q 489 908 271 908 q 821 800 707 908 q 935 443 935 692 q 821 97 935 208 q 489 -14 707 -14 m 489 176 q 653 241 601 176 q 706 443 706 306 q 653 655 706 593 q 489 717 601 717 q 323 655 375 717 q 271 443 271 593 q 323 241 271 306 q 489 176 375 176 z "},"Ō":{"ha":978,"x_min":43,"x_max":935,"o":"m 264 1006 l 264 1140 l 706 1140 l 706 1006 l 264 1006 m 489 -14 q 157 97 271 -14 q 43 443 43 208 q 157 800 43 692 q 489 908 271 908 q 821 800 707 908 q 935 443 935 692 q 821 97 935 208 q 489 -14 707 -14 m 489 176 q 653 241 601 176 q 706 443 706 306 q 653 655 706 593 q 489 717 601 717 q 323 655 375 717 q 271 443 271 593 q 323 241 271 306 q 489 176 375 176 z "},"Ø":{"ha":978,"x_min":43,"x_max":935,"o":"m 217 -74 l 256 29 q 97 178 150 76 q 43 443 43 281 q 157 800 43 692 q 489 908 271 908 q 543 906 517 908 q 594 901 569 904 l 618 963 l 742 963 l 707 872 q 876 724 818 829 q 935 443 935 619 q 821 97 935 208 q 489 -14 707 -14 q 425 -11 456 -14 q 367 -4 394 -8 l 340 -74 l 217 -74 m 333 229 l 522 715 q 506 716 514 715 q 489 717 497 717 q 323 655 375 717 q 271 443 271 593 q 333 229 271 292 m 489 176 q 653 241 601 176 q 706 443 706 306 q 631 676 706 618 l 439 179 q 463 177 450 178 q 489 176 475 176 z "},"Ǿ":{"ha":978,"x_min":43,"x_max":935,"o":"m 357 956 l 474 1228 l 657 1228 l 529 956 l 357 956 m 217 -74 l 256 29 q 97 178 150 76 q 43 443 43 281 q 157 800 43 692 q 489 908 271 908 q 543 906 517 908 q 594 901 569 904 l 618 963 l 742 963 l 707 872 q 876 724 818 829 q 935 443 935 619 q 821 97 935 208 q 489 -14 707 -14 q 425 -11 456 -14 q 367 -4 394 -8 l 340 -74 l 217 -74 m 333 229 l 522 715 q 506 716 514 715 q 489 717 497 717 q 323 655 375 717 q 271 443 271 593 q 333 229 271 292 m 489 176 q 653 241 601 176 q 706 443 706 306 q 631 676 706 618 l 439 179 q 463 177 450 178 q 489 176 475 176 z "},"Õ":{"ha":978,"x_min":43,"x_max":935,"o":"m 615 986 q 531 1001 572 986 q 452 1029 490 1015 q 378 1043 414 1043 q 305 1029 338 1043 q 247 990 272 1015 l 247 1139 q 301 1171 267 1158 q 374 1183 335 1183 q 457 1169 418 1183 q 533 1141 496 1156 q 611 1126 571 1126 q 683 1141 653 1126 q 732 1181 714 1156 l 732 1031 q 687 999 718 1013 q 615 986 656 986 m 489 -14 q 157 97 271 -14 q 43 443 43 208 q 157 800 43 692 q 489 908 271 908 q 821 800 707 908 q 935 443 935 692 q 821 97 935 208 q 489 -14 707 -14 m 489 176 q 653 241 601 176 q 706 443 706 306 q 653 655 706 593 q 489 717 601 717 q 323 655 375 717 q 271 443 271 593 q 323 241 271 306 q 489 176 375 176 z "},"Œ":{"ha":1410,"x_min":43,"x_max":1367,"o":"m 489 -14 q 157 97 271 -14 q 43 443 43 208 q 157 800 43 692 q 489 908 271 908 q 707 872 617 908 l 707 894 l 1367 894 l 1367 722 l 931 722 l 931 535 l 1315 535 l 1315 360 l 931 360 l 931 358 l 931 172 l 1367 172 l 1367 0 l 707 0 l 707 22 q 489 -14 617 -14 m 489 176 q 653 241 601 176 q 706 443 706 306 q 653 655 706 593 q 489 717 601 717 q 323 655 375 717 q 271 443 271 593 q 323 241 271 306 q 489 176 375 176 z "},"P":{"ha":842,"x_min":71,"x_max":825,"o":"m 71 0 l 71 894 l 511 894 q 688 852 618 894 q 791 738 757 810 q 825 575 825 665 q 786 413 825 483 q 676 302 747 342 q 506 263 604 263 l 294 263 l 294 0 l 71 0 m 294 435 l 456 435 q 562 474 526 435 q 597 576 597 513 q 565 684 597 646 q 463 722 532 722 l 294 722 l 294 435 z "},"Þ":{"ha":842,"x_min":71,"x_max":825,"o":"m 71 0 l 71 894 l 294 894 l 294 760 l 511 760 q 688 719 618 760 q 791 606 757 678 q 825 444 825 535 q 786 282 825 353 q 676 172 747 211 q 506 132 604 132 l 294 132 l 294 0 l 71 0 m 294 304 l 456 304 q 562 342 526 304 q 597 444 597 381 q 565 551 597 514 q 463 588 532 588 l 294 588 l 294 304 z "},"Q":{"ha":978,"x_min":43,"x_max":935,"o":"m 642 -239 q 494 -213 547 -239 q 419 -136 440 -187 q 397 -8 399 -85 q 133 123 224 13 q 43 443 43 233 q 157 800 43 692 q 489 908 271 908 q 821 800 707 908 q 935 443 935 692 q 848 128 935 238 q 596 -6 761 18 q 612 -67 596 -50 q 667 -85 628 -85 q 754 -74 710 -85 l 754 -225 q 699 -235 733 -231 q 642 -239 665 -239 m 489 176 q 653 241 601 176 q 706 443 706 306 q 653 655 706 593 q 489 717 601 717 q 323 655 375 717 q 271 443 271 593 q 323 241 271 306 q 489 176 375 176 z "},"R":{"ha":869,"x_min":71,"x_max":826,"o":"m 71 0 l 71 894 l 518 894 q 751 811 676 894 q 826 588 826 728 q 781 429 826 497 q 656 328 735 361 q 687 294 675 313 q 713 242 699 275 l 818 0 l 585 0 l 485 228 q 453 270 472 257 q 397 283 433 283 l 294 283 l 294 0 l 71 0 m 294 456 l 460 456 q 562 488 525 456 q 599 588 599 521 q 469 722 599 722 l 294 722 l 294 456 z "},"Ŕ":{"ha":869,"x_min":71,"x_max":826,"o":"m 288 956 l 404 1228 l 588 1228 l 460 956 l 288 956 m 71 0 l 71 894 l 518 894 q 751 811 676 894 q 826 588 826 728 q 781 429 826 497 q 656 328 735 361 q 687 294 675 313 q 713 242 699 275 l 818 0 l 585 0 l 485 228 q 453 270 472 257 q 397 283 433 283 l 294 283 l 294 0 l 71 0 m 294 456 l 460 456 q 562 488 525 456 q 599 588 599 521 q 469 722 599 722 l 294 722 l 294 456 z "},"Ř":{"ha":869,"x_min":71,"x_max":826,"o":"m 324 956 l 122 1215 l 293 1215 l 393 1071 l 497 1215 l 664 1215 l 463 956 l 324 956 m 71 0 l 71 894 l 518 894 q 751 811 676 894 q 826 588 826 728 q 781 429 826 497 q 656 328 735 361 q 687 294 675 313 q 713 242 699 275 l 818 0 l 585 0 l 485 228 q 453 270 472 257 q 397 283 433 283 l 294 283 l 294 0 l 71 0 m 294 456 l 460 456 q 562 488 525 456 q 599 588 599 521 q 469 722 599 722 l 294 722 l 294 456 z "},"Ŗ":{"ha":869,"x_min":71,"x_max":826,"o":"m 71 0 l 71 894 l 518 894 q 751 811 676 894 q 826 588 826 728 q 781 429 826 497 q 656 328 735 361 q 687 294 675 313 q 713 242 699 275 l 818 0 l 585 0 l 485 228 q 453 270 472 257 q 397 283 433 283 l 294 283 l 294 0 l 71 0 m 294 456 l 460 456 q 562 488 525 456 q 599 588 599 521 q 469 722 599 722 l 294 722 l 294 456 m 288 -347 l 333 -51 l 513 -51 l 439 -347 l 288 -347 z "},"Ṛ":{"ha":869,"x_min":71,"x_max":826,"o":"m 71 0 l 71 894 l 518 894 q 751 811 676 894 q 826 588 826 728 q 781 429 826 497 q 656 328 735 361 q 687 294 675 313 q 713 242 699 275 l 818 0 l 585 0 l 485 228 q 453 270 472 257 q 397 283 433 283 l 294 283 l 294 0 l 71 0 m 294 456 l 460 456 q 562 488 525 456 q 599 588 599 521 q 469 722 599 722 l 294 722 l 294 456 m 340 -249 l 340 -97 l 504 -97 l 504 -249 l 340 -249 z "},"Ṝ":{"ha":869,"x_min":71,"x_max":826,"o":"m 165 996 l 165 1131 l 607 1131 l 607 996 l 165 996 m 71 0 l 71 894 l 518 894 q 751 811 676 894 q 826 588 826 728 q 781 429 826 497 q 656 328 735 361 q 687 294 675 313 q 713 242 699 275 l 818 0 l 585 0 l 485 228 q 453 270 472 257 q 397 283 433 283 l 294 283 l 294 0 l 71 0 m 294 456 l 460 456 q 562 488 525 456 q 599 588 599 521 q 469 722 599 722 l 294 722 l 294 456 m 340 -249 l 340 -97 l 504 -97 l 504 -249 l 340 -249 z "},"Ṟ":{"ha":869,"x_min":71,"x_max":826,"o":"m 71 0 l 71 894 l 518 894 q 751 811 676 894 q 826 588 826 728 q 781 429 826 497 q 656 328 735 361 q 687 294 675 313 q 713 242 699 275 l 818 0 l 585 0 l 485 228 q 453 270 472 257 q 397 283 433 283 l 294 283 l 294 0 l 71 0 m 294 456 l 460 456 q 562 488 525 456 q 599 588 599 521 q 469 722 599 722 l 294 722 l 294 456 m 193 -231 l 193 -94 l 635 -94 l 635 -231 l 193 -231 z "},"S":{"ha":771,"x_min":43,"x_max":728,"o":"m 356 -14 q 190 -1 267 -14 q 57 38 113 13 l 57 228 q 192 185 118 201 q 333 168 267 168 q 458 183 417 168 q 499 250 499 199 q 478 306 499 285 q 413 342 458 326 q 290 381 368 358 q 144 442 199 408 q 67 525 90 476 q 43 644 43 574 q 135 840 43 772 q 406 908 226 908 q 557 897 483 908 q 676 869 631 885 l 676 678 q 556 713 617 701 q 439 724 496 724 q 317 710 364 724 q 271 646 271 696 q 288 599 271 617 q 345 568 304 582 q 457 535 386 554 q 625 465 567 506 q 706 370 683 424 q 728 250 728 317 q 636 59 728 132 q 356 -14 544 -14 z "},"Ś":{"ha":771,"x_min":43,"x_max":728,"o":"m 281 957 l 397 1229 l 581 1229 l 453 957 l 281 957 m 356 -14 q 190 -1 267 -14 q 57 38 113 13 l 57 228 q 192 185 118 201 q 333 168 267 168 q 458 183 417 168 q 499 250 499 199 q 478 306 499 285 q 413 342 458 326 q 290 381 368 358 q 144 442 199 408 q 67 525 90 476 q 43 644 43 574 q 135 840 43 772 q 406 908 226 908 q 557 897 483 908 q 676 869 631 885 l 676 678 q 556 713 617 701 q 439 724 496 724 q 317 710 364 724 q 271 646 271 696 q 288 599 271 617 q 345 568 304 582 q 457 535 386 554 q 625 465 567 506 q 706 370 683 424 q 728 250 728 317 q 636 59 728 132 q 356 -14 544 -14 z "},"Š":{"ha":771,"x_min":43,"x_max":728,"o":"m 314 956 l 113 1215 l 283 1215 l 383 1071 l 488 1215 l 654 1215 l 453 956 l 314 956 m 356 -14 q 190 -1 267 -14 q 57 38 113 13 l 57 228 q 192 185 118 201 q 333 168 267 168 q 458 183 417 168 q 499 250 499 199 q 478 306 499 285 q 413 342 458 326 q 290 381 368 358 q 144 442 199 408 q 67 525 90 476 q 43 644 43 574 q 135 840 43 772 q 406 908 226 908 q 557 897 483 908 q 676 869 631 885 l 676 678 q 556 713 617 701 q 439 724 496 724 q 317 710 364 724 q 271 646 271 696 q 288 599 271 617 q 345 568 304 582 q 457 535 386 554 q 625 465 567 506 q 706 370 683 424 q 728 250 728 317 q 636 59 728 132 q 356 -14 544 -14 z "},"Ş":{"ha":771,"x_min":43,"x_max":728,"o":"m 351 -333 q 292 -330 328 -333 q 242 -322 257 -326 l 242 -224 q 325 -235 282 -235 q 406 -226 382 -235 q 431 -186 431 -217 q 406 -147 431 -154 q 340 -139 381 -139 l 265 -139 l 301 -12 q 167 3 229 -10 q 57 38 104 17 l 57 228 q 192 185 118 201 q 333 168 267 168 q 458 183 417 168 q 499 250 499 199 q 478 306 499 285 q 413 342 458 326 q 290 381 368 358 q 144 442 199 408 q 67 525 90 476 q 43 644 43 574 q 135 840 43 772 q 406 908 226 908 q 557 897 483 908 q 676 869 631 885 l 676 678 q 556 713 617 701 q 439 724 496 724 q 317 710 364 724 q 271 646 271 696 q 288 599 271 617 q 345 568 304 582 q 457 535 386 554 q 625 465 567 506 q 706 370 683 424 q 728 250 728 317 q 656 75 728 144 q 436 -10 583 6 l 418 -60 q 533 -95 496 -60 q 569 -189 569 -131 q 516 -295 569 -257 q 351 -333 463 -333 z "},"Ŝ":{"ha":771,"x_min":43,"x_max":728,"o":"m 99 957 l 300 1217 l 439 1217 l 640 957 l 474 957 l 369 1101 l 269 957 l 99 957 m 356 -14 q 190 -1 267 -14 q 57 38 113 13 l 57 228 q 192 185 118 201 q 333 168 267 168 q 458 183 417 168 q 499 250 499 199 q 478 306 499 285 q 413 342 458 326 q 290 381 368 358 q 144 442 199 408 q 67 525 90 476 q 43 644 43 574 q 135 840 43 772 q 406 908 226 908 q 557 897 483 908 q 676 869 631 885 l 676 678 q 556 713 617 701 q 439 724 496 724 q 317 710 364 724 q 271 646 271 696 q 288 599 271 617 q 345 568 304 582 q 457 535 386 554 q 625 465 567 506 q 706 370 683 424 q 728 250 728 317 q 636 59 728 132 q 356 -14 544 -14 z "},"Ș":{"ha":771,"x_min":43,"x_max":728,"o":"m 356 -14 q 190 -1 267 -14 q 57 38 113 13 l 57 228 q 192 185 118 201 q 333 168 267 168 q 458 183 417 168 q 499 250 499 199 q 478 306 499 285 q 413 342 458 326 q 290 381 368 358 q 144 442 199 408 q 67 525 90 476 q 43 644 43 574 q 135 840 43 772 q 406 908 226 908 q 557 897 483 908 q 676 869 631 885 l 676 678 q 556 713 617 701 q 439 724 496 724 q 317 710 364 724 q 271 646 271 696 q 288 599 271 617 q 345 568 304 582 q 457 535 386 554 q 625 465 567 506 q 706 370 683 424 q 728 250 728 317 q 636 59 728 132 q 356 -14 544 -14 m 260 -321 l 301 -62 l 486 -62 l 424 -321 l 260 -321 z "},"Ṡ":{"ha":771,"x_min":43,"x_max":728,"o":"m 296 992 l 296 1143 l 458 1143 l 458 992 l 296 992 m 356 -14 q 190 -1 267 -14 q 57 38 113 13 l 57 228 q 192 185 118 201 q 333 168 267 168 q 458 183 417 168 q 499 250 499 199 q 478 306 499 285 q 413 342 458 326 q 290 381 368 358 q 144 442 199 408 q 67 525 90 476 q 43 644 43 574 q 135 840 43 772 q 406 908 226 908 q 557 897 483 908 q 676 869 631 885 l 676 678 q 556 713 617 701 q 439 724 496 724 q 317 710 364 724 q 271 646 271 696 q 288 599 271 617 q 345 568 304 582 q 457 535 386 554 q 625 465 567 506 q 706 370 683 424 q 728 250 728 317 q 636 59 728 132 q 356 -14 544 -14 z "},"Ṣ":{"ha":771,"x_min":43,"x_max":728,"o":"m 356 -14 q 190 -1 267 -14 q 57 38 113 13 l 57 228 q 192 185 118 201 q 333 168 267 168 q 458 183 417 168 q 499 250 499 199 q 478 306 499 285 q 413 342 458 326 q 290 381 368 358 q 144 442 199 408 q 67 525 90 476 q 43 644 43 574 q 135 840 43 772 q 406 908 226 908 q 557 897 483 908 q 676 869 631 885 l 676 678 q 556 713 617 701 q 439 724 496 724 q 317 710 364 724 q 271 646 271 696 q 288 599 271 617 q 345 568 304 582 q 457 535 386 554 q 625 465 567 506 q 706 370 683 424 q 728 250 728 317 q 636 59 728 132 q 356 -14 544 -14 m 296 -249 l 296 -97 l 460 -97 l 460 -249 l 296 -249 z "},"ẞ":{"ha":879,"x_min":64,"x_max":836,"o":"m 551 -14 q 357 17 438 -14 l 357 189 q 425 169 386 176 q 499 163 464 163 q 615 258 615 163 q 585 322 615 303 q 503 340 556 340 l 388 340 l 388 492 l 596 632 q 558 694 596 669 q 439 719 519 719 q 315 682 354 719 q 275 572 275 644 l 275 0 l 64 0 l 64 574 q 162 819 64 729 q 439 908 260 908 q 649 865 568 908 q 768 751 731 822 q 806 593 806 679 l 604 458 l 635 458 q 779 401 722 458 q 836 250 836 344 q 760 59 836 132 q 551 -14 683 -14 z "},"Ə":{"ha":950,"x_min":43,"x_max":907,"o":"m 463 -14 q 150 91 257 -14 q 43 376 43 196 l 43 540 l 697 540 q 656 665 690 621 q 553 728 621 710 q 378 746 486 746 q 281 738 335 746 q 177 718 228 731 q 92 690 126 706 l 92 849 q 244 890 156 872 q 426 908 332 908 q 783 784 658 908 q 907 435 907 660 q 860 197 907 297 q 715 41 813 96 q 463 -14 617 -14 m 463 139 q 641 200 585 139 q 697 382 697 261 l 240 382 l 240 326 q 299 189 240 239 q 463 139 357 139 z "},"T":{"ha":793,"x_min":15,"x_max":764,"o":"m 278 0 l 278 722 l 15 722 l 15 894 l 764 894 l 764 722 l 501 722 l 501 0 l 278 0 z "},"Ŧ":{"ha":779,"x_min":15,"x_max":764,"o":"m 278 0 l 278 388 l 126 388 l 126 544 l 278 544 l 278 722 l 15 722 l 15 894 l 764 894 l 764 722 l 501 722 l 501 544 l 649 544 l 649 388 l 501 388 l 501 0 l 278 0 z "},"Ť":{"ha":779,"x_min":15,"x_max":764,"o":"m 319 956 l 118 1215 l 289 1215 l 389 1071 l 493 1215 l 660 1215 l 458 956 l 319 956 m 278 0 l 278 722 l 15 722 l 15 894 l 764 894 l 764 722 l 501 722 l 501 0 l 278 0 z "},"Ţ":{"ha":779,"x_min":15,"x_max":764,"o":"m 278 0 l 278 722 l 15 722 l 15 894 l 764 894 l 764 722 l 501 722 l 501 0 l 454 0 l 433 -60 q 548 -95 511 -60 q 585 -189 585 -131 q 531 -295 585 -257 q 367 -333 478 -333 q 308 -330 343 -333 q 257 -322 272 -326 l 257 -224 q 340 -235 297 -235 q 422 -226 397 -235 q 446 -186 446 -217 q 421 -147 446 -154 q 356 -139 396 -139 l 281 -139 l 321 0 l 278 0 z "},"Ț":{"ha":779,"x_min":15,"x_max":764,"o":"m 278 0 l 278 722 l 15 722 l 15 894 l 764 894 l 764 722 l 501 722 l 501 0 l 278 0 m 260 -358 l 306 -62 l 485 -62 l 411 -358 l 260 -358 z "},"Ṭ":{"ha":779,"x_min":15,"x_max":764,"o":"m 278 0 l 278 722 l 15 722 l 15 894 l 764 894 l 764 722 l 501 722 l 501 0 l 278 0 m 304 -242 l 304 -90 l 468 -90 l 468 -242 l 304 -242 z "},"Ṯ":{"ha":779,"x_min":15,"x_max":764,"o":"m 278 0 l 278 722 l 15 722 l 15 894 l 764 894 l 764 722 l 501 722 l 501 0 l 278 0 m 167 -224 l 167 -87 l 608 -87 l 608 -224 l 167 -224 z "},"U":{"ha":950,"x_min":64,"x_max":886,"o":"m 475 -14 q 258 26 350 -14 q 115 146 165 67 q 64 340 64 225 l 64 894 l 288 894 l 288 361 q 336 222 288 268 q 475 176 385 176 q 614 222 565 176 q 663 361 663 268 l 663 894 l 886 894 l 886 340 q 835 146 886 225 q 692 26 785 67 q 475 -14 600 -14 z "},"Ú":{"ha":950,"x_min":64,"x_max":886,"o":"m 385 956 l 501 1228 l 685 1228 l 557 956 l 385 956 m 475 -14 q 258 26 350 -14 q 115 146 165 67 q 64 340 64 225 l 64 894 l 288 894 l 288 361 q 336 222 288 268 q 475 176 385 176 q 614 222 565 176 q 663 361 663 268 l 663 894 l 886 894 l 886 340 q 835 146 886 225 q 692 26 785 67 q 475 -14 600 -14 z "},"Ŭ":{"ha":950,"x_min":64,"x_max":886,"o":"m 469 956 q 296 1018 363 956 q 229 1194 229 1081 l 376 1194 q 398 1114 376 1147 q 469 1081 419 1081 q 543 1114 521 1081 q 565 1194 565 1147 l 713 1194 q 645 1018 713 1081 q 469 956 578 956 m 475 -14 q 258 26 350 -14 q 115 146 165 67 q 64 340 64 225 l 64 894 l 288 894 l 288 361 q 336 222 288 268 q 475 176 385 176 q 614 222 565 176 q 663 361 663 268 l 663 894 l 886 894 l 886 340 q 835 146 886 225 q 692 26 785 67 q 475 -14 600 -14 z "},"Ǔ":{"ha":950,"x_min":64,"x_max":886,"o":"m 404 956 l 203 1215 l 374 1215 l 474 1071 l 578 1215 l 744 1215 l 543 956 l 404 956 m 475 -14 q 258 26 350 -14 q 115 146 165 67 q 64 340 64 225 l 64 894 l 288 894 l 288 361 q 336 222 288 268 q 475 176 385 176 q 614 222 565 176 q 663 361 663 268 l 663 894 l 886 894 l 886 340 q 835 146 886 225 q 692 26 785 67 q 475 -14 600 -14 z "},"Û":{"ha":950,"x_min":64,"x_max":886,"o":"m 204 954 l 406 1214 l 544 1214 l 746 954 l 579 954 l 475 1099 l 375 954 l 204 954 m 475 -14 q 258 26 350 -14 q 115 146 165 67 q 64 340 64 225 l 64 894 l 288 894 l 288 361 q 336 222 288 268 q 475 176 385 176 q 614 222 565 176 q 663 361 663 268 l 663 894 l 886 894 l 886 340 q 835 146 886 225 q 692 26 785 67 q 475 -14 600 -14 z "},"Ü":{"ha":950,"x_min":64,"x_max":886,"o":"m 250 992 l 250 1143 l 414 1143 l 414 992 l 250 992 m 536 992 l 536 1143 l 700 1143 l 700 992 l 536 992 m 475 -14 q 258 26 350 -14 q 115 146 165 67 q 64 340 64 225 l 64 894 l 288 894 l 288 361 q 336 222 288 268 q 475 176 385 176 q 614 222 565 176 q 663 361 663 268 l 663 894 l 886 894 l 886 340 q 835 146 886 225 q 692 26 785 67 q 475 -14 600 -14 z "},"Ǘ":{"ha":950,"x_min":64,"x_max":886,"o":"m 394 1132 l 475 1317 l 643 1317 l 549 1132 l 394 1132 m 251 957 l 251 1100 l 410 1100 l 410 957 l 251 957 m 540 957 l 540 1100 l 699 1100 l 699 957 l 540 957 m 475 -14 q 258 26 350 -14 q 115 146 165 67 q 64 340 64 225 l 64 894 l 288 894 l 288 361 q 336 222 288 268 q 475 176 385 176 q 614 222 565 176 q 663 361 663 268 l 663 894 l 886 894 l 886 340 q 835 146 886 225 q 692 26 785 67 q 475 -14 600 -14 z "},"Ǚ":{"ha":950,"x_min":64,"x_max":886,"o":"m 399 1128 l 232 1304 l 397 1304 l 476 1203 l 557 1304 l 718 1304 l 553 1128 l 399 1128 m 250 956 l 250 1099 l 408 1099 l 408 956 l 250 956 m 539 956 l 539 1099 l 697 1099 l 697 956 l 539 956 m 475 -14 q 258 26 350 -14 q 115 146 165 67 q 64 340 64 225 l 64 894 l 288 894 l 288 361 q 336 222 288 268 q 475 176 385 176 q 614 222 565 176 q 663 361 663 268 l 663 894 l 886 894 l 886 340 q 835 146 886 225 q 692 26 785 67 q 475 -14 600 -14 z "},"Ǜ":{"ha":950,"x_min":64,"x_max":886,"o":"m 401 1131 l 307 1315 l 475 1315 l 556 1131 l 401 1131 m 251 956 l 251 1099 l 410 1099 l 410 956 l 251 956 m 540 956 l 540 1099 l 699 1099 l 699 956 l 540 956 m 475 -14 q 258 26 350 -14 q 115 146 165 67 q 64 340 64 225 l 64 894 l 288 894 l 288 361 q 336 222 288 268 q 475 176 385 176 q 614 222 565 176 q 663 361 663 268 l 663 894 l 886 894 l 886 340 q 835 146 886 225 q 692 26 785 67 q 475 -14 600 -14 z "},"Ǖ":{"ha":950,"x_min":64,"x_max":886,"o":"m 253 1172 l 253 1307 l 694 1307 l 694 1172 l 253 1172 m 250 956 l 250 1107 l 414 1107 l 414 956 l 250 956 m 536 956 l 536 1107 l 700 1107 l 700 956 l 536 956 m 475 -14 q 258 26 350 -14 q 115 146 165 67 q 64 340 64 225 l 64 894 l 288 894 l 288 361 q 336 222 288 268 q 475 176 385 176 q 614 222 565 176 q 663 361 663 268 l 663 894 l 886 894 l 886 340 q 835 146 886 225 q 692 26 785 67 q 475 -14 600 -14 z "},"Ụ":{"ha":950,"x_min":64,"x_max":886,"o":"m 475 -14 q 258 26 350 -14 q 115 146 165 67 q 64 340 64 225 l 64 894 l 288 894 l 288 361 q 336 222 288 268 q 475 176 385 176 q 614 222 565 176 q 663 361 663 268 l 663 894 l 886 894 l 886 340 q 835 146 886 225 q 692 26 785 67 q 475 -14 600 -14 m 392 -249 l 392 -97 l 556 -97 l 556 -249 l 392 -249 z "},"Ù":{"ha":950,"x_min":64,"x_max":886,"o":"m 401 956 l 272 1228 l 456 1228 l 572 956 l 401 956 m 475 -14 q 258 26 350 -14 q 115 146 165 67 q 64 340 64 225 l 64 894 l 288 894 l 288 361 q 336 222 288 268 q 475 176 385 176 q 614 222 565 176 q 663 361 663 268 l 663 894 l 886 894 l 886 340 q 835 146 886 225 q 692 26 785 67 q 475 -14 600 -14 z "},"Ủ":{"ha":950,"x_min":64,"x_max":886,"o":"m 388 956 l 388 1068 q 486 1088 461 1072 q 511 1132 511 1104 q 488 1170 511 1158 q 421 1182 464 1182 q 378 1178 401 1182 q 338 1169 354 1175 l 338 1269 q 486 1289 393 1289 q 626 1251 578 1289 q 675 1151 675 1213 q 647 1062 675 1092 q 557 1017 618 1032 l 557 956 l 388 956 m 475 -14 q 258 26 350 -14 q 115 146 165 67 q 64 340 64 225 l 64 894 l 288 894 l 288 361 q 336 222 288 268 q 475 176 385 176 q 614 222 565 176 q 663 361 663 268 l 663 894 l 886 894 l 886 340 q 835 146 886 225 q 692 26 785 67 q 475 -14 600 -14 z "},"Ư":{"ha":1158,"x_min":64,"x_max":1171,"o":"m 475 -14 q 258 26 350 -14 q 115 146 165 67 q 64 340 64 225 l 64 894 l 288 894 l 288 361 q 336 222 288 268 q 475 176 385 176 q 613 222 565 176 q 661 361 661 268 l 661 894 l 886 894 l 886 813 q 983 846 954 815 q 1011 956 1011 876 l 1171 956 q 1142 784 1171 847 q 1050 694 1113 721 q 886 665 988 667 l 886 340 q 835 146 886 225 q 691 26 783 67 q 475 -14 599 -14 z "},"Ứ":{"ha":1158,"x_min":64,"x_max":1171,"o":"m 386 956 l 503 1228 l 686 1228 l 558 956 l 386 956 m 475 -14 q 258 26 350 -14 q 115 146 165 67 q 64 340 64 225 l 64 894 l 288 894 l 288 361 q 336 222 288 268 q 475 176 385 176 q 613 222 565 176 q 661 361 661 268 l 661 894 l 886 894 l 886 813 q 983 846 954 815 q 1011 956 1011 876 l 1171 956 q 1142 784 1171 847 q 1050 694 1113 721 q 886 665 988 667 l 886 340 q 835 146 886 225 q 691 26 783 67 q 475 -14 599 -14 z "},"Ự":{"ha":1158,"x_min":64,"x_max":1171,"o":"m 475 -14 q 258 26 350 -14 q 115 146 165 67 q 64 340 64 225 l 64 894 l 288 894 l 288 361 q 336 222 288 268 q 475 176 385 176 q 613 222 565 176 q 661 361 661 268 l 661 894 l 886 894 l 886 813 q 983 846 954 815 q 1011 956 1011 876 l 1171 956 q 1142 784 1171 847 q 1050 694 1113 721 q 886 665 988 667 l 886 340 q 835 146 886 225 q 691 26 783 67 q 475 -14 599 -14 m 394 -249 l 394 -97 l 558 -97 l 558 -249 l 394 -249 z "},"Ừ":{"ha":1158,"x_min":64,"x_max":1171,"o":"m 400 956 l 271 1228 l 454 1228 l 571 956 l 400 956 m 475 -14 q 258 26 350 -14 q 115 146 165 67 q 64 340 64 225 l 64 894 l 288 894 l 288 361 q 336 222 288 268 q 475 176 385 176 q 613 222 565 176 q 661 361 661 268 l 661 894 l 886 894 l 886 813 q 983 846 954 815 q 1011 956 1011 876 l 1171 956 q 1142 784 1171 847 q 1050 694 1113 721 q 886 665 988 667 l 886 340 q 835 146 886 225 q 691 26 783 67 q 475 -14 599 -14 z "},"Ử":{"ha":1158,"x_min":64,"x_max":1171,"o":"m 372 956 l 372 1068 q 471 1088 446 1072 q 496 1132 496 1104 q 472 1170 496 1158 q 406 1182 449 1182 q 363 1178 386 1182 q 322 1169 339 1175 l 322 1269 q 471 1289 378 1289 q 611 1251 563 1289 q 660 1151 660 1213 q 631 1062 660 1092 q 542 1017 603 1032 l 542 956 l 372 956 m 475 -14 q 258 26 350 -14 q 115 146 165 67 q 64 340 64 225 l 64 894 l 288 894 l 288 361 q 336 222 288 268 q 475 176 385 176 q 613 222 565 176 q 661 361 661 268 l 661 894 l 886 894 l 886 813 q 983 846 954 815 q 1011 956 1011 876 l 1171 956 q 1142 784 1171 847 q 1050 694 1113 721 q 886 665 988 667 l 886 340 q 835 146 886 225 q 691 26 783 67 q 475 -14 599 -14 z "},"Ữ":{"ha":1158,"x_min":64,"x_max":1171,"o":"m 604 964 q 520 978 561 964 q 441 1007 479 993 q 367 1021 403 1021 q 294 1007 326 1021 q 236 968 261 993 l 236 1117 q 290 1149 256 1136 q 363 1161 324 1161 q 446 1147 407 1161 q 522 1119 485 1133 q 600 1104 560 1104 q 672 1119 642 1104 q 721 1158 703 1133 l 721 1008 q 676 977 707 990 q 604 964 644 964 m 475 -14 q 258 26 350 -14 q 115 146 165 67 q 64 340 64 225 l 64 894 l 288 894 l 288 361 q 336 222 288 268 q 475 176 385 176 q 613 222 565 176 q 661 361 661 268 l 661 894 l 886 894 l 886 813 q 983 846 954 815 q 1011 956 1011 876 l 1171 956 q 1142 784 1171 847 q 1050 694 1113 721 q 886 665 988 667 l 886 340 q 835 146 886 225 q 691 26 783 67 q 475 -14 599 -14 z "},"Ű":{"ha":950,"x_min":64,"x_max":886,"o":"m 197 954 l 311 1204 l 504 1204 l 369 954 l 197 954 m 518 954 l 632 1204 l 825 1204 l 690 954 l 518 954 m 475 -14 q 258 26 350 -14 q 115 146 165 67 q 64 340 64 225 l 64 894 l 288 894 l 288 361 q 336 222 288 268 q 475 176 385 176 q 614 222 565 176 q 663 361 663 268 l 663 894 l 886 894 l 886 340 q 835 146 886 225 q 692 26 785 67 q 475 -14 600 -14 z "},"Ū":{"ha":950,"x_min":64,"x_max":886,"o":"m 253 1004 l 253 1139 l 694 1139 l 694 1004 l 253 1004 m 475 -14 q 258 26 350 -14 q 115 146 165 67 q 64 340 64 225 l 64 894 l 288 894 l 288 361 q 336 222 288 268 q 475 176 385 176 q 614 222 565 176 q 663 361 663 268 l 663 894 l 886 894 l 886 340 q 835 146 886 225 q 692 26 785 67 q 475 -14 600 -14 z "},"Ų":{"ha":950,"x_min":64,"x_max":886,"o":"m 507 -306 q 386 -274 436 -306 q 336 -175 336 -243 q 359 -85 336 -128 q 421 -12 382 -43 q 161 91 258 1 q 64 340 64 181 l 64 894 l 288 894 l 288 361 q 336 222 288 268 q 475 176 385 176 q 614 222 565 176 q 663 361 663 268 l 663 894 l 886 894 l 886 340 q 806 108 886 196 q 589 -4 726 21 q 530 -65 553 -32 q 507 -135 507 -99 q 524 -175 507 -162 q 568 -187 540 -187 q 606 -183 586 -187 q 638 -172 625 -179 l 638 -285 q 582 -299 618 -293 q 507 -306 546 -306 z "},"Ů":{"ha":950,"x_min":64,"x_max":886,"o":"m 474 954 q 340 1005 389 954 q 292 1128 292 1056 q 340 1252 292 1201 q 474 1303 389 1303 q 609 1252 561 1303 q 657 1128 657 1201 q 609 1005 657 1056 q 474 954 561 954 m 474 1051 q 533 1074 513 1051 q 554 1128 554 1096 q 533 1183 554 1160 q 474 1206 513 1206 q 416 1183 438 1206 q 394 1128 394 1160 q 416 1074 394 1096 q 474 1051 438 1051 m 475 -14 q 258 26 350 -14 q 115 146 165 67 q 64 340 64 225 l 64 894 l 288 894 l 288 361 q 336 222 288 268 q 475 176 385 176 q 614 222 565 176 q 663 361 663 268 l 663 894 l 886 894 l 886 340 q 835 146 886 225 q 692 26 785 67 q 475 -14 600 -14 z "},"Ũ":{"ha":950,"x_min":64,"x_max":886,"o":"m 600 969 q 516 984 557 969 q 437 1013 475 999 q 363 1026 399 1026 q 290 1013 322 1026 q 232 974 257 999 l 232 1122 q 285 1154 251 1142 q 358 1167 319 1167 q 442 1153 403 1167 q 518 1124 481 1139 q 596 1110 556 1110 q 668 1124 638 1110 q 717 1164 699 1139 l 717 1014 q 672 983 703 996 q 600 969 640 969 m 475 -14 q 258 26 350 -14 q 115 146 165 67 q 64 340 64 225 l 64 894 l 288 894 l 288 361 q 336 222 288 268 q 475 176 385 176 q 614 222 565 176 q 663 361 663 268 l 663 894 l 886 894 l 886 340 q 835 146 886 225 q 692 26 785 67 q 475 -14 600 -14 z "},"V":{"ha":1011,"x_min":43,"x_max":968,"o":"m 385 0 l 43 894 l 276 894 l 504 256 l 733 894 l 968 894 l 626 0 l 385 0 z "},"W":{"ha":1226,"x_min":43,"x_max":1183,"o":"m 251 0 l 43 894 l 263 894 l 381 356 l 503 768 l 503 894 l 686 894 l 840 354 l 964 894 l 1183 894 l 976 0 l 769 0 l 619 517 l 458 0 l 251 0 z "},"Ẃ":{"ha":1226,"x_min":43,"x_max":1183,"o":"m 507 956 l 624 1228 l 807 1228 l 679 956 l 507 956 m 251 0 l 43 894 l 263 894 l 381 356 l 503 768 l 503 894 l 686 894 l 840 354 l 964 894 l 1183 894 l 976 0 l 769 0 l 619 517 l 458 0 l 251 0 z "},"Ŵ":{"ha":1226,"x_min":43,"x_max":1183,"o":"m 349 956 l 550 1215 l 689 1215 l 890 956 l 724 956 l 619 1100 l 519 956 l 349 956 m 251 0 l 43 894 l 263 894 l 381 356 l 503 768 l 503 894 l 686 894 l 840 354 l 964 894 l 1183 894 l 976 0 l 769 0 l 619 517 l 458 0 l 251 0 z "},"Ẅ":{"ha":1226,"x_min":43,"x_max":1183,"o":"m 394 992 l 394 1143 l 558 1143 l 558 992 l 394 992 m 681 992 l 681 1143 l 844 1143 l 844 992 l 681 992 m 251 0 l 43 894 l 263 894 l 381 356 l 503 768 l 503 894 l 686 894 l 840 354 l 964 894 l 1183 894 l 976 0 l 769 0 l 619 517 l 458 0 l 251 0 z "},"Ẁ":{"ha":1226,"x_min":43,"x_max":1183,"o":"m 514 956 l 385 1228 l 568 1228 l 685 956 l 514 956 m 251 0 l 43 894 l 263 894 l 381 356 l 503 768 l 503 894 l 686 894 l 840 354 l 964 894 l 1183 894 l 976 0 l 769 0 l 619 517 l 458 0 l 251 0 z "},"X":{"ha":1010,"x_min":43,"x_max":967,"o":"m 43 0 l 369 450 l 53 894 l 319 894 l 504 628 l 690 894 l 957 894 l 640 450 l 967 0 l 697 0 l 504 271 l 313 0 l 43 0 z "},"Y":{"ha":894,"x_min":14,"x_max":881,"o":"m 335 0 l 335 329 l 14 894 l 247 894 l 447 524 l 647 894 l 881 894 l 560 329 l 560 0 l 335 0 z "},"Ý":{"ha":953,"x_min":43,"x_max":910,"o":"m 382 956 l 499 1228 l 682 1228 l 554 956 l 382 956 m 364 0 l 364 329 l 43 894 l 276 894 l 476 524 l 676 894 l 910 894 l 589 329 l 589 0 l 364 0 z "},"Ŷ":{"ha":953,"x_min":43,"x_max":910,"o":"m 206 956 l 407 1215 l 546 1215 l 747 956 l 581 956 l 476 1100 l 376 956 l 206 956 m 364 0 l 364 329 l 43 894 l 276 894 l 476 524 l 676 894 l 910 894 l 589 329 l 589 0 l 364 0 z "},"Ÿ":{"ha":953,"x_min":43,"x_max":910,"o":"m 253 992 l 253 1143 l 417 1143 l 417 992 l 253 992 m 539 992 l 539 1143 l 703 1143 l 703 992 l 539 992 m 364 0 l 364 329 l 43 894 l 276 894 l 476 524 l 676 894 l 910 894 l 589 329 l 589 0 l 364 0 z "},"Ẏ":{"ha":953,"x_min":43,"x_max":910,"o":"m 394 992 l 394 1143 l 557 1143 l 557 992 l 394 992 m 364 0 l 364 329 l 43 894 l 276 894 l 476 524 l 676 894 l 910 894 l 589 329 l 589 0 l 364 0 z "},"Ỵ":{"ha":953,"x_min":43,"x_max":910,"o":"m 364 0 l 364 329 l 43 894 l 276 894 l 476 524 l 676 894 l 910 894 l 589 329 l 589 0 l 364 0 m 394 -240 l 394 -89 l 558 -89 l 558 -240 l 394 -240 z "},"Ỳ":{"ha":953,"x_min":43,"x_max":910,"o":"m 393 956 l 264 1228 l 447 1228 l 564 956 l 393 956 m 364 0 l 364 329 l 43 894 l 276 894 l 476 524 l 676 894 l 910 894 l 589 329 l 589 0 l 364 0 z "},"Ỷ":{"ha":953,"x_min":43,"x_max":910,"o":"m 385 956 l 385 1068 q 483 1088 458 1072 q 508 1132 508 1104 q 485 1170 508 1158 q 418 1182 461 1182 q 375 1178 399 1182 q 335 1169 351 1175 l 335 1269 q 483 1289 390 1289 q 624 1251 575 1289 q 672 1151 672 1213 q 644 1062 672 1092 q 554 1017 615 1032 l 554 956 l 385 956 m 364 0 l 364 329 l 43 894 l 276 894 l 476 524 l 676 894 l 910 894 l 589 329 l 589 0 l 364 0 z "},"Ỹ":{"ha":953,"x_min":43,"x_max":910,"o":"m 601 969 q 517 984 558 969 q 438 1013 476 999 q 364 1026 400 1026 q 291 1013 324 1026 q 233 974 258 999 l 233 1122 q 287 1154 253 1142 q 360 1167 321 1167 q 443 1153 404 1167 q 519 1124 482 1139 q 597 1110 557 1110 q 669 1124 639 1110 q 718 1164 700 1139 l 718 1014 q 673 983 704 996 q 601 969 642 969 m 364 0 l 364 329 l 43 894 l 276 894 l 476 524 l 676 894 l 910 894 l 589 329 l 589 0 l 364 0 z "},"Z":{"ha":803,"x_min":43,"x_max":764,"o":"m 43 0 l 43 114 l 463 717 l 64 717 l 64 894 l 756 894 l 756 769 l 340 172 l 764 172 l 764 0 l 43 0 z "},"Ź":{"ha":803,"x_min":43,"x_max":764,"o":"m 311 956 l 428 1228 l 611 1228 l 483 956 l 311 956 m 43 0 l 43 114 l 463 717 l 64 717 l 64 894 l 756 894 l 756 769 l 340 172 l 764 172 l 764 0 l 43 0 z "},"Ž":{"ha":803,"x_min":43,"x_max":764,"o":"m 357 956 l 156 1215 l 326 1215 l 426 1071 l 531 1215 l 697 1215 l 496 956 l 357 956 m 43 0 l 43 114 l 463 717 l 64 717 l 64 894 l 756 894 l 756 769 l 340 172 l 764 172 l 764 0 l 43 0 z "},"Ż":{"ha":803,"x_min":43,"x_max":764,"o":"m 333 992 l 333 1143 l 496 1143 l 496 992 l 333 992 m 43 0 l 43 114 l 463 717 l 64 717 l 64 894 l 756 894 l 756 769 l 340 172 l 764 172 l 764 0 l 43 0 z "},"Ẓ":{"ha":803,"x_min":43,"x_max":764,"o":"m 43 0 l 43 114 l 463 717 l 64 717 l 64 894 l 756 894 l 756 769 l 340 172 l 764 172 l 764 0 l 43 0 m 332 -249 l 332 -97 l 496 -97 l 496 -249 l 332 -249 z "},"a":{"ha":779,"x_min":43,"x_max":715,"o":"m 276 -14 q 160 8 214 -14 q 75 77 107 31 q 43 193 43 124 q 112 352 43 294 q 318 410 181 410 l 501 410 l 501 425 q 468 497 501 475 q 343 518 435 518 q 122 483 231 518 l 122 628 q 241 660 171 647 q 389 672 311 672 q 628 610 542 672 q 715 411 715 547 l 715 0 l 519 0 l 508 56 q 416 4 472 22 q 276 -14 360 -14 m 347 124 q 439 142 400 124 q 501 188 478 160 l 501 281 l 343 281 q 244 201 244 281 q 269 144 244 165 q 347 124 294 124 z "},"á":{"ha":779,"x_min":43,"x_max":715,"o":"m 307 725 l 424 997 l 607 997 l 479 725 l 307 725 m 276 -14 q 160 8 214 -14 q 75 77 107 31 q 43 193 43 124 q 112 352 43 294 q 318 410 181 410 l 501 410 l 501 425 q 468 497 501 475 q 343 518 435 518 q 122 483 231 518 l 122 628 q 241 660 171 647 q 389 672 311 672 q 628 610 542 672 q 715 411 715 547 l 715 0 l 519 0 l 508 56 q 416 4 472 22 q 276 -14 360 -14 m 347 124 q 439 142 400 124 q 501 188 478 160 l 501 281 l 343 281 q 244 201 244 281 q 269 144 244 165 q 347 124 294 124 z "},"ă":{"ha":779,"x_min":43,"x_max":715,"o":"m 419 725 q 246 788 313 725 q 179 964 179 850 l 326 964 q 348 883 326 917 q 419 850 369 850 q 493 883 471 850 q 515 964 515 917 l 663 964 q 595 788 663 850 q 419 725 528 725 m 276 -14 q 160 8 214 -14 q 75 77 107 31 q 43 193 43 124 q 112 352 43 294 q 318 410 181 410 l 501 410 l 501 425 q 468 497 501 475 q 343 518 435 518 q 122 483 231 518 l 122 628 q 241 660 171 647 q 389 672 311 672 q 628 610 542 672 q 715 411 715 547 l 715 0 l 519 0 l 508 56 q 416 4 472 22 q 276 -14 360 -14 m 347 124 q 439 142 400 124 q 501 188 478 160 l 501 281 l 343 281 q 244 201 244 281 q 269 144 244 165 q 347 124 294 124 z "},"ắ":{"ha":779,"x_min":43,"x_max":715,"o":"m 328 932 l 419 1139 l 576 1139 l 468 932 l 328 932 m 404 725 q 231 778 299 725 q 163 953 163 832 l 292 953 q 321 868 292 899 q 404 838 350 838 q 486 868 457 838 q 515 953 515 899 l 643 953 q 576 778 643 832 q 404 725 508 725 m 276 -14 q 160 8 214 -14 q 75 77 107 31 q 43 193 43 124 q 112 352 43 294 q 318 410 181 410 l 501 410 l 501 425 q 468 497 501 475 q 343 518 435 518 q 122 483 231 518 l 122 628 q 241 660 171 647 q 389 672 311 672 q 628 610 542 672 q 715 411 715 547 l 715 0 l 519 0 l 508 56 q 416 4 472 22 q 276 -14 360 -14 m 347 124 q 439 142 400 124 q 501 188 478 160 l 501 281 l 343 281 q 244 201 244 281 q 269 144 244 165 q 347 124 294 124 z "},"ặ":{"ha":779,"x_min":43,"x_max":715,"o":"m 415 725 q 242 788 308 725 q 175 964 175 850 l 322 964 q 344 883 322 917 q 415 850 365 850 q 489 883 467 850 q 511 964 511 917 l 658 964 q 591 788 658 850 q 415 725 524 725 m 276 -14 q 160 8 214 -14 q 75 77 107 31 q 43 193 43 124 q 112 352 43 294 q 318 410 181 410 l 501 410 l 501 425 q 468 497 501 475 q 343 518 435 518 q 122 483 231 518 l 122 628 q 241 660 171 647 q 389 672 311 672 q 628 610 542 672 q 715 411 715 547 l 715 0 l 519 0 l 508 56 q 416 4 472 22 q 276 -14 360 -14 m 347 124 q 439 142 400 124 q 501 188 478 160 l 501 281 l 343 281 q 244 201 244 281 q 269 144 244 165 q 347 124 294 124 m 339 -249 l 339 -97 l 503 -97 l 503 -249 l 339 -249 z "},"ằ":{"ha":779,"x_min":43,"x_max":715,"o":"m 340 932 l 232 1139 l 390 1139 l 482 932 l 340 932 m 406 725 q 233 778 301 725 q 165 953 165 832 l 294 953 q 323 868 294 899 q 406 838 351 838 q 489 868 460 838 q 518 953 518 899 l 646 953 q 578 778 646 832 q 406 725 510 725 m 276 -14 q 160 8 214 -14 q 75 77 107 31 q 43 193 43 124 q 112 352 43 294 q 318 410 181 410 l 501 410 l 501 425 q 468 497 501 475 q 343 518 435 518 q 122 483 231 518 l 122 628 q 241 660 171 647 q 389 672 311 672 q 628 610 542 672 q 715 411 715 547 l 715 0 l 519 0 l 508 56 q 416 4 472 22 q 276 -14 360 -14 m 347 124 q 439 142 400 124 q 501 188 478 160 l 501 281 l 343 281 q 244 201 244 281 q 269 144 244 165 q 347 124 294 124 z "},"ẳ":{"ha":779,"x_min":43,"x_max":715,"o":"m 333 942 l 333 1026 q 417 1043 394 1029 q 440 1081 440 1057 q 424 1113 440 1104 q 372 1122 407 1122 q 334 1118 353 1122 q 300 1107 315 1114 l 300 1193 q 432 1211 351 1211 q 546 1178 506 1211 q 586 1096 586 1146 q 562 1023 586 1049 q 481 985 538 997 l 481 942 l 333 942 m 410 725 q 238 778 306 725 q 169 953 169 832 l 299 953 q 327 868 299 899 q 410 838 356 838 q 493 868 464 838 q 522 953 522 899 l 650 953 q 582 778 650 832 q 410 725 514 725 m 276 -14 q 160 8 214 -14 q 75 77 107 31 q 43 193 43 124 q 112 352 43 294 q 318 410 181 410 l 501 410 l 501 425 q 468 497 501 475 q 343 518 435 518 q 122 483 231 518 l 122 628 q 241 660 171 647 q 389 672 311 672 q 628 610 542 672 q 715 411 715 547 l 715 0 l 519 0 l 508 56 q 416 4 472 22 q 276 -14 360 -14 m 347 124 q 439 142 400 124 q 501 188 478 160 l 501 281 l 343 281 q 244 201 244 281 q 269 144 244 165 q 347 124 294 124 z "},"ẵ":{"ha":779,"x_min":43,"x_max":715,"o":"m 540 978 q 458 992 499 978 q 380 1019 418 1006 q 306 1033 342 1033 q 178 982 226 1033 l 178 1108 q 231 1140 197 1128 q 301 1153 264 1153 q 384 1139 346 1153 q 459 1110 422 1125 q 536 1096 496 1096 q 607 1110 576 1096 q 656 1150 638 1125 l 656 1022 q 611 991 642 1004 q 540 978 581 978 m 415 725 q 243 778 311 725 q 175 953 175 832 l 304 953 q 333 868 304 899 q 415 838 361 838 q 499 868 469 838 q 528 953 528 899 l 656 953 q 588 778 656 832 q 415 725 519 725 m 276 -14 q 160 8 214 -14 q 75 77 107 31 q 43 193 43 124 q 112 352 43 294 q 318 410 181 410 l 501 410 l 501 425 q 468 497 501 475 q 343 518 435 518 q 122 483 231 518 l 122 628 q 241 660 171 647 q 389 672 311 672 q 628 610 542 672 q 715 411 715 547 l 715 0 l 519 0 l 508 56 q 416 4 472 22 q 276 -14 360 -14 m 347 124 q 439 142 400 124 q 501 188 478 160 l 501 281 l 343 281 q 244 201 244 281 q 269 144 244 165 q 347 124 294 124 z "},"ǎ":{"ha":779,"x_min":43,"x_max":715,"o":"m 329 724 l 128 983 l 299 983 l 399 839 l 503 983 l 669 983 l 468 724 l 329 724 m 276 -14 q 160 8 214 -14 q 75 77 107 31 q 43 193 43 124 q 112 352 43 294 q 318 410 181 410 l 501 410 l 501 425 q 468 497 501 475 q 343 518 435 518 q 122 483 231 518 l 122 628 q 241 660 171 647 q 389 672 311 672 q 628 610 542 672 q 715 411 715 547 l 715 0 l 519 0 l 508 56 q 416 4 472 22 q 276 -14 360 -14 m 347 124 q 439 142 400 124 q 501 188 478 160 l 501 281 l 343 281 q 244 201 244 281 q 269 144 244 165 q 347 124 294 124 z "},"â":{"ha":779,"x_min":43,"x_max":715,"o":"m 136 724 l 338 983 l 476 983 l 678 724 l 511 724 l 407 868 l 307 724 l 136 724 m 276 -14 q 160 8 214 -14 q 75 77 107 31 q 43 193 43 124 q 112 352 43 294 q 318 410 181 410 l 501 410 l 501 425 q 468 497 501 475 q 343 518 435 518 q 122 483 231 518 l 122 628 q 241 660 171 647 q 389 672 311 672 q 628 610 542 672 q 715 411 715 547 l 715 0 l 519 0 l 508 56 q 416 4 472 22 q 276 -14 360 -14 m 347 124 q 439 142 400 124 q 501 188 478 160 l 501 281 l 343 281 q 244 201 244 281 q 269 144 244 165 q 347 124 294 124 z "},"ấ":{"ha":779,"x_min":43,"x_max":822,"o":"m 560 892 l 656 1099 l 822 1099 l 718 892 l 560 892 m 135 724 l 321 924 l 489 924 l 675 724 l 496 724 l 406 835 l 315 724 l 135 724 m 276 -14 q 160 8 214 -14 q 75 77 107 31 q 43 193 43 124 q 112 352 43 294 q 318 410 181 410 l 501 410 l 501 425 q 468 497 501 475 q 343 518 435 518 q 122 483 231 518 l 122 628 q 241 660 171 647 q 389 672 311 672 q 628 610 542 672 q 715 411 715 547 l 715 0 l 519 0 l 508 56 q 416 4 472 22 q 276 -14 360 -14 m 347 124 q 439 142 400 124 q 501 188 478 160 l 501 281 l 343 281 q 244 201 244 281 q 269 144 244 165 q 347 124 294 124 z "},"ậ":{"ha":779,"x_min":43,"x_max":715,"o":"m 136 724 l 338 983 l 476 983 l 678 724 l 511 724 l 407 868 l 307 724 l 136 724 m 276 -14 q 160 8 214 -14 q 75 77 107 31 q 43 193 43 124 q 112 352 43 294 q 318 410 181 410 l 501 410 l 501 425 q 468 497 501 475 q 343 518 435 518 q 122 483 231 518 l 122 628 q 241 660 171 647 q 389 672 311 672 q 628 610 542 672 q 715 411 715 547 l 715 0 l 519 0 l 508 56 q 416 4 472 22 q 276 -14 360 -14 m 347 124 q 439 142 400 124 q 501 188 478 160 l 501 281 l 343 281 q 244 201 244 281 q 269 144 244 165 q 347 124 294 124 m 326 -249 l 326 -97 l 490 -97 l 490 -249 l 326 -249 z "},"ầ":{"ha":779,"x_min":-8,"x_max":715,"o":"m 96 892 l -8 1099 l 158 1099 l 254 892 l 96 892 m 139 724 l 325 924 l 493 924 l 679 724 l 499 724 l 408 835 l 318 724 l 139 724 m 276 -14 q 160 8 214 -14 q 75 77 107 31 q 43 193 43 124 q 112 352 43 294 q 318 410 181 410 l 501 410 l 501 425 q 468 497 501 475 q 343 518 435 518 q 122 483 231 518 l 122 628 q 241 660 171 647 q 389 672 311 672 q 628 610 542 672 q 715 411 715 547 l 715 0 l 519 0 l 508 56 q 416 4 472 22 q 276 -14 360 -14 m 347 124 q 439 142 400 124 q 501 188 478 160 l 501 281 l 343 281 q 244 201 244 281 q 269 144 244 165 q 347 124 294 124 z "},"ẩ":{"ha":783,"x_min":43,"x_max":822,"o":"m 568 861 l 568 960 q 650 974 631 963 q 669 1006 669 986 q 610 1040 669 1040 q 570 1037 589 1040 q 536 1026 551 1033 l 536 1119 q 592 1131 560 1126 q 663 1136 624 1136 q 782 1105 742 1136 q 822 1021 822 1074 q 797 944 822 974 q 719 907 772 915 l 719 861 l 568 861 m 129 724 l 315 924 l 483 924 l 669 724 l 490 724 l 400 835 l 310 724 l 129 724 m 276 -14 q 160 8 214 -14 q 75 77 107 31 q 43 193 43 124 q 112 352 43 294 q 318 410 181 410 l 501 410 l 501 425 q 468 497 501 475 q 343 518 435 518 q 122 483 231 518 l 122 628 q 241 660 171 647 q 389 672 311 672 q 628 610 542 672 q 715 411 715 547 l 715 0 l 519 0 l 508 56 q 416 4 472 22 q 276 -14 360 -14 m 347 124 q 439 142 400 124 q 501 188 478 160 l 501 281 l 343 281 q 244 201 244 281 q 269 144 244 165 q 347 124 294 124 z "},"ẫ":{"ha":779,"x_min":43,"x_max":715,"o":"m 536 944 q 454 958 494 944 q 376 986 414 972 q 301 1000 338 1000 q 174 949 222 1000 l 174 1075 q 226 1107 193 1094 q 297 1119 260 1119 q 380 1106 342 1119 q 455 1077 418 1092 q 532 1063 492 1063 q 603 1077 572 1063 q 651 1117 633 1092 l 651 989 q 607 958 638 971 q 536 944 576 944 m 131 724 l 317 924 l 485 924 l 671 724 l 492 724 l 401 835 l 311 724 l 131 724 m 276 -14 q 160 8 214 -14 q 75 77 107 31 q 43 193 43 124 q 112 352 43 294 q 318 410 181 410 l 501 410 l 501 425 q 468 497 501 475 q 343 518 435 518 q 122 483 231 518 l 122 628 q 241 660 171 647 q 389 672 311 672 q 628 610 542 672 q 715 411 715 547 l 715 0 l 519 0 l 508 56 q 416 4 472 22 q 276 -14 360 -14 m 347 124 q 439 142 400 124 q 501 188 478 160 l 501 281 l 343 281 q 244 201 244 281 q 269 144 244 165 q 347 124 294 124 z "},"ä":{"ha":779,"x_min":43,"x_max":715,"o":"m 190 761 l 190 913 l 354 913 l 354 761 l 190 761 m 476 761 l 476 913 l 640 913 l 640 761 l 476 761 m 276 -14 q 160 8 214 -14 q 75 77 107 31 q 43 193 43 124 q 112 352 43 294 q 318 410 181 410 l 501 410 l 501 425 q 468 497 501 475 q 343 518 435 518 q 122 483 231 518 l 122 628 q 241 660 171 647 q 389 672 311 672 q 628 610 542 672 q 715 411 715 547 l 715 0 l 519 0 l 508 56 q 416 4 472 22 q 276 -14 360 -14 m 347 124 q 439 142 400 124 q 501 188 478 160 l 501 281 l 343 281 q 244 201 244 281 q 269 144 244 165 q 347 124 294 124 z "},"ạ":{"ha":779,"x_min":43,"x_max":715,"o":"m 276 -14 q 160 8 214 -14 q 75 77 107 31 q 43 193 43 124 q 112 352 43 294 q 318 410 181 410 l 501 410 l 501 425 q 468 497 501 475 q 343 518 435 518 q 122 483 231 518 l 122 628 q 241 660 171 647 q 389 672 311 672 q 628 610 542 672 q 715 411 715 547 l 715 0 l 519 0 l 508 56 q 416 4 472 22 q 276 -14 360 -14 m 347 124 q 439 142 400 124 q 501 188 478 160 l 501 281 l 343 281 q 244 201 244 281 q 269 144 244 165 q 347 124 294 124 m 322 -249 l 322 -97 l 486 -97 l 486 -249 l 322 -249 z "},"à":{"ha":779,"x_min":43,"x_max":715,"o":"m 325 725 l 196 997 l 379 997 l 496 725 l 325 725 m 276 -14 q 160 8 214 -14 q 75 77 107 31 q 43 193 43 124 q 112 352 43 294 q 318 410 181 410 l 501 410 l 501 425 q 468 497 501 475 q 343 518 435 518 q 122 483 231 518 l 122 628 q 241 660 171 647 q 389 672 311 672 q 628 610 542 672 q 715 411 715 547 l 715 0 l 519 0 l 508 56 q 416 4 472 22 q 276 -14 360 -14 m 347 124 q 439 142 400 124 q 501 188 478 160 l 501 281 l 343 281 q 244 201 244 281 q 269 144 244 165 q 347 124 294 124 z "},"ả":{"ha":779,"x_min":43,"x_max":715,"o":"m 308 724 l 308 836 q 407 856 382 840 q 432 900 432 872 q 408 938 432 926 q 342 950 385 950 q 299 947 322 950 q 258 938 275 943 l 258 1038 q 407 1057 314 1057 q 547 1019 499 1057 q 596 919 596 981 q 567 830 596 860 q 478 785 539 800 l 478 724 l 308 724 m 276 -14 q 160 8 214 -14 q 75 77 107 31 q 43 193 43 124 q 112 352 43 294 q 318 410 181 410 l 501 410 l 501 425 q 468 497 501 475 q 343 518 435 518 q 122 483 231 518 l 122 628 q 241 660 171 647 q 389 672 311 672 q 628 610 542 672 q 715 411 715 547 l 715 0 l 519 0 l 508 56 q 416 4 472 22 q 276 -14 360 -14 m 347 124 q 439 142 400 124 q 501 188 478 160 l 501 281 l 343 281 q 244 201 244 281 q 269 144 244 165 q 347 124 294 124 z "},"ɑ":{"ha":832,"x_min":43,"x_max":760,"o":"m 339 -14 q 119 62 196 -14 q 43 303 43 138 q 84 495 43 413 q 199 625 125 578 q 369 672 272 672 q 463 659 426 672 q 536 621 500 646 l 536 658 l 760 658 l 760 0 l 567 0 l 554 56 q 339 -14 472 -14 m 411 149 q 536 199 485 149 l 536 463 q 489 497 514 486 q 428 508 464 508 q 310 459 349 508 q 271 303 271 410 q 307 182 271 215 q 411 149 343 149 z "},"ā":{"ha":779,"x_min":43,"x_max":715,"o":"m 201 747 l 201 882 l 643 882 l 643 747 l 201 747 m 276 -14 q 160 8 214 -14 q 75 77 107 31 q 43 193 43 124 q 112 352 43 294 q 318 410 181 410 l 501 410 l 501 425 q 468 497 501 475 q 343 518 435 518 q 122 483 231 518 l 122 628 q 241 660 171 647 q 389 672 311 672 q 628 610 542 672 q 715 411 715 547 l 715 0 l 519 0 l 508 56 q 416 4 472 22 q 276 -14 360 -14 m 347 124 q 439 142 400 124 q 501 188 478 160 l 501 281 l 343 281 q 244 201 244 281 q 269 144 244 165 q 347 124 294 124 z "},"ą":{"ha":786,"x_min":43,"x_max":719,"o":"m 276 -14 q 160 8 214 -14 q 75 77 107 31 q 43 193 43 124 q 112 352 43 294 q 318 410 181 410 l 501 410 l 501 425 q 468 497 501 475 q 343 518 435 518 q 122 483 231 518 l 122 628 q 241 660 171 647 q 389 672 311 672 q 628 610 542 672 q 715 411 715 547 l 715 0 l 676 0 q 613 -63 638 -29 q 589 -135 589 -97 q 606 -175 589 -162 q 650 -187 622 -187 q 688 -183 668 -187 q 719 -172 707 -179 l 719 -285 q 664 -299 700 -293 q 589 -306 628 -306 q 468 -274 518 -306 q 418 -175 418 -243 q 445 -76 418 -122 q 519 0 472 -31 l 508 56 q 416 4 472 22 q 276 -14 360 -14 m 347 124 q 439 142 400 124 q 501 188 478 160 l 501 281 l 343 281 q 244 201 244 281 q 269 144 244 165 q 347 124 294 124 z "},"å":{"ha":779,"x_min":43,"x_max":715,"o":"m 417 724 q 283 774 332 724 q 235 897 235 825 q 283 1022 235 971 q 417 1072 332 1072 q 552 1022 504 1072 q 600 897 600 971 q 552 774 600 825 q 417 724 504 724 m 417 821 q 476 843 456 821 q 497 897 497 865 q 476 952 497 929 q 417 975 456 975 q 359 952 381 975 q 338 897 338 929 q 359 843 338 865 q 417 821 381 821 m 276 -14 q 160 8 214 -14 q 75 77 107 31 q 43 193 43 124 q 112 352 43 294 q 318 410 181 410 l 501 410 l 501 425 q 468 497 501 475 q 343 518 435 518 q 122 483 231 518 l 122 628 q 241 660 171 647 q 389 672 311 672 q 628 610 542 672 q 715 411 715 547 l 715 0 l 519 0 l 508 56 q 416 4 472 22 q 276 -14 360 -14 m 347 124 q 439 142 400 124 q 501 188 478 160 l 501 281 l 343 281 q 244 201 244 281 q 269 144 244 165 q 347 124 294 124 z "},"ǻ":{"ha":779,"x_min":43,"x_max":715,"o":"m 311 1104 l 428 1321 l 611 1321 l 483 1104 l 311 1104 m 417 724 q 283 774 332 724 q 235 897 235 825 q 283 1022 235 971 q 417 1072 332 1072 q 552 1022 504 1072 q 600 897 600 971 q 552 774 600 825 q 417 724 504 724 m 417 821 q 476 843 456 821 q 497 897 497 865 q 476 952 497 929 q 417 975 456 975 q 359 952 381 975 q 338 897 338 929 q 359 843 338 865 q 417 821 381 821 m 276 -14 q 160 8 214 -14 q 75 77 107 31 q 43 193 43 124 q 112 352 43 294 q 318 410 181 410 l 501 410 l 501 425 q 468 497 501 475 q 343 518 435 518 q 122 483 231 518 l 122 628 q 241 660 171 647 q 389 672 311 672 q 628 610 542 672 q 715 411 715 547 l 715 0 l 519 0 l 508 56 q 416 4 472 22 q 276 -14 360 -14 m 347 124 q 439 142 400 124 q 501 188 478 160 l 501 281 l 343 281 q 244 201 244 281 q 269 144 244 165 q 347 124 294 124 z "},"ã":{"ha":779,"x_min":43,"x_max":715,"o":"m 542 739 q 458 753 499 739 q 378 782 417 768 q 304 796 340 796 q 231 782 264 796 q 174 743 199 768 l 174 892 q 227 924 193 911 q 300 936 261 936 q 383 922 344 936 q 460 894 422 908 q 538 879 497 879 q 610 894 579 879 q 658 933 640 908 l 658 783 q 613 752 644 765 q 542 739 582 739 m 276 -14 q 160 8 214 -14 q 75 77 107 31 q 43 193 43 124 q 112 352 43 294 q 318 410 181 410 l 501 410 l 501 425 q 468 497 501 475 q 343 518 435 518 q 122 483 231 518 l 122 628 q 241 660 171 647 q 389 672 311 672 q 628 610 542 672 q 715 411 715 547 l 715 0 l 519 0 l 508 56 q 416 4 472 22 q 276 -14 360 -14 m 347 124 q 439 142 400 124 q 501 188 478 160 l 501 281 l 343 281 q 244 201 244 281 q 269 144 244 165 q 347 124 294 124 z "},"æ":{"ha":1225,"x_min":43,"x_max":1182,"o":"m 294 -14 q 167 8 224 -14 q 76 77 110 31 q 43 193 43 124 q 112 352 43 294 q 318 410 181 410 l 501 410 l 501 425 q 468 497 501 475 q 343 518 435 518 q 122 483 231 518 l 122 628 q 241 660 171 647 q 389 672 311 672 q 621 608 539 672 q 853 672 706 672 q 1096 592 1010 672 q 1182 375 1182 511 l 1182 257 l 715 257 q 787 165 731 192 q 940 138 843 138 q 1051 148 994 138 q 1144 172 1107 158 l 1144 29 q 1032 -3 1097 7 q 889 -14 967 -14 q 738 13 810 -14 q 621 88 665 39 q 540 35 583 58 q 438 -1 497 13 q 294 -14 379 -14 m 715 386 l 988 386 l 988 415 q 958 492 988 464 q 860 521 929 521 q 747 488 779 521 q 715 386 715 456 m 347 124 q 438 140 400 124 q 501 182 475 156 l 501 281 l 343 281 q 244 201 244 281 q 269 144 244 165 q 347 124 294 124 z "},"ǽ":{"ha":1225,"x_min":43,"x_max":1182,"o":"m 515 725 l 632 997 l 815 997 l 688 725 l 515 725 m 294 -14 q 167 8 224 -14 q 76 77 110 31 q 43 193 43 124 q 112 352 43 294 q 318 410 181 410 l 501 410 l 501 425 q 468 497 501 475 q 343 518 435 518 q 122 483 231 518 l 122 628 q 241 660 171 647 q 389 672 311 672 q 621 608 539 672 q 853 672 706 672 q 1096 592 1010 672 q 1182 375 1182 511 l 1182 257 l 715 257 q 787 165 731 192 q 940 138 843 138 q 1051 148 994 138 q 1144 172 1107 158 l 1144 29 q 1032 -3 1097 7 q 889 -14 967 -14 q 738 13 810 -14 q 621 88 665 39 q 540 35 583 58 q 438 -1 497 13 q 294 -14 379 -14 m 715 386 l 988 386 l 988 415 q 958 492 988 464 q 860 521 929 521 q 747 488 779 521 q 715 386 715 456 m 347 124 q 438 140 400 124 q 501 182 475 156 l 501 281 l 343 281 q 244 201 244 281 q 269 144 244 165 q 347 124 294 124 z "},"b":{"ha":831,"x_min":71,"x_max":788,"o":"m 483 -14 q 367 3 417 -14 q 276 56 317 21 l 265 0 l 71 0 l 71 936 l 294 936 l 294 628 q 379 661 332 650 q 476 672 426 672 q 704 592 621 672 q 788 335 788 513 q 706 72 788 157 q 483 -14 624 -14 m 419 149 q 527 194 494 149 q 560 333 560 239 q 526 469 560 431 q 419 508 492 508 q 294 467 340 508 l 294 199 q 419 149 344 149 z "},"c":{"ha":696,"x_min":43,"x_max":653,"o":"m 418 -14 q 142 72 242 -14 q 43 329 43 158 q 147 588 43 503 q 422 672 250 672 q 548 662 494 672 q 651 628 601 651 l 651 469 q 469 507 574 507 q 322 468 372 507 q 271 329 271 429 q 318 194 271 236 q 468 151 365 151 q 653 193 569 151 l 653 28 q 545 -4 603 6 q 418 -14 488 -14 z "},"ć":{"ha":696,"x_min":43,"x_max":653,"o":"m 306 725 l 422 997 l 606 997 l 478 725 l 306 725 m 418 -14 q 142 72 242 -14 q 43 329 43 158 q 147 588 43 503 q 422 672 250 672 q 548 662 494 672 q 651 628 601 651 l 651 469 q 469 507 574 507 q 322 468 372 507 q 271 329 271 429 q 318 194 271 236 q 468 151 365 151 q 653 193 569 151 l 653 28 q 545 -4 603 6 q 418 -14 488 -14 z "},"č":{"ha":697,"x_min":43,"x_max":654,"o":"m 314 724 l 113 983 l 283 983 l 383 839 l 488 983 l 654 983 l 453 724 l 314 724 m 418 -14 q 142 72 242 -14 q 43 329 43 158 q 147 588 43 503 q 422 672 250 672 q 548 662 494 672 q 651 628 601 651 l 651 469 q 469 507 574 507 q 322 468 372 507 q 271 329 271 429 q 318 194 271 236 q 468 151 365 151 q 653 193 569 151 l 653 28 q 545 -4 603 6 q 418 -14 488 -14 z "},"ç":{"ha":696,"x_min":43,"x_max":653,"o":"m 381 -333 q 322 -330 357 -333 q 271 -322 286 -326 l 271 -224 q 354 -235 311 -235 q 435 -226 411 -235 q 460 -186 460 -217 q 435 -147 460 -154 q 369 -139 410 -139 l 294 -139 l 332 -8 q 119 96 194 11 q 43 329 43 181 q 147 588 43 503 q 422 672 250 672 q 548 662 494 672 q 651 628 601 651 l 651 469 q 469 507 574 507 q 322 468 372 507 q 271 329 271 429 q 318 194 271 236 q 468 151 365 151 q 653 193 569 151 l 653 28 q 464 -12 572 -7 l 447 -60 q 562 -95 525 -60 q 599 -189 599 -131 q 545 -295 599 -257 q 381 -333 492 -333 z "},"ĉ":{"ha":696,"x_min":43,"x_max":653,"o":"m 107 724 l 308 983 l 447 983 l 649 724 l 482 724 l 378 868 l 278 724 l 107 724 m 418 -14 q 142 72 242 -14 q 43 329 43 158 q 147 588 43 503 q 422 672 250 672 q 548 662 494 672 q 651 628 601 651 l 651 469 q 469 507 574 507 q 322 468 372 507 q 271 329 271 429 q 318 194 271 236 q 468 151 365 151 q 653 193 569 151 l 653 28 q 545 -4 603 6 q 418 -14 488 -14 z "},"ċ":{"ha":696,"x_min":43,"x_max":653,"o":"m 307 761 l 307 913 l 469 913 l 469 761 l 307 761 m 418 -14 q 142 72 242 -14 q 43 329 43 158 q 147 588 43 503 q 422 672 250 672 q 548 662 494 672 q 651 628 601 651 l 651 469 q 469 507 574 507 q 322 468 372 507 q 271 329 271 429 q 318 194 271 236 q 468 151 365 151 q 653 193 569 151 l 653 28 q 545 -4 603 6 q 418 -14 488 -14 z "},"d":{"ha":831,"x_min":43,"x_max":760,"o":"m 347 -14 q 183 17 251 -14 q 79 117 115 47 q 43 306 43 188 q 85 506 43 425 q 199 630 126 588 q 367 672 272 672 q 459 661 418 672 q 536 628 500 650 l 536 936 l 760 936 l 760 0 l 567 0 l 554 56 q 464 3 514 21 q 347 -14 414 -14 m 411 149 q 536 199 485 149 l 536 465 q 415 508 489 508 q 308 455 344 508 q 271 304 271 401 q 306 179 271 210 q 411 149 342 149 z "},"ð":{"ha":794,"x_min":43,"x_max":785,"o":"m 403 -14 q 128 65 213 -14 q 43 278 43 143 q 126 491 43 421 q 358 561 208 561 q 469 545 415 561 q 557 506 522 529 l 557 546 q 551 619 557 586 q 533 679 546 653 l 376 611 l 376 693 l 481 738 q 364 765 436 765 q 258 755 307 765 q 163 725 210 744 l 163 871 q 400 908 263 908 q 554 885 489 908 q 664 817 619 861 l 785 869 l 785 788 l 711 756 q 753 645 740 707 q 767 514 767 583 l 767 343 q 403 -14 767 -14 m 401 133 q 518 172 479 133 q 557 294 557 211 l 557 372 q 487 409 525 396 q 400 422 449 422 q 278 384 314 422 q 243 278 243 346 q 283 172 243 210 q 401 133 322 133 z "},"ď":{"ha":1050,"x_min":43,"x_max":1050,"o":"m 347 -14 q 128 67 213 -14 q 43 324 43 147 q 84 520 43 443 q 196 635 125 597 q 357 672 267 672 q 536 628 463 672 l 536 936 l 760 936 l 760 0 l 567 0 l 554 56 q 464 3 514 21 q 347 -14 414 -14 m 825 640 l 871 936 l 1050 936 l 976 640 l 825 640 m 411 149 q 536 199 485 149 l 536 465 q 415 508 489 508 q 308 464 344 508 q 271 322 271 419 q 306 188 271 228 q 411 149 342 149 z "},"đ":{"ha":832,"x_min":43,"x_max":817,"o":"m 347 -14 q 128 67 213 -14 q 43 324 43 147 q 84 520 43 443 q 196 635 125 597 q 357 672 267 672 q 536 628 463 672 l 536 724 l 344 724 l 344 865 l 536 865 l 536 936 l 760 936 l 760 865 l 817 865 l 817 724 l 760 724 l 760 0 l 567 0 l 554 56 q 464 3 514 21 q 347 -14 414 -14 m 411 149 q 536 199 485 149 l 536 465 q 415 508 489 508 q 308 464 344 508 q 271 322 271 419 q 306 188 271 228 q 411 149 342 149 z "},"ḍ":{"ha":831,"x_min":43,"x_max":760,"o":"m 347 -14 q 183 17 251 -14 q 79 117 115 47 q 43 306 43 188 q 85 506 43 425 q 199 630 126 588 q 367 672 272 672 q 459 661 418 672 q 536 628 500 650 l 536 936 l 760 936 l 760 0 l 567 0 l 554 56 q 464 3 514 21 q 347 -14 414 -14 m 411 149 q 536 199 485 149 l 536 465 q 415 508 489 508 q 308 455 344 508 q 271 304 271 401 q 306 179 271 210 q 411 149 342 149 m 356 -262 l 356 -111 l 519 -111 l 519 -262 l 356 -262 z "},"ḏ":{"ha":831,"x_min":43,"x_max":760,"o":"m 347 -14 q 183 17 251 -14 q 79 117 115 47 q 43 306 43 188 q 85 506 43 425 q 199 630 126 588 q 367 672 272 672 q 459 661 418 672 q 536 628 500 650 l 536 936 l 760 936 l 760 0 l 567 0 l 554 56 q 464 3 514 21 q 347 -14 414 -14 m 411 149 q 536 199 485 149 l 536 465 q 415 508 489 508 q 308 455 344 508 q 271 304 271 401 q 306 179 271 210 q 411 149 342 149 m 204 -250 l 204 -114 l 646 -114 l 646 -250 l 204 -250 z "},"e":{"ha":760,"x_min":43,"x_max":717,"o":"m 424 -14 q 147 72 251 -14 q 43 329 43 157 q 129 579 43 486 q 388 672 215 672 q 631 592 544 672 q 717 375 717 511 l 717 257 l 250 257 q 322 166 265 192 q 475 140 378 140 q 585 150 529 140 q 679 175 642 160 l 679 29 q 567 -3 632 7 q 424 -14 501 -14 m 250 386 l 522 386 l 522 415 q 493 492 522 464 q 394 521 464 521 q 282 488 314 521 q 250 386 250 456 z "},"é":{"ha":760,"x_min":43,"x_max":717,"o":"m 306 725 l 422 997 l 606 997 l 478 725 l 306 725 m 424 -14 q 147 72 251 -14 q 43 329 43 157 q 129 579 43 486 q 388 672 215 672 q 631 592 544 672 q 717 375 717 511 l 717 257 l 250 257 q 322 166 265 192 q 475 140 378 140 q 585 150 529 140 q 679 175 642 160 l 679 29 q 567 -3 632 7 q 424 -14 501 -14 m 250 386 l 522 386 l 522 415 q 493 492 522 464 q 394 521 464 521 q 282 488 314 521 q 250 386 250 456 z "},"ĕ":{"ha":760,"x_min":43,"x_max":717,"o":"m 394 725 q 221 788 288 725 q 154 964 154 850 l 301 964 q 323 883 301 917 q 394 850 344 850 q 468 883 446 850 q 490 964 490 917 l 638 964 q 570 788 638 850 q 394 725 503 725 m 424 -14 q 147 72 251 -14 q 43 329 43 157 q 129 579 43 486 q 388 672 215 672 q 631 592 544 672 q 717 375 717 511 l 717 257 l 250 257 q 322 166 265 192 q 475 140 378 140 q 585 150 529 140 q 679 175 642 160 l 679 29 q 567 -3 632 7 q 424 -14 501 -14 m 250 386 l 522 386 l 522 415 q 493 492 522 464 q 394 521 464 521 q 282 488 314 521 q 250 386 250 456 z "},"ě":{"ha":760,"x_min":43,"x_max":717,"o":"m 332 724 l 131 983 l 301 983 l 401 839 l 506 983 l 672 983 l 471 724 l 332 724 m 424 -14 q 147 72 251 -14 q 43 329 43 157 q 129 579 43 486 q 388 672 215 672 q 631 592 544 672 q 717 375 717 511 l 717 257 l 250 257 q 322 166 265 192 q 475 140 378 140 q 585 150 529 140 q 679 175 642 160 l 679 29 q 567 -3 632 7 q 424 -14 501 -14 m 250 386 l 522 386 l 522 415 q 493 492 522 464 q 394 521 464 521 q 282 488 314 521 q 250 386 250 456 z "},"ê":{"ha":760,"x_min":43,"x_max":717,"o":"m 119 724 l 321 983 l 460 983 l 661 724 l 494 724 l 390 868 l 290 724 l 119 724 m 424 -14 q 147 72 251 -14 q 43 329 43 157 q 129 579 43 486 q 388 672 215 672 q 631 592 544 672 q 717 375 717 511 l 717 257 l 250 257 q 322 166 265 192 q 475 140 378 140 q 585 150 529 140 q 679 175 642 160 l 679 29 q 567 -3 632 7 q 424 -14 501 -14 m 250 386 l 522 386 l 522 415 q 493 492 522 464 q 394 521 464 521 q 282 488 314 521 q 250 386 250 456 z "},"ế":{"ha":760,"x_min":43,"x_max":807,"o":"m 544 892 l 640 1099 l 807 1099 l 703 892 l 544 892 m 119 724 l 306 924 l 474 924 l 660 724 l 481 724 l 390 835 l 300 724 l 119 724 m 424 -14 q 147 72 251 -14 q 43 329 43 157 q 129 579 43 486 q 388 672 215 672 q 631 592 544 672 q 717 375 717 511 l 717 257 l 250 257 q 322 166 265 192 q 475 140 378 140 q 585 150 529 140 q 679 175 642 160 l 679 29 q 567 -3 632 7 q 424 -14 501 -14 m 250 386 l 522 386 l 522 415 q 493 492 522 464 q 394 521 464 521 q 282 488 314 521 q 250 386 250 456 z "},"ệ":{"ha":760,"x_min":43,"x_max":717,"o":"m 121 724 l 322 983 l 461 983 l 663 724 l 496 724 l 392 868 l 292 724 l 121 724 m 424 -14 q 147 72 251 -14 q 43 329 43 157 q 129 579 43 486 q 388 672 215 672 q 631 592 544 672 q 717 375 717 511 l 717 257 l 250 257 q 322 166 265 192 q 475 140 378 140 q 585 150 529 140 q 679 175 642 160 l 679 29 q 567 -3 632 7 q 424 -14 501 -14 m 250 386 l 522 386 l 522 415 q 493 492 522 464 q 394 521 464 521 q 282 488 314 521 q 250 386 250 456 m 310 -249 l 310 -97 l 474 -97 l 474 -249 l 310 -249 z "},"ề":{"ha":760,"x_min":-28,"x_max":717,"o":"m 76 893 l -28 1100 l 139 1100 l 235 893 l 76 893 m 119 725 l 306 925 l 474 925 l 660 725 l 479 725 l 389 836 l 299 725 l 119 725 m 424 -14 q 147 72 251 -14 q 43 329 43 157 q 129 579 43 486 q 388 672 215 672 q 631 592 544 672 q 717 375 717 511 l 717 257 l 250 257 q 322 166 265 192 q 475 140 378 140 q 585 150 529 140 q 679 175 642 160 l 679 29 q 567 -3 632 7 q 424 -14 501 -14 m 250 386 l 522 386 l 522 415 q 493 492 522 464 q 394 521 464 521 q 282 488 314 521 q 250 386 250 456 z "},"ể":{"ha":760,"x_min":43,"x_max":813,"o":"m 558 861 l 558 960 q 640 974 621 963 q 660 1006 660 986 q 600 1040 660 1040 q 560 1037 579 1040 q 526 1026 542 1033 l 526 1119 q 582 1131 550 1126 q 653 1136 614 1136 q 772 1105 732 1136 q 813 1021 813 1074 q 788 944 813 974 q 710 907 763 915 l 710 861 l 558 861 m 119 724 l 306 924 l 474 924 l 660 724 l 481 724 l 390 835 l 300 724 l 119 724 m 424 -14 q 147 72 251 -14 q 43 329 43 157 q 129 579 43 486 q 388 672 215 672 q 631 592 544 672 q 717 375 717 511 l 717 257 l 250 257 q 322 166 265 192 q 475 140 378 140 q 585 150 529 140 q 679 175 642 160 l 679 29 q 567 -3 632 7 q 424 -14 501 -14 m 250 386 l 522 386 l 522 415 q 493 492 522 464 q 394 521 464 521 q 282 488 314 521 q 250 386 250 456 z "},"ễ":{"ha":760,"x_min":43,"x_max":717,"o":"m 528 944 q 446 958 486 944 q 367 986 406 972 q 293 1000 329 1000 q 165 949 214 1000 l 165 1075 q 218 1107 185 1094 q 289 1119 251 1119 q 372 1106 333 1119 q 447 1077 410 1092 q 524 1063 483 1063 q 594 1077 564 1063 q 643 1117 625 1092 l 643 989 q 599 958 629 971 q 528 944 568 944 m 122 724 l 308 924 l 476 924 l 663 724 l 483 724 l 393 835 l 303 724 l 122 724 m 424 -14 q 147 72 251 -14 q 43 329 43 157 q 129 579 43 486 q 388 672 215 672 q 631 592 544 672 q 717 375 717 511 l 717 257 l 250 257 q 322 166 265 192 q 475 140 378 140 q 585 150 529 140 q 679 175 642 160 l 679 29 q 567 -3 632 7 q 424 -14 501 -14 m 250 386 l 522 386 l 522 415 q 493 492 522 464 q 394 521 464 521 q 282 488 314 521 q 250 386 250 456 z "},"ë":{"ha":760,"x_min":43,"x_max":717,"o":"m 165 761 l 165 913 l 329 913 l 329 761 l 165 761 m 451 761 l 451 913 l 615 913 l 615 761 l 451 761 m 424 -14 q 147 72 251 -14 q 43 329 43 157 q 129 579 43 486 q 388 672 215 672 q 631 592 544 672 q 717 375 717 511 l 717 257 l 250 257 q 322 166 265 192 q 475 140 378 140 q 585 150 529 140 q 679 175 642 160 l 679 29 q 567 -3 632 7 q 424 -14 501 -14 m 250 386 l 522 386 l 522 415 q 493 492 522 464 q 394 521 464 521 q 282 488 314 521 q 250 386 250 456 z "},"ė":{"ha":760,"x_min":43,"x_max":717,"o":"m 311 761 l 311 913 l 474 913 l 474 761 l 311 761 m 424 -14 q 147 72 251 -14 q 43 329 43 157 q 129 579 43 486 q 388 672 215 672 q 631 592 544 672 q 717 375 717 511 l 717 257 l 250 257 q 322 166 265 192 q 475 140 378 140 q 585 150 529 140 q 679 175 642 160 l 679 29 q 567 -3 632 7 q 424 -14 501 -14 m 250 386 l 522 386 l 522 415 q 493 492 522 464 q 394 521 464 521 q 282 488 314 521 q 250 386 250 456 z "},"ẹ":{"ha":760,"x_min":43,"x_max":717,"o":"m 424 -14 q 147 72 251 -14 q 43 329 43 157 q 129 579 43 486 q 388 672 215 672 q 631 592 544 672 q 717 375 717 511 l 717 257 l 250 257 q 322 166 265 192 q 475 140 378 140 q 585 150 529 140 q 679 175 642 160 l 679 29 q 567 -3 632 7 q 424 -14 501 -14 m 250 386 l 522 386 l 522 415 q 493 492 522 464 q 394 521 464 521 q 282 488 314 521 q 250 386 250 456 m 314 -249 l 314 -97 l 478 -97 l 478 -249 l 314 -249 z "},"è":{"ha":760,"x_min":43,"x_max":717,"o":"m 306 725 l 176 997 l 360 997 l 476 725 l 306 725 m 424 -14 q 147 72 251 -14 q 43 329 43 157 q 129 579 43 486 q 388 672 215 672 q 631 592 544 672 q 717 375 717 511 l 717 257 l 250 257 q 322 166 265 192 q 475 140 378 140 q 585 150 529 140 q 679 175 642 160 l 679 29 q 567 -3 632 7 q 424 -14 501 -14 m 250 386 l 522 386 l 522 415 q 493 492 522 464 q 394 521 464 521 q 282 488 314 521 q 250 386 250 456 z "},"ẻ":{"ha":760,"x_min":43,"x_max":717,"o":"m 307 724 l 307 836 q 406 856 381 840 q 431 900 431 872 q 407 938 431 926 q 340 950 383 950 q 297 947 321 950 q 257 938 274 943 l 257 1038 q 406 1057 313 1057 q 546 1019 497 1057 q 594 919 594 981 q 566 830 594 860 q 476 785 538 800 l 476 724 l 307 724 m 424 -14 q 147 72 251 -14 q 43 329 43 157 q 129 579 43 486 q 388 672 215 672 q 631 592 544 672 q 717 375 717 511 l 717 257 l 250 257 q 322 166 265 192 q 475 140 378 140 q 585 150 529 140 q 679 175 642 160 l 679 29 q 567 -3 632 7 q 424 -14 501 -14 m 250 386 l 522 386 l 522 415 q 493 492 522 464 q 394 521 464 521 q 282 488 314 521 q 250 386 250 456 z "},"ē":{"ha":760,"x_min":43,"x_max":717,"o":"m 175 774 l 175 908 l 617 908 l 617 774 l 175 774 m 424 -14 q 147 72 251 -14 q 43 329 43 157 q 129 579 43 486 q 388 672 215 672 q 631 592 544 672 q 717 375 717 511 l 717 257 l 250 257 q 322 166 265 192 q 475 140 378 140 q 585 150 529 140 q 679 175 642 160 l 679 29 q 567 -3 632 7 q 424 -14 501 -14 m 250 386 l 522 386 l 522 415 q 493 492 522 464 q 394 521 464 521 q 282 488 314 521 q 250 386 250 456 z "},"ę":{"ha":760,"x_min":43,"x_max":717,"o":"m 490 -306 q 369 -274 419 -306 q 319 -175 319 -243 q 342 -86 319 -128 q 403 -14 364 -44 q 141 77 239 -8 q 43 329 43 163 q 129 579 43 486 q 388 672 215 672 q 631 592 544 672 q 717 375 717 511 l 717 257 l 250 257 q 322 166 265 192 q 475 140 378 140 q 585 150 529 140 q 679 175 642 160 l 679 29 q 575 -1 635 10 q 514 -64 538 -31 q 490 -135 490 -97 q 507 -175 490 -162 q 551 -187 524 -187 q 589 -183 569 -187 q 621 -172 608 -179 l 621 -285 q 565 -299 601 -293 q 490 -306 529 -306 m 250 386 l 522 386 l 522 415 q 493 492 522 464 q 394 521 464 521 q 282 488 314 521 q 250 386 250 456 z "},"ẽ":{"ha":760,"x_min":43,"x_max":717,"o":"m 526 739 q 442 753 483 739 q 363 782 401 768 q 289 796 325 796 q 216 782 249 796 q 158 743 183 768 l 158 892 q 212 924 178 911 q 285 936 246 936 q 368 922 329 936 q 444 894 407 908 q 522 879 482 879 q 594 894 564 879 q 643 933 625 908 l 643 783 q 598 752 629 765 q 526 739 567 739 m 424 -14 q 147 72 251 -14 q 43 329 43 157 q 129 579 43 486 q 388 672 215 672 q 631 592 544 672 q 717 375 717 511 l 717 257 l 250 257 q 322 166 265 192 q 475 140 378 140 q 585 150 529 140 q 679 175 642 160 l 679 29 q 567 -3 632 7 q 424 -14 501 -14 m 250 386 l 522 386 l 522 415 q 493 492 522 464 q 394 521 464 521 q 282 488 314 521 q 250 386 250 456 z "},"ə":{"ha":760,"x_min":43,"x_max":717,"o":"m 372 -14 q 129 67 215 -14 q 43 283 43 149 l 43 400 l 510 400 q 438 492 493 467 q 285 518 383 518 q 173 508 229 518 q 81 483 117 499 l 81 628 q 336 672 176 672 q 613 587 508 672 q 717 329 717 501 q 631 79 717 172 q 372 -14 544 -14 m 365 136 q 478 169 446 136 q 510 272 510 203 l 238 272 l 238 242 q 267 165 238 194 q 365 136 296 136 z "},"f":{"ha":521,"x_min":14,"x_max":507,"o":"m 101 0 l 101 489 l 14 489 l 14 658 l 101 658 l 101 713 q 163 889 101 819 q 344 958 224 958 q 433 951 394 958 q 507 929 472 943 l 507 779 q 467 790 486 786 q 424 794 447 794 q 347 774 369 794 q 325 708 325 754 l 325 658 l 488 658 l 478 489 l 325 489 l 325 0 l 101 0 z "},"g":{"ha":782,"x_min":46,"x_max":758,"o":"m 354 -244 q 251 -240 306 -244 q 149 -228 197 -236 q 65 -208 100 -219 l 65 -56 q 199 -83 121 -74 q 342 -93 276 -93 q 469 -84 426 -93 q 511 -53 511 -75 q 494 -26 511 -33 q 429 -19 478 -19 l 247 -19 q 109 13 158 -19 q 60 106 60 44 q 85 185 60 147 q 161 240 111 222 q 75 314 104 269 q 46 426 46 358 q 128 613 46 554 q 371 672 211 672 q 445 667 404 672 q 506 658 486 663 l 758 658 l 753 519 l 657 519 q 692 417 692 485 q 630 263 692 321 q 443 204 568 204 q 402 206 422 204 q 363 210 382 208 q 301 194 326 206 q 275 163 275 183 q 288 140 275 146 q 328 135 301 135 l 496 135 q 653 88 597 135 q 710 -47 710 42 q 354 -244 710 -244 m 372 328 q 474 353 446 328 q 501 436 501 378 q 473 521 501 494 q 372 547 444 547 q 274 522 304 547 q 244 436 244 496 q 272 354 244 381 q 372 328 300 328 z "},"ğ":{"ha":782,"x_min":46,"x_max":758,"o":"m 385 725 q 211 788 278 725 q 144 964 144 850 l 292 964 q 313 883 292 917 q 385 850 335 850 q 458 883 436 850 q 481 964 481 917 l 628 964 q 560 788 628 850 q 385 725 493 725 m 354 -244 q 251 -240 306 -244 q 149 -228 197 -236 q 65 -208 100 -219 l 65 -56 q 199 -83 121 -74 q 342 -93 276 -93 q 469 -84 426 -93 q 511 -53 511 -75 q 494 -26 511 -33 q 429 -19 478 -19 l 247 -19 q 109 13 158 -19 q 60 106 60 44 q 85 185 60 147 q 161 240 111 222 q 75 314 104 269 q 46 426 46 358 q 128 613 46 554 q 371 672 211 672 q 445 667 404 672 q 506 658 486 663 l 758 658 l 753 519 l 657 519 q 692 417 692 485 q 630 263 692 321 q 443 204 568 204 q 402 206 422 204 q 363 210 382 208 q 301 194 326 206 q 275 163 275 183 q 288 140 275 146 q 328 135 301 135 l 496 135 q 653 88 597 135 q 710 -47 710 42 q 354 -244 710 -244 m 372 328 q 474 353 446 328 q 501 436 501 378 q 473 521 501 494 q 372 547 444 547 q 274 522 304 547 q 244 436 244 496 q 272 354 244 381 q 372 328 300 328 z "},"ǧ":{"ha":782,"x_min":46,"x_max":758,"o":"m 336 725 l 135 985 l 306 985 l 406 840 l 510 985 l 676 985 l 475 725 l 336 725 m 354 -244 q 251 -240 306 -244 q 149 -228 197 -236 q 65 -208 100 -219 l 65 -56 q 199 -83 121 -74 q 342 -93 276 -93 q 469 -84 426 -93 q 511 -53 511 -75 q 494 -26 511 -33 q 429 -19 478 -19 l 247 -19 q 109 13 158 -19 q 60 106 60 44 q 85 185 60 147 q 161 240 111 222 q 75 314 104 269 q 46 426 46 358 q 128 613 46 554 q 371 672 211 672 q 445 667 404 672 q 506 658 486 663 l 758 658 l 753 519 l 657 519 q 692 417 692 485 q 630 263 692 321 q 443 204 568 204 q 402 206 422 204 q 363 210 382 208 q 301 194 326 206 q 275 163 275 183 q 288 140 275 146 q 328 135 301 135 l 496 135 q 653 88 597 135 q 710 -47 710 42 q 354 -244 710 -244 m 372 328 q 474 353 446 328 q 501 436 501 378 q 473 521 501 494 q 372 547 444 547 q 274 522 304 547 q 244 436 244 496 q 272 354 244 381 q 372 328 300 328 z "},"ĝ":{"ha":782,"x_min":46,"x_max":758,"o":"m 119 724 l 321 983 l 460 983 l 661 724 l 494 724 l 390 868 l 290 724 l 119 724 m 354 -244 q 251 -240 306 -244 q 149 -228 197 -236 q 65 -208 100 -219 l 65 -56 q 199 -83 121 -74 q 342 -93 276 -93 q 469 -84 426 -93 q 511 -53 511 -75 q 494 -26 511 -33 q 429 -19 478 -19 l 247 -19 q 109 13 158 -19 q 60 106 60 44 q 85 185 60 147 q 161 240 111 222 q 75 314 104 269 q 46 426 46 358 q 128 613 46 554 q 371 672 211 672 q 445 667 404 672 q 506 658 486 663 l 758 658 l 753 519 l 657 519 q 692 417 692 485 q 630 263 692 321 q 443 204 568 204 q 402 206 422 204 q 363 210 382 208 q 301 194 326 206 q 275 163 275 183 q 288 140 275 146 q 328 135 301 135 l 496 135 q 653 88 597 135 q 710 -47 710 42 q 354 -244 710 -244 m 372 328 q 474 353 446 328 q 501 436 501 378 q 473 521 501 494 q 372 547 444 547 q 274 522 304 547 q 244 436 244 496 q 272 354 244 381 q 372 328 300 328 z "},"ģ":{"ha":782,"x_min":46,"x_max":758,"o":"m 289 725 l 363 1021 l 514 1021 l 468 725 l 289 725 m 354 -244 q 251 -240 306 -244 q 149 -228 197 -236 q 65 -208 100 -219 l 65 -56 q 199 -83 121 -74 q 342 -93 276 -93 q 469 -84 426 -93 q 511 -53 511 -75 q 494 -26 511 -33 q 429 -19 478 -19 l 247 -19 q 109 13 158 -19 q 60 106 60 44 q 85 185 60 147 q 161 240 111 222 q 75 314 104 269 q 46 426 46 358 q 128 613 46 554 q 371 672 211 672 q 445 667 404 672 q 506 658 486 663 l 758 658 l 753 519 l 657 519 q 692 417 692 485 q 630 263 692 321 q 443 204 568 204 q 402 206 422 204 q 363 210 382 208 q 301 194 326 206 q 275 163 275 183 q 288 140 275 146 q 328 135 301 135 l 496 135 q 653 88 597 135 q 710 -47 710 42 q 354 -244 710 -244 m 372 328 q 474 353 446 328 q 501 436 501 378 q 473 521 501 494 q 372 547 444 547 q 274 522 304 547 q 244 436 244 496 q 272 354 244 381 q 372 328 300 328 z "},"ġ":{"ha":782,"x_min":46,"x_max":758,"o":"m 293 743 l 293 894 l 456 894 l 456 743 l 293 743 m 354 -244 q 251 -240 306 -244 q 149 -228 197 -236 q 65 -208 100 -219 l 65 -56 q 199 -83 121 -74 q 342 -93 276 -93 q 469 -84 426 -93 q 511 -53 511 -75 q 494 -26 511 -33 q 429 -19 478 -19 l 247 -19 q 109 13 158 -19 q 60 106 60 44 q 85 185 60 147 q 161 240 111 222 q 75 314 104 269 q 46 426 46 358 q 128 613 46 554 q 371 672 211 672 q 445 667 404 672 q 506 658 486 663 l 758 658 l 753 519 l 657 519 q 692 417 692 485 q 630 263 692 321 q 443 204 568 204 q 402 206 422 204 q 363 210 382 208 q 301 194 326 206 q 275 163 275 183 q 288 140 275 146 q 328 135 301 135 l 496 135 q 653 88 597 135 q 710 -47 710 42 q 354 -244 710 -244 m 372 328 q 474 353 446 328 q 501 436 501 378 q 473 521 501 494 q 372 547 444 547 q 274 522 304 547 q 244 436 244 496 q 272 354 244 381 q 372 328 300 328 z "},"ḡ":{"ha":782,"x_min":46,"x_max":758,"o":"m 169 765 l 169 900 l 611 900 l 611 765 l 169 765 m 354 -244 q 251 -240 306 -244 q 149 -228 197 -236 q 65 -208 100 -219 l 65 -56 q 199 -83 121 -74 q 342 -93 276 -93 q 469 -84 426 -93 q 511 -53 511 -75 q 494 -26 511 -33 q 429 -19 478 -19 l 247 -19 q 109 13 158 -19 q 60 106 60 44 q 85 185 60 147 q 161 240 111 222 q 75 314 104 269 q 46 426 46 358 q 128 613 46 554 q 371 672 211 672 q 445 667 404 672 q 506 658 486 663 l 758 658 l 753 519 l 657 519 q 692 417 692 485 q 630 263 692 321 q 443 204 568 204 q 402 206 422 204 q 363 210 382 208 q 301 194 326 206 q 275 163 275 183 q 288 140 275 146 q 328 135 301 135 l 496 135 q 653 88 597 135 q 710 -47 710 42 q 354 -244 710 -244 m 372 328 q 474 353 446 328 q 501 436 501 378 q 473 521 501 494 q 372 547 444 547 q 274 522 304 547 q 244 436 244 496 q 272 354 244 381 q 372 328 300 328 z "},"h":{"ha":826,"x_min":71,"x_max":763,"o":"m 71 0 l 71 936 l 294 936 l 294 610 q 388 655 332 638 q 507 672 443 672 q 701 610 639 672 q 763 418 763 547 l 763 0 l 539 0 l 539 403 q 515 483 539 460 q 431 507 492 507 q 357 490 394 507 q 294 449 319 474 l 294 0 l 71 0 z "},"ħ":{"ha":826,"x_min":8,"x_max":763,"o":"m 71 0 l 71 726 l 8 726 l 8 867 l 71 867 l 71 936 l 294 936 l 294 867 l 465 867 l 465 726 l 294 726 l 294 610 q 388 655 332 638 q 507 672 443 672 q 701 610 639 672 q 763 418 763 547 l 763 0 l 538 0 l 538 403 q 515 483 538 460 q 431 507 492 507 q 357 490 394 507 q 294 449 319 474 l 294 0 l 71 0 z "},"ḫ":{"ha":826,"x_min":71,"x_max":763,"o":"m 71 0 l 71 936 l 294 936 l 294 610 q 388 655 332 638 q 507 672 443 672 q 701 610 639 672 q 763 418 763 547 l 763 0 l 539 0 l 539 403 q 515 483 539 460 q 431 507 492 507 q 357 490 394 507 q 294 449 319 474 l 294 0 l 71 0 m 419 -315 q 246 -253 313 -315 q 179 -76 179 -190 l 326 -76 q 348 -157 326 -124 q 419 -190 369 -190 q 493 -157 471 -190 q 515 -76 515 -124 l 663 -76 q 595 -253 663 -190 q 419 -315 528 -315 z "},"ĥ":{"ha":826,"x_min":71,"x_max":763,"o":"m 75 981 l 276 1240 l 415 1240 l 617 981 l 450 981 l 346 1125 l 246 981 l 75 981 m 71 0 l 71 936 l 294 936 l 294 610 q 388 655 332 638 q 507 672 443 672 q 701 610 639 672 q 763 418 763 547 l 763 0 l 539 0 l 539 403 q 515 483 539 460 q 431 507 492 507 q 357 490 394 507 q 294 449 319 474 l 294 0 l 71 0 z "},"ḥ":{"ha":826,"x_min":71,"x_max":763,"o":"m 71 0 l 71 936 l 294 936 l 294 610 q 388 655 332 638 q 507 672 443 672 q 701 610 639 672 q 763 418 763 547 l 763 0 l 539 0 l 539 403 q 515 483 539 460 q 431 507 492 507 q 357 490 394 507 q 294 449 319 474 l 294 0 l 71 0 m 339 -262 l 339 -111 l 503 -111 l 503 -262 l 339 -262 z "},"i":{"ha":429,"x_min":36,"x_max":358,"o":"m 115 763 l 115 931 l 358 931 l 358 763 l 115 763 m 133 0 l 133 493 l 36 493 l 56 658 l 357 658 l 357 0 l 133 0 z "},"ı":{"ha":429,"x_min":36,"x_max":357,"o":"m 133 0 l 133 493 l 36 493 l 56 658 l 357 658 l 357 0 l 133 0 z "},"í":{"ha":464,"x_min":71,"x_max":467,"o":"m 167 725 l 283 997 l 467 997 l 339 725 l 167 725 m 168 0 l 168 493 l 71 493 l 90 658 l 392 658 l 392 0 l 168 0 z "},"ĭ":{"ha":464,"x_min":-4,"x_max":479,"o":"m 236 725 q 63 788 129 725 q -4 964 -4 850 l 143 964 q 165 883 143 917 q 236 850 186 850 q 310 883 288 850 q 332 964 332 917 l 479 964 q 412 788 479 850 q 236 725 344 725 m 168 0 l 168 493 l 71 493 l 90 658 l 392 658 l 392 0 l 168 0 z "},"ǐ":{"ha":464,"x_min":-24,"x_max":518,"o":"m 178 724 l -24 983 l 147 983 l 247 839 l 351 983 l 518 983 l 317 724 l 178 724 m 168 0 l 168 493 l 71 493 l 90 658 l 392 658 l 392 0 l 168 0 z "},"î":{"ha":464,"x_min":-31,"x_max":511,"o":"m -31 724 l 171 983 l 310 983 l 511 724 l 344 724 l 240 868 l 140 724 l -31 724 m 168 0 l 168 493 l 71 493 l 90 658 l 392 658 l 392 0 l 168 0 z "},"ï":{"ha":464,"x_min":11,"x_max":461,"o":"m 11 761 l 11 913 l 175 913 l 175 761 l 11 761 m 297 761 l 297 913 l 461 913 l 461 761 l 297 761 m 168 0 l 168 493 l 71 493 l 90 658 l 392 658 l 392 0 l 168 0 z "},"ị":{"ha":464,"x_min":71,"x_max":393,"o":"m 150 763 l 150 931 l 393 931 l 393 763 l 150 763 m 168 0 l 168 493 l 71 493 l 90 658 l 392 658 l 392 0 l 168 0 m 194 -249 l 194 -97 l 358 -97 l 358 -249 l 194 -249 z "},"ì":{"ha":464,"x_min":57,"x_max":392,"o":"m 186 725 l 57 997 l 240 997 l 357 725 l 186 725 m 168 0 l 168 493 l 71 493 l 90 658 l 392 658 l 392 0 l 168 0 z "},"ỉ":{"ha":464,"x_min":71,"x_max":438,"o":"m 150 724 l 150 836 q 249 856 224 840 q 274 900 274 872 q 250 938 274 926 q 183 950 226 950 q 140 947 164 950 q 100 938 117 943 l 100 1038 q 249 1057 156 1057 q 389 1019 340 1057 q 438 919 438 981 q 409 830 438 860 q 319 785 381 800 l 319 724 l 150 724 m 168 0 l 168 493 l 71 493 l 90 658 l 392 658 l 392 0 l 168 0 z "},"ĳ":{"ha":803,"x_min":36,"x_max":732,"o":"m 115 763 l 115 931 l 358 931 l 358 763 l 115 763 m 489 763 l 489 931 l 732 931 l 732 763 l 489 763 m 492 -325 q 328 -297 393 -325 l 328 -146 q 411 -160 369 -160 q 508 -76 508 -160 l 508 493 l 411 493 l 431 658 l 732 658 l 732 -96 q 674 -261 732 -197 q 492 -325 615 -325 m 133 0 l 133 493 l 36 493 l 56 658 l 357 658 l 357 0 l 133 0 z "},"ī":{"ha":464,"x_min":13,"x_max":454,"o":"m 13 797 l 13 932 l 454 932 l 454 797 l 13 797 m 168 0 l 168 493 l 71 493 l 90 658 l 392 658 l 392 0 l 168 0 z "},"į":{"ha":429,"x_min":36,"x_max":369,"o":"m 115 763 l 115 931 l 358 931 l 358 763 l 115 763 m 133 0 l 133 493 l 36 493 l 56 658 l 357 658 l 357 0 l 326 0 q 263 -63 288 -29 q 239 -135 239 -97 q 256 -175 239 -162 q 300 -187 272 -187 q 338 -183 318 -187 q 369 -172 357 -179 l 369 -285 q 314 -299 350 -293 q 239 -306 278 -306 q 118 -274 168 -306 q 68 -175 68 -243 q 95 -76 68 -122 q 169 0 122 -31 l 133 0 z "},"ĩ":{"ha":464,"x_min":-11,"x_max":474,"o":"m 357 747 q 273 762 314 747 q 194 790 232 776 q 119 804 156 804 q 47 790 79 804 q -11 751 14 776 l -11 900 q 42 932 8 919 q 115 944 76 944 q 199 931 160 944 q 275 902 238 917 q 353 888 313 888 q 425 902 394 888 q 474 942 456 917 l 474 792 q 428 760 460 774 q 357 747 397 747 m 168 0 l 168 493 l 71 493 l 90 658 l 392 658 l 392 0 l 168 0 z "},"j":{"ha":469,"x_min":-6,"x_max":399,"o":"m 156 763 l 156 931 l 399 931 l 399 763 l 156 763 m 158 -325 q -6 -297 60 -325 l -6 -146 q 78 -160 36 -160 q 175 -76 175 -160 l 175 493 l 78 493 l 97 658 l 399 658 l 399 -96 q 340 -261 399 -197 q 158 -325 282 -325 z "},"ȷ":{"ha":461,"x_min":-14,"x_max":390,"o":"m 150 -325 q -14 -297 51 -325 l -14 -146 q 69 -160 28 -160 q 167 -76 167 -160 l 167 493 l 69 493 l 89 658 l 390 658 l 390 -96 q 332 -261 390 -197 q 150 -325 274 -325 z "},"ĵ":{"ha":461,"x_min":-19,"x_max":522,"o":"m -19 724 l 182 983 l 321 983 l 522 724 l 356 724 l 251 868 l 151 724 l -19 724 m 150 -325 q -14 -297 51 -325 l -14 -146 q 69 -160 28 -160 q 167 -76 167 -160 l 167 493 l 69 493 l 89 658 l 390 658 l 390 -96 q 332 -261 390 -197 q 150 -325 274 -325 z "},"k":{"ha":807,"x_min":71,"x_max":779,"o":"m 71 0 l 71 936 l 294 936 l 294 447 l 510 658 l 764 658 l 500 385 l 779 0 l 542 0 l 360 267 l 294 203 l 294 0 l 71 0 z "},"ķ":{"ha":822,"x_min":71,"x_max":779,"o":"m 71 0 l 71 936 l 294 936 l 294 447 l 510 658 l 764 658 l 500 385 l 779 0 l 542 0 l 360 267 l 294 203 l 294 0 l 71 0 m 260 -347 l 306 -51 l 485 -51 l 411 -347 l 260 -347 z "},"ĸ":{"ha":822,"x_min":71,"x_max":779,"o":"m 71 0 l 71 658 l 294 658 l 294 426 l 510 658 l 764 658 l 500 368 l 779 0 l 542 0 l 361 250 l 294 181 l 294 0 l 71 0 z "},"l":{"ha":428,"x_min":71,"x_max":414,"o":"m 274 -14 q 118 33 165 -14 q 71 185 71 81 l 71 936 l 294 936 l 294 207 q 308 163 294 175 q 347 151 321 151 q 414 161 385 151 l 414 10 q 351 -8 382 -3 q 274 -14 319 -14 z "},"ĺ":{"ha":428,"x_min":71,"x_max":414,"o":"m 96 1029 l 213 1301 l 396 1301 l 268 1029 l 96 1029 m 274 -14 q 118 33 165 -14 q 71 185 71 81 l 71 936 l 294 936 l 294 207 q 308 163 294 175 q 347 151 321 151 q 414 161 385 151 l 414 10 q 351 -8 382 -3 q 274 -14 319 -14 z "},"ľ":{"ha":592,"x_min":71,"x_max":592,"o":"m 274 -14 q 118 33 165 -14 q 71 185 71 81 l 71 936 l 294 936 l 294 207 q 308 163 294 175 q 347 151 321 151 q 414 161 385 151 l 414 10 q 351 -8 382 -3 q 274 -14 319 -14 m 367 640 l 413 936 l 592 936 l 518 640 l 367 640 z "},"ļ":{"ha":428,"x_min":71,"x_max":414,"o":"m 274 -14 q 118 33 165 -14 q 71 185 71 81 l 71 936 l 294 936 l 294 207 q 308 163 294 175 q 347 151 321 151 q 414 161 385 151 l 414 10 q 351 -8 382 -3 q 274 -14 319 -14 m 133 -347 l 179 -51 l 358 -51 l 285 -347 l 133 -347 z "},"ŀ":{"ha":565,"x_min":71,"x_max":558,"o":"m 274 -14 q 118 33 165 -14 q 71 185 71 81 l 71 936 l 294 936 l 294 207 q 308 163 294 175 q 347 151 321 151 q 414 161 385 151 l 414 10 q 351 -8 382 -3 q 274 -14 319 -14 m 394 400 l 394 551 l 558 551 l 558 400 l 394 400 z "},"ḷ":{"ha":428,"x_min":71,"x_max":414,"o":"m 274 -14 q 118 33 165 -14 q 71 185 71 81 l 71 936 l 294 936 l 294 207 q 308 163 294 175 q 347 151 321 151 q 414 161 385 151 l 414 10 q 351 -8 382 -3 q 274 -14 319 -14 m 163 -249 l 163 -97 l 326 -97 l 326 -249 l 163 -249 z "},"ḹ":{"ha":428,"x_min":-36,"x_max":414,"o":"m -36 1007 l -36 1142 l 406 1142 l 406 1007 l -36 1007 m 274 -14 q 118 33 165 -14 q 71 185 71 81 l 71 936 l 294 936 l 294 207 q 308 163 294 175 q 347 151 321 151 q 414 161 385 151 l 414 10 q 351 -8 382 -3 q 274 -14 319 -14 m 163 -249 l 163 -97 l 326 -97 l 326 -249 l 163 -249 z "},"ḻ":{"ha":428,"x_min":10,"x_max":451,"o":"m 274 -14 q 118 33 165 -14 q 71 185 71 81 l 71 936 l 294 936 l 294 207 q 308 163 294 175 q 347 151 321 151 q 414 161 385 151 l 414 10 q 351 -8 382 -3 q 274 -14 319 -14 m 10 -233 l 10 -97 l 451 -97 l 451 -233 l 10 -233 z "},"ł":{"ha":428,"x_min":-43,"x_max":414,"o":"m 274 -14 q 118 33 165 -14 q 71 185 71 81 l 71 358 l -43 308 l -43 468 l 71 518 l 71 936 l 294 936 l 294 615 l 411 667 l 411 507 l 294 456 l 294 207 q 308 163 294 175 q 347 151 321 151 q 414 161 385 151 l 414 10 q 351 -8 382 -3 q 274 -14 319 -14 z "},"m":{"ha":1193,"x_min":71,"x_max":1129,"o":"m 71 0 l 71 658 l 278 658 l 285 600 q 385 652 329 632 q 504 672 440 672 q 608 652 571 672 q 667 596 646 632 q 770 651 713 629 q 906 672 828 672 q 1075 613 1021 672 q 1129 431 1129 553 l 1129 0 l 908 0 l 908 404 q 885 483 908 458 q 811 507 863 507 q 749 494 779 507 q 697 457 718 481 q 701 428 700 442 q 701 394 701 414 l 701 0 l 493 0 l 493 407 q 476 482 493 457 q 410 507 458 507 q 344 489 375 507 q 289 447 314 471 l 289 0 l 71 0 z "},"ṃ":{"ha":1193,"x_min":71,"x_max":1129,"o":"m 71 0 l 71 658 l 278 658 l 285 600 q 385 652 329 632 q 504 672 440 672 q 608 652 571 672 q 667 596 646 632 q 770 651 713 629 q 906 672 828 672 q 1075 613 1021 672 q 1129 431 1129 553 l 1129 0 l 908 0 l 908 404 q 885 483 908 458 q 811 507 863 507 q 749 494 779 507 q 697 457 718 481 q 701 428 700 442 q 701 394 701 414 l 701 0 l 493 0 l 493 407 q 476 482 493 457 q 410 507 458 507 q 344 489 375 507 q 289 447 314 471 l 289 0 l 71 0 m 525 -249 l 525 -97 l 689 -97 l 689 -249 l 525 -249 z "},"n":{"ha":826,"x_min":71,"x_max":763,"o":"m 71 0 l 71 658 l 279 658 l 286 601 q 388 651 326 629 q 518 672 449 672 q 704 611 646 672 q 763 422 763 550 l 763 0 l 539 0 l 539 404 q 515 483 539 460 q 431 507 492 507 q 357 490 394 507 q 294 449 319 474 l 294 0 l 71 0 z "},"ń":{"ha":826,"x_min":71,"x_max":763,"o":"m 296 725 l 413 997 l 596 997 l 468 725 l 296 725 m 71 0 l 71 658 l 279 658 l 286 601 q 388 651 326 629 q 518 672 449 672 q 704 611 646 672 q 763 422 763 550 l 763 0 l 539 0 l 539 404 q 515 483 539 460 q 431 507 492 507 q 357 490 394 507 q 294 449 319 474 l 294 0 l 71 0 z "},"ŉ":{"ha":960,"x_min":-28,"x_max":896,"o":"m -28 599 l 18 894 l 197 894 l 124 599 l -28 599 m 204 0 l 204 658 l 413 658 l 419 601 q 521 651 460 629 q 651 672 582 672 q 838 611 779 672 q 896 422 896 550 l 896 0 l 672 0 l 672 404 q 649 483 672 460 q 564 507 625 507 q 490 490 528 507 q 428 449 453 474 l 428 0 l 204 0 z "},"ň":{"ha":826,"x_min":71,"x_max":763,"o":"m 328 724 l 126 983 l 297 983 l 397 839 l 501 983 l 668 983 l 467 724 l 328 724 m 71 0 l 71 658 l 279 658 l 286 601 q 388 651 326 629 q 518 672 449 672 q 704 611 646 672 q 763 422 763 550 l 763 0 l 539 0 l 539 404 q 515 483 539 460 q 431 507 492 507 q 357 490 394 507 q 294 449 319 474 l 294 0 l 71 0 z "},"ņ":{"ha":826,"x_min":71,"x_max":763,"o":"m 71 0 l 71 658 l 279 658 l 286 601 q 388 651 326 629 q 518 672 449 672 q 704 611 646 672 q 763 422 763 550 l 763 0 l 539 0 l 539 404 q 515 483 539 460 q 431 507 492 507 q 357 490 394 507 q 294 449 319 474 l 294 0 l 71 0 m 296 -347 l 342 -51 l 521 -51 l 447 -347 l 296 -347 z "},"ṅ":{"ha":826,"x_min":71,"x_max":763,"o":"m 336 761 l 336 913 l 499 913 l 499 761 l 336 761 m 71 0 l 71 658 l 279 658 l 286 601 q 388 651 326 629 q 518 672 449 672 q 704 611 646 672 q 763 422 763 550 l 763 0 l 539 0 l 539 404 q 515 483 539 460 q 431 507 492 507 q 357 490 394 507 q 294 449 319 474 l 294 0 l 71 0 z "},"ṇ":{"ha":826,"x_min":71,"x_max":763,"o":"m 71 0 l 71 658 l 279 658 l 286 601 q 388 651 326 629 q 518 672 449 672 q 704 611 646 672 q 763 422 763 550 l 763 0 l 539 0 l 539 404 q 515 483 539 460 q 431 507 492 507 q 357 490 394 507 q 294 449 319 474 l 294 0 l 71 0 m 344 -249 l 344 -97 l 508 -97 l 508 -249 l 344 -249 z "},"ŋ":{"ha":826,"x_min":71,"x_max":763,"o":"m 521 -325 q 357 -297 422 -325 l 357 -149 q 401 -159 379 -156 q 440 -162 422 -162 q 515 -141 492 -162 q 538 -76 538 -119 l 538 404 q 515 483 538 460 q 431 507 492 507 q 357 490 394 507 q 294 449 319 474 l 294 0 l 71 0 l 71 658 l 279 658 l 286 601 q 388 651 326 629 q 518 672 449 672 q 704 611 646 672 q 763 422 763 550 l 763 -96 q 703 -261 763 -197 q 521 -325 644 -325 z "},"ṉ":{"ha":826,"x_min":71,"x_max":763,"o":"m 71 0 l 71 658 l 279 658 l 286 601 q 388 651 326 629 q 518 672 449 672 q 704 611 646 672 q 763 422 763 550 l 763 0 l 539 0 l 539 404 q 515 483 539 460 q 431 507 492 507 q 357 490 394 507 q 294 449 319 474 l 294 0 l 71 0 m 201 -231 l 201 -94 l 643 -94 l 643 -231 l 201 -231 z "},"ñ":{"ha":826,"x_min":71,"x_max":763,"o":"m 544 739 q 460 753 501 739 q 381 782 419 768 q 307 796 343 796 q 234 782 267 796 q 176 743 201 768 l 176 892 q 230 924 196 911 q 303 936 264 936 q 386 922 347 936 q 463 894 425 908 q 540 879 500 879 q 613 894 582 879 q 661 933 643 908 l 661 783 q 616 752 647 765 q 544 739 585 739 m 71 0 l 71 658 l 279 658 l 286 601 q 388 651 326 629 q 518 672 449 672 q 704 611 646 672 q 763 422 763 550 l 763 0 l 539 0 l 539 404 q 515 483 539 460 q 431 507 492 507 q 357 490 394 507 q 294 449 319 474 l 294 0 l 71 0 z "},"o":{"ha":829,"x_min":43,"x_max":786,"o":"m 414 -14 q 133 74 224 -14 q 43 329 43 163 q 134 583 43 494 q 414 672 225 672 q 695 583 604 672 q 786 329 786 494 q 696 74 786 163 q 414 -14 606 -14 m 414 161 q 525 200 492 161 q 558 329 558 239 q 525 458 558 419 q 414 497 492 497 q 304 458 338 497 q 271 329 271 419 q 304 200 271 239 q 414 161 338 161 z "},"ó":{"ha":829,"x_min":43,"x_max":786,"o":"m 313 725 l 429 997 l 613 997 l 485 725 l 313 725 m 414 -14 q 133 74 224 -14 q 43 329 43 163 q 134 583 43 494 q 414 672 225 672 q 695 583 604 672 q 786 329 786 494 q 696 74 786 163 q 414 -14 606 -14 m 414 161 q 525 200 492 161 q 558 329 558 239 q 525 458 558 419 q 414 497 492 497 q 304 458 338 497 q 271 329 271 419 q 304 200 271 239 q 414 161 338 161 z "},"ŏ":{"ha":829,"x_min":43,"x_max":786,"o":"m 414 725 q 240 788 307 725 q 174 964 174 850 l 321 964 q 342 883 321 917 q 414 850 364 850 q 488 883 465 850 q 510 964 510 917 l 657 964 q 590 788 657 850 q 414 725 522 725 m 414 -14 q 133 74 224 -14 q 43 329 43 163 q 134 583 43 494 q 414 672 225 672 q 695 583 604 672 q 786 329 786 494 q 696 74 786 163 q 414 -14 606 -14 m 414 161 q 525 200 492 161 q 558 329 558 239 q 525 458 558 419 q 414 497 492 497 q 304 458 338 497 q 271 329 271 419 q 304 200 271 239 q 414 161 338 161 z "},"ǒ":{"ha":829,"x_min":43,"x_max":786,"o":"m 344 724 l 143 983 l 314 983 l 414 839 l 518 983 l 685 983 l 483 724 l 344 724 m 414 -14 q 133 74 224 -14 q 43 329 43 163 q 134 583 43 494 q 414 672 225 672 q 695 583 604 672 q 786 329 786 494 q 696 74 786 163 q 414 -14 606 -14 m 414 161 q 525 200 492 161 q 558 329 558 239 q 525 458 558 419 q 414 497 492 497 q 304 458 338 497 q 271 329 271 419 q 304 200 271 239 q 414 161 338 161 z "},"ô":{"ha":829,"x_min":43,"x_max":786,"o":"m 143 724 l 344 983 l 483 983 l 685 724 l 518 724 l 414 868 l 314 724 l 143 724 m 414 -14 q 133 74 224 -14 q 43 329 43 163 q 134 583 43 494 q 414 672 225 672 q 695 583 604 672 q 786 329 786 494 q 696 74 786 163 q 414 -14 606 -14 m 414 161 q 525 200 492 161 q 558 329 558 239 q 525 458 558 419 q 414 497 492 497 q 304 458 338 497 q 271 329 271 419 q 304 200 271 239 q 414 161 338 161 z "},"ố":{"ha":829,"x_min":43,"x_max":831,"o":"m 568 892 l 664 1099 l 831 1099 l 726 892 l 568 892 m 143 724 l 329 924 l 497 924 l 683 724 l 504 724 l 414 835 l 324 724 l 143 724 m 414 -14 q 133 74 224 -14 q 43 329 43 163 q 134 583 43 494 q 414 672 225 672 q 695 583 604 672 q 786 329 786 494 q 696 74 786 163 q 414 -14 606 -14 m 414 161 q 525 200 492 161 q 558 329 558 239 q 525 458 558 419 q 414 497 492 497 q 304 458 338 497 q 271 329 271 419 q 304 200 271 239 q 414 161 338 161 z "},"ộ":{"ha":829,"x_min":43,"x_max":786,"o":"m 143 724 l 344 983 l 483 983 l 685 724 l 518 724 l 414 868 l 314 724 l 143 724 m 414 -14 q 133 74 224 -14 q 43 329 43 163 q 134 583 43 494 q 414 672 225 672 q 695 583 604 672 q 786 329 786 494 q 696 74 786 163 q 414 -14 606 -14 m 414 161 q 525 200 492 161 q 558 329 558 239 q 525 458 558 419 q 414 497 492 497 q 304 458 338 497 q 271 329 271 419 q 304 200 271 239 q 414 161 338 161 m 332 -249 l 332 -97 l 496 -97 l 496 -249 l 332 -249 z "},"ồ":{"ha":829,"x_min":-7,"x_max":786,"o":"m 97 892 l -7 1099 l 160 1099 l 256 892 l 97 892 m 140 724 l 326 924 l 494 924 l 681 724 l 500 724 l 410 835 l 319 724 l 140 724 m 414 -14 q 133 74 224 -14 q 43 329 43 163 q 134 583 43 494 q 414 672 225 672 q 695 583 604 672 q 786 329 786 494 q 696 74 786 163 q 414 -14 606 -14 m 414 161 q 525 200 492 161 q 558 329 558 239 q 525 458 558 419 q 414 497 492 497 q 304 458 338 497 q 271 329 271 419 q 304 200 271 239 q 414 161 338 161 z "},"ổ":{"ha":829,"x_min":43,"x_max":833,"o":"m 579 861 l 579 960 q 661 974 642 963 q 681 1006 681 986 q 621 1040 681 1040 q 581 1037 600 1040 q 547 1026 563 1033 l 547 1119 q 603 1131 571 1126 q 674 1136 635 1136 q 793 1105 753 1136 q 833 1021 833 1074 q 808 944 833 974 q 731 907 783 915 l 731 861 l 579 861 m 140 724 l 326 924 l 494 924 l 681 724 l 501 724 l 411 835 l 321 724 l 140 724 m 414 -14 q 133 74 224 -14 q 43 329 43 163 q 134 583 43 494 q 414 672 225 672 q 695 583 604 672 q 786 329 786 494 q 696 74 786 163 q 414 -14 606 -14 m 414 161 q 525 200 492 161 q 558 329 558 239 q 525 458 558 419 q 414 497 492 497 q 304 458 338 497 q 271 329 271 419 q 304 200 271 239 q 414 161 338 161 z "},"ỗ":{"ha":829,"x_min":43,"x_max":786,"o":"m 539 944 q 457 958 497 944 q 378 986 417 972 q 304 1000 340 1000 q 176 949 225 1000 l 176 1075 q 229 1107 196 1094 q 300 1119 263 1119 q 383 1106 344 1119 q 458 1077 421 1092 q 535 1063 494 1063 q 606 1077 575 1063 q 654 1117 636 1092 l 654 989 q 610 958 640 971 q 539 944 579 944 m 140 724 l 326 924 l 494 924 l 681 724 l 501 724 l 411 835 l 321 724 l 140 724 m 414 -14 q 133 74 224 -14 q 43 329 43 163 q 134 583 43 494 q 414 672 225 672 q 695 583 604 672 q 786 329 786 494 q 696 74 786 163 q 414 -14 606 -14 m 414 161 q 525 200 492 161 q 558 329 558 239 q 525 458 558 419 q 414 497 492 497 q 304 458 338 497 q 271 329 271 419 q 304 200 271 239 q 414 161 338 161 z "},"ö":{"ha":829,"x_min":43,"x_max":786,"o":"m 189 761 l 189 913 l 353 913 l 353 761 l 189 761 m 475 761 l 475 913 l 639 913 l 639 761 l 475 761 m 414 -14 q 133 74 224 -14 q 43 329 43 163 q 134 583 43 494 q 414 672 225 672 q 695 583 604 672 q 786 329 786 494 q 696 74 786 163 q 414 -14 606 -14 m 414 161 q 525 200 492 161 q 558 329 558 239 q 525 458 558 419 q 414 497 492 497 q 304 458 338 497 q 271 329 271 419 q 304 200 271 239 q 414 161 338 161 z "},"ọ":{"ha":829,"x_min":43,"x_max":786,"o":"m 414 -14 q 133 74 224 -14 q 43 329 43 163 q 134 583 43 494 q 414 672 225 672 q 695 583 604 672 q 786 329 786 494 q 696 74 786 163 q 414 -14 606 -14 m 414 161 q 525 200 492 161 q 558 329 558 239 q 525 458 558 419 q 414 497 492 497 q 304 458 338 497 q 271 329 271 419 q 304 200 271 239 q 414 161 338 161 m 332 -249 l 332 -97 l 496 -97 l 496 -249 l 332 -249 z "},"ò":{"ha":829,"x_min":43,"x_max":786,"o":"m 331 725 l 201 997 l 385 997 l 501 725 l 331 725 m 414 -14 q 133 74 224 -14 q 43 329 43 163 q 134 583 43 494 q 414 672 225 672 q 695 583 604 672 q 786 329 786 494 q 696 74 786 163 q 414 -14 606 -14 m 414 161 q 525 200 492 161 q 558 329 558 239 q 525 458 558 419 q 414 497 492 497 q 304 458 338 497 q 271 329 271 419 q 304 200 271 239 q 414 161 338 161 z "},"ỏ":{"ha":829,"x_min":43,"x_max":786,"o":"m 322 724 l 322 836 q 421 856 396 840 q 446 900 446 872 q 422 938 446 926 q 356 950 399 950 q 313 947 336 950 q 272 938 289 943 l 272 1038 q 421 1057 328 1057 q 561 1019 513 1057 q 610 919 610 981 q 581 830 610 860 q 492 785 553 800 l 492 724 l 322 724 m 414 -14 q 133 74 224 -14 q 43 329 43 163 q 134 583 43 494 q 414 672 225 672 q 695 583 604 672 q 786 329 786 494 q 696 74 786 163 q 414 -14 606 -14 m 414 161 q 525 200 492 161 q 558 329 558 239 q 525 458 558 419 q 414 497 492 497 q 304 458 338 497 q 271 329 271 419 q 304 200 271 239 q 414 161 338 161 z "},"ơ":{"ha":982,"x_min":43,"x_max":976,"o":"m 414 -14 q 133 74 224 -14 q 43 329 43 163 q 134 583 43 494 q 414 672 225 672 q 571 651 504 672 q 682 593 638 631 q 788 628 760 593 q 817 744 817 664 l 976 744 q 927 537 976 604 q 771 451 878 469 q 786 329 786 394 q 696 74 786 163 q 414 -14 606 -14 m 414 161 q 525 200 492 161 q 558 329 558 239 q 525 458 558 419 q 414 497 492 497 q 304 458 338 497 q 271 329 271 419 q 304 200 271 239 q 414 161 338 161 z "},"ớ":{"ha":982,"x_min":43,"x_max":976,"o":"m 322 725 l 439 997 l 622 997 l 494 725 l 322 725 m 414 -14 q 133 74 224 -14 q 43 329 43 163 q 134 583 43 494 q 414 672 225 672 q 571 651 504 672 q 682 593 638 631 q 788 628 760 593 q 817 744 817 664 l 976 744 q 927 537 976 604 q 771 451 878 469 q 786 329 786 394 q 696 74 786 163 q 414 -14 606 -14 m 414 161 q 525 200 492 161 q 558 329 558 239 q 525 458 558 419 q 414 497 492 497 q 304 458 338 497 q 271 329 271 419 q 304 200 271 239 q 414 161 338 161 z "},"ợ":{"ha":982,"x_min":43,"x_max":976,"o":"m 414 -14 q 133 74 224 -14 q 43 329 43 163 q 134 583 43 494 q 414 672 225 672 q 571 651 504 672 q 682 593 638 631 q 788 628 760 593 q 817 744 817 664 l 976 744 q 927 537 976 604 q 771 451 878 469 q 786 329 786 394 q 696 74 786 163 q 414 -14 606 -14 m 414 161 q 525 200 492 161 q 558 329 558 239 q 525 458 558 419 q 414 497 492 497 q 304 458 338 497 q 271 329 271 419 q 304 200 271 239 q 414 161 338 161 m 338 -249 l 338 -97 l 501 -97 l 501 -249 l 338 -249 z "},"ờ":{"ha":982,"x_min":43,"x_max":976,"o":"m 340 725 l 211 997 l 394 997 l 511 725 l 340 725 m 414 -14 q 133 74 224 -14 q 43 329 43 163 q 134 583 43 494 q 414 672 225 672 q 571 651 504 672 q 682 593 638 631 q 788 628 760 593 q 817 744 817 664 l 976 744 q 927 537 976 604 q 771 451 878 469 q 786 329 786 394 q 696 74 786 163 q 414 -14 606 -14 m 414 161 q 525 200 492 161 q 558 329 558 239 q 525 458 558 419 q 414 497 492 497 q 304 458 338 497 q 271 329 271 419 q 304 200 271 239 q 414 161 338 161 z "},"ở":{"ha":982,"x_min":43,"x_max":976,"o":"m 324 724 l 324 836 q 422 856 397 840 q 447 900 447 872 q 424 938 447 926 q 357 950 400 950 q 314 947 338 950 q 274 938 290 943 l 274 1038 q 422 1057 329 1057 q 563 1019 514 1057 q 611 919 611 981 q 583 830 611 860 q 493 785 554 800 l 493 724 l 324 724 m 414 -14 q 133 74 224 -14 q 43 329 43 163 q 134 583 43 494 q 414 672 225 672 q 571 651 504 672 q 682 593 638 631 q 788 628 760 593 q 817 744 817 664 l 976 744 q 927 537 976 604 q 771 451 878 469 q 786 329 786 394 q 696 74 786 163 q 414 -14 606 -14 m 414 161 q 525 200 492 161 q 558 329 558 239 q 525 458 558 419 q 414 497 492 497 q 304 458 338 497 q 271 329 271 419 q 304 200 271 239 q 414 161 338 161 z "},"ỡ":{"ha":982,"x_min":43,"x_max":976,"o":"m 546 733 q 462 748 503 733 q 383 776 421 763 q 308 790 344 790 q 235 776 268 790 q 178 738 203 763 l 178 886 q 231 918 197 906 q 304 931 265 931 q 388 917 349 931 q 464 888 426 903 q 542 874 501 874 q 614 888 583 874 q 663 928 644 903 l 663 778 q 617 747 649 760 q 546 733 586 733 m 414 -14 q 133 74 224 -14 q 43 329 43 163 q 134 583 43 494 q 414 672 225 672 q 571 651 504 672 q 682 593 638 631 q 788 628 760 593 q 817 744 817 664 l 976 744 q 927 537 976 604 q 771 451 878 469 q 786 329 786 394 q 696 74 786 163 q 414 -14 606 -14 m 414 161 q 525 200 492 161 q 558 329 558 239 q 525 458 558 419 q 414 497 492 497 q 304 458 338 497 q 271 329 271 419 q 304 200 271 239 q 414 161 338 161 z "},"ő":{"ha":829,"x_min":43,"x_max":786,"o":"m 142 724 l 256 974 l 449 974 l 314 724 l 142 724 m 463 724 l 576 974 l 769 974 l 635 724 l 463 724 m 414 -14 q 133 74 224 -14 q 43 329 43 163 q 134 583 43 494 q 414 672 225 672 q 695 583 604 672 q 786 329 786 494 q 696 74 786 163 q 414 -14 606 -14 m 414 161 q 525 200 492 161 q 558 329 558 239 q 525 458 558 419 q 414 497 492 497 q 304 458 338 497 q 271 329 271 419 q 304 200 271 239 q 414 161 338 161 z "},"ō":{"ha":829,"x_min":43,"x_max":786,"o":"m 189 774 l 189 908 l 631 908 l 631 774 l 189 774 m 414 -14 q 133 74 224 -14 q 43 329 43 163 q 134 583 43 494 q 414 672 225 672 q 695 583 604 672 q 786 329 786 494 q 696 74 786 163 q 414 -14 606 -14 m 414 161 q 525 200 492 161 q 558 329 558 239 q 525 458 558 419 q 414 497 492 497 q 304 458 338 497 q 271 329 271 419 q 304 200 271 239 q 414 161 338 161 z "},"ø":{"ha":829,"x_min":43,"x_max":786,"o":"m 196 -74 l 229 15 q 89 131 135 51 q 43 329 43 210 q 134 583 43 494 q 414 672 225 672 q 482 668 449 672 l 507 733 l 628 733 l 593 644 q 739 528 692 608 q 786 329 786 449 q 696 74 786 163 q 414 -14 606 -14 q 339 -10 375 -14 l 315 -74 l 196 -74 m 300 196 l 417 501 l 414 501 q 300 461 336 501 q 264 329 264 421 q 300 196 264 236 m 404 157 l 414 157 q 528 197 492 157 q 565 329 565 236 q 524 465 565 424 l 404 157 z "},"ǿ":{"ha":829,"x_min":43,"x_max":786,"o":"m 271 725 l 388 997 l 571 997 l 443 725 l 271 725 m 196 -74 l 229 15 q 89 131 135 51 q 43 329 43 210 q 134 583 43 494 q 414 672 225 672 q 482 668 449 672 l 507 733 l 628 733 l 593 644 q 739 528 692 608 q 786 329 786 449 q 696 74 786 163 q 414 -14 606 -14 q 339 -10 375 -14 l 315 -74 l 196 -74 m 300 196 l 417 501 l 414 501 q 300 461 336 501 q 264 329 264 421 q 300 196 264 236 m 404 157 l 414 157 q 528 197 492 157 q 565 329 565 236 q 524 465 565 424 l 404 157 z "},"õ":{"ha":829,"x_min":43,"x_max":786,"o":"m 540 756 q 456 770 497 756 q 377 799 415 785 q 303 813 339 813 q 230 799 263 813 q 172 760 197 785 l 172 908 q 226 940 192 928 q 299 953 260 953 q 382 939 343 953 q 458 910 421 925 q 536 896 496 896 q 608 910 578 896 q 657 950 639 925 l 657 800 q 612 769 643 782 q 540 756 581 756 m 414 -14 q 133 74 224 -14 q 43 329 43 163 q 134 583 43 494 q 414 672 225 672 q 695 583 604 672 q 786 329 786 494 q 696 74 786 163 q 414 -14 606 -14 m 414 161 q 525 200 492 161 q 558 329 558 239 q 525 458 558 419 q 414 497 492 497 q 304 458 338 497 q 271 329 271 419 q 304 200 271 239 q 414 161 338 161 z "},"œ":{"ha":1293,"x_min":43,"x_max":1250,"o":"m 414 -14 q 133 74 224 -14 q 43 329 43 163 q 134 583 43 494 q 414 672 225 672 q 681 596 588 672 q 783 653 724 633 q 921 672 843 672 q 1164 592 1078 672 q 1250 375 1250 511 l 1250 257 l 783 257 q 855 166 799 192 q 1008 140 911 140 q 1119 150 1063 140 q 1213 175 1175 160 l 1213 29 q 1100 -3 1165 7 q 957 -14 1035 -14 q 688 67 786 -14 q 414 -14 594 -14 m 783 386 l 1056 386 l 1056 415 q 1026 492 1056 464 q 928 521 997 521 q 815 488 847 521 q 783 386 783 456 m 414 161 q 525 200 492 161 q 558 329 558 239 q 525 458 558 419 q 414 497 492 497 q 304 458 338 497 q 271 329 271 419 q 304 200 271 239 q 414 161 338 161 z "},"p":{"ha":831,"x_min":71,"x_max":788,"o":"m 71 -300 l 71 658 l 265 658 l 276 601 q 367 653 317 635 q 483 672 417 672 q 706 597 624 672 q 788 343 788 521 q 703 76 788 167 q 472 -14 619 -14 q 294 29 368 -14 l 294 -300 l 71 -300 m 415 150 q 560 347 560 150 q 526 475 560 442 q 419 508 493 508 q 294 458 349 508 l 294 192 q 348 161 321 172 q 415 150 375 150 z "},"þ":{"ha":831,"x_min":71,"x_max":788,"o":"m 71 -300 l 71 972 l 294 972 l 294 628 q 378 661 331 650 q 476 672 425 672 q 704 590 621 672 q 788 329 788 507 q 703 69 788 153 q 472 -14 619 -14 q 294 29 368 -14 l 294 -300 l 71 -300 m 415 150 q 523 193 486 150 q 560 333 560 236 q 526 468 560 428 q 419 508 493 508 q 294 458 349 508 l 294 192 q 348 161 321 172 q 415 150 375 150 z "},"q":{"ha":832,"x_min":43,"x_max":882,"o":"m 743 -336 q 587 -286 638 -336 q 536 -131 536 -236 l 536 29 q 358 -14 463 -14 q 128 61 213 -14 q 43 313 43 136 q 85 512 43 432 q 197 632 126 592 q 350 672 267 672 q 465 653 417 672 q 554 601 513 635 l 567 658 l 760 658 l 760 -107 q 774 -158 760 -143 q 822 -172 788 -172 q 882 -161 853 -172 l 882 -312 q 822 -331 851 -325 q 743 -336 792 -336 m 414 150 q 483 161 454 150 q 536 192 511 172 l 536 458 q 481 496 510 483 q 414 508 451 508 q 271 317 271 508 q 308 185 271 219 q 414 150 344 150 z "},"r":{"ha":539,"x_min":71,"x_max":525,"o":"m 71 0 l 71 658 l 283 658 l 290 597 q 397 645 333 624 q 525 672 461 667 l 525 504 q 445 491 489 500 q 362 469 401 482 q 294 443 322 457 l 294 0 l 71 0 z "},"ŕ":{"ha":540,"x_min":71,"x_max":525,"o":"m 113 725 l 229 997 l 413 997 l 285 725 l 113 725 m 71 0 l 71 658 l 283 658 l 290 597 q 397 645 333 624 q 525 672 461 667 l 525 504 q 445 491 489 500 q 362 469 401 482 q 294 443 322 457 l 294 0 l 71 0 z "},"ř":{"ha":540,"x_min":18,"x_max":560,"o":"m 219 724 l 18 983 l 189 983 l 289 839 l 393 983 l 560 983 l 358 724 l 219 724 m 71 0 l 71 658 l 283 658 l 290 597 q 397 645 333 624 q 525 672 461 667 l 525 504 q 445 491 489 500 q 362 469 401 482 q 294 443 322 457 l 294 0 l 71 0 z "},"ŗ":{"ha":540,"x_min":47,"x_max":525,"o":"m 71 0 l 71 658 l 283 658 l 290 597 q 397 645 333 624 q 525 672 461 667 l 525 504 q 445 491 489 500 q 362 469 401 482 q 294 443 322 457 l 294 0 l 71 0 m 47 -347 l 93 -51 l 272 -51 l 199 -347 l 47 -347 z "},"ṛ":{"ha":540,"x_min":71,"x_max":525,"o":"m 71 0 l 71 658 l 283 658 l 290 597 q 397 645 333 624 q 525 672 461 667 l 525 504 q 445 491 489 500 q 362 469 401 482 q 294 443 322 457 l 294 0 l 71 0 m 92 -249 l 92 -97 l 256 -97 l 256 -249 l 92 -249 z "},"ṝ":{"ha":540,"x_min":11,"x_max":525,"o":"m 11 765 l 11 900 l 453 900 l 453 765 l 11 765 m 71 0 l 71 658 l 283 658 l 290 597 q 397 645 333 624 q 525 672 461 667 l 525 504 q 445 491 489 500 q 362 469 401 482 q 294 443 322 457 l 294 0 l 71 0 m 97 -249 l 97 -97 l 261 -97 l 261 -249 l 97 -249 z "},"ṟ":{"ha":540,"x_min":-31,"x_max":525,"o":"m 71 0 l 71 658 l 283 658 l 290 597 q 397 645 333 624 q 525 672 461 667 l 525 504 q 445 491 489 500 q 362 469 401 482 q 294 443 322 457 l 294 0 l 71 0 m -31 -231 l -31 -94 l 411 -94 l 411 -231 l -31 -231 z "},"s":{"ha":665,"x_min":43,"x_max":622,"o":"m 315 -14 q 165 -3 236 -14 q 53 25 94 8 l 53 196 q 165 164 101 175 q 279 153 229 153 q 366 158 339 153 q 393 189 393 164 q 349 231 393 217 q 226 271 304 244 q 90 345 136 303 q 43 471 43 388 q 116 620 43 568 q 349 672 189 672 q 472 663 411 672 q 572 640 533 653 l 572 472 q 483 499 533 490 q 393 507 433 507 q 306 501 342 507 q 271 471 271 494 q 310 434 271 444 q 422 400 349 424 q 543 349 500 376 q 604 285 586 322 q 622 190 622 247 q 544 39 622 92 q 315 -14 467 -14 z "},"ś":{"ha":665,"x_min":43,"x_max":622,"o":"m 225 725 l 342 997 l 525 997 l 397 725 l 225 725 m 315 -14 q 165 -3 236 -14 q 53 25 94 8 l 53 196 q 165 164 101 175 q 279 153 229 153 q 366 158 339 153 q 393 189 393 164 q 349 231 393 217 q 226 271 304 244 q 90 345 136 303 q 43 471 43 388 q 116 620 43 568 q 349 672 189 672 q 472 663 411 672 q 572 640 533 653 l 572 472 q 483 499 533 490 q 393 507 433 507 q 306 501 342 507 q 271 471 271 494 q 310 434 271 444 q 422 400 349 424 q 543 349 500 376 q 604 285 586 322 q 622 190 622 247 q 544 39 622 92 q 315 -14 467 -14 z "},"š":{"ha":665,"x_min":43,"x_max":622,"o":"m 272 724 l 71 983 l 242 983 l 342 839 l 446 983 l 613 983 l 411 724 l 272 724 m 315 -14 q 165 -3 236 -14 q 53 25 94 8 l 53 196 q 165 164 101 175 q 279 153 229 153 q 366 158 339 153 q 393 189 393 164 q 349 231 393 217 q 226 271 304 244 q 90 345 136 303 q 43 471 43 388 q 116 620 43 568 q 349 672 189 672 q 472 663 411 672 q 572 640 533 653 l 572 472 q 483 499 533 490 q 393 507 433 507 q 306 501 342 507 q 271 471 271 494 q 310 434 271 444 q 422 400 349 424 q 543 349 500 376 q 604 285 586 322 q 622 190 622 247 q 544 39 622 92 q 315 -14 467 -14 z "},"ş":{"ha":665,"x_min":43,"x_max":622,"o":"m 303 -333 q 244 -330 279 -333 q 193 -322 208 -326 l 193 -224 q 276 -235 233 -235 q 358 -226 333 -235 q 382 -186 382 -217 q 357 -147 382 -154 q 292 -139 332 -139 l 217 -139 l 253 -12 q 139 1 192 -8 q 53 25 86 11 l 53 196 q 165 164 101 175 q 279 153 229 153 q 366 158 339 153 q 393 189 393 164 q 349 231 393 217 q 226 271 304 244 q 90 345 136 303 q 43 471 43 388 q 116 620 43 568 q 349 672 189 672 q 472 663 411 672 q 572 640 533 653 l 572 472 q 483 499 533 490 q 393 507 433 507 q 306 501 342 507 q 271 471 271 494 q 310 434 271 444 q 422 400 349 424 q 543 349 500 376 q 604 285 586 322 q 622 190 622 247 q 386 -11 622 14 l 369 -60 q 484 -95 447 -60 q 521 -189 521 -131 q 467 -295 521 -257 q 303 -333 414 -333 z "},"ŝ":{"ha":665,"x_min":43,"x_max":622,"o":"m 58 725 l 260 985 l 399 985 l 600 725 l 433 725 l 329 869 l 229 725 l 58 725 m 315 -14 q 165 -3 236 -14 q 53 25 94 8 l 53 196 q 165 164 101 175 q 279 153 229 153 q 366 158 339 153 q 393 189 393 164 q 349 231 393 217 q 226 271 304 244 q 90 345 136 303 q 43 471 43 388 q 116 620 43 568 q 349 672 189 672 q 472 663 411 672 q 572 640 533 653 l 572 472 q 483 499 533 490 q 393 507 433 507 q 306 501 342 507 q 271 471 271 494 q 310 434 271 444 q 422 400 349 424 q 543 349 500 376 q 604 285 586 322 q 622 190 622 247 q 544 39 622 92 q 315 -14 467 -14 z "},"ș":{"ha":665,"x_min":43,"x_max":622,"o":"m 315 -14 q 165 -3 236 -14 q 53 25 94 8 l 53 196 q 165 164 101 175 q 279 153 229 153 q 366 158 339 153 q 393 189 393 164 q 349 231 393 217 q 226 271 304 244 q 90 345 136 303 q 43 471 43 388 q 116 620 43 568 q 349 672 189 672 q 472 663 411 672 q 572 640 533 653 l 572 472 q 483 499 533 490 q 393 507 433 507 q 306 501 342 507 q 271 471 271 494 q 310 434 271 444 q 422 400 349 424 q 543 349 500 376 q 604 285 586 322 q 622 190 622 247 q 544 39 622 92 q 315 -14 467 -14 m 208 -321 l 250 -62 l 435 -62 l 372 -321 l 208 -321 z "},"ṡ":{"ha":665,"x_min":43,"x_max":622,"o":"m 240 761 l 240 913 l 403 913 l 403 761 l 240 761 m 315 -14 q 165 -3 236 -14 q 53 25 94 8 l 53 196 q 165 164 101 175 q 279 153 229 153 q 366 158 339 153 q 393 189 393 164 q 349 231 393 217 q 226 271 304 244 q 90 345 136 303 q 43 471 43 388 q 116 620 43 568 q 349 672 189 672 q 472 663 411 672 q 572 640 533 653 l 572 472 q 483 499 533 490 q 393 507 433 507 q 306 501 342 507 q 271 471 271 494 q 310 434 271 444 q 422 400 349 424 q 543 349 500 376 q 604 285 586 322 q 622 190 622 247 q 544 39 622 92 q 315 -14 467 -14 z "},"ṣ":{"ha":665,"x_min":43,"x_max":622,"o":"m 315 -14 q 165 -3 236 -14 q 53 25 94 8 l 53 196 q 165 164 101 175 q 279 153 229 153 q 366 158 339 153 q 393 189 393 164 q 349 231 393 217 q 226 271 304 244 q 90 345 136 303 q 43 471 43 388 q 116 620 43 568 q 349 672 189 672 q 472 663 411 672 q 572 640 533 653 l 572 472 q 483 499 533 490 q 393 507 433 507 q 306 501 342 507 q 271 471 271 494 q 310 434 271 444 q 422 400 349 424 q 543 349 500 376 q 604 285 586 322 q 622 190 622 247 q 544 39 622 92 q 315 -14 467 -14 m 261 -249 l 261 -97 l 425 -97 l 425 -249 l 261 -249 z "},"ß":{"ha":889,"x_min":64,"x_max":846,"o":"m 550 -14 q 356 17 436 -14 l 356 196 q 423 176 385 183 q 499 169 461 169 q 586 197 554 169 q 618 275 618 224 q 586 361 618 336 q 485 386 554 386 l 390 386 l 390 549 l 475 549 q 561 578 536 549 q 586 667 586 608 q 574 724 586 699 q 532 765 563 750 q 443 781 501 781 q 326 742 365 781 q 288 614 288 703 l 288 0 l 64 0 l 64 622 q 110 808 64 729 q 241 929 157 886 q 439 972 325 972 q 647 929 564 972 q 772 817 731 886 q 814 671 814 749 q 786 547 814 599 q 714 469 758 494 q 810 394 775 447 q 846 263 846 340 q 769 60 846 133 q 550 -14 692 -14 z "},"t":{"ha":519,"x_min":15,"x_max":504,"o":"m 342 -14 q 162 49 219 -14 q 104 221 104 111 l 104 489 l 15 489 l 15 658 l 104 658 l 104 796 l 328 856 l 328 658 l 488 658 l 478 489 l 328 489 l 328 236 q 351 170 328 189 q 422 151 375 151 q 504 165 463 151 l 504 14 q 342 -14 439 -14 z "},"ŧ":{"ha":519,"x_min":15,"x_max":504,"o":"m 342 -14 q 162 49 219 -14 q 104 221 104 111 l 104 265 l 15 265 l 15 403 l 104 403 l 104 489 l 15 489 l 15 658 l 104 658 l 104 796 l 329 856 l 329 658 l 488 658 l 478 489 l 329 489 l 329 403 l 489 403 l 489 265 l 329 265 l 329 236 q 352 170 329 189 q 422 151 375 151 q 504 165 463 151 l 504 14 q 342 -14 439 -14 z "},"ť":{"ha":535,"x_min":15,"x_max":681,"o":"m 456 775 l 501 1071 l 681 1071 l 607 775 l 456 775 m 342 -14 q 162 49 219 -14 q 104 221 104 111 l 104 489 l 15 489 l 15 658 l 104 658 l 104 796 l 328 856 l 328 658 l 488 658 l 478 489 l 328 489 l 328 236 q 351 170 328 189 q 422 151 375 151 q 504 165 463 151 l 504 14 q 342 -14 439 -14 z "},"ţ":{"ha":540,"x_min":15,"x_max":536,"o":"m 318 -333 q 259 -330 294 -333 q 208 -322 224 -326 l 208 -224 q 292 -235 249 -235 q 373 -226 349 -235 q 397 -186 397 -217 q 372 -147 397 -154 q 307 -139 347 -139 l 232 -139 l 269 -7 q 144 69 185 10 q 104 221 104 129 l 104 489 l 15 489 l 15 658 l 104 658 l 104 796 l 328 856 l 328 658 l 488 658 l 478 489 l 328 489 l 328 236 q 351 170 328 189 q 422 151 375 151 q 504 165 463 151 l 504 14 q 401 -11 458 -6 l 385 -60 q 499 -95 463 -60 q 536 -189 536 -131 q 483 -295 536 -257 q 318 -333 429 -333 z "},"ț":{"ha":519,"x_min":15,"x_max":504,"o":"m 342 -14 q 162 49 219 -14 q 104 221 104 111 l 104 489 l 15 489 l 15 658 l 104 658 l 104 796 l 328 856 l 328 658 l 488 658 l 478 489 l 328 489 l 328 236 q 351 170 328 189 q 422 151 375 151 q 504 165 463 151 l 504 14 q 342 -14 439 -14 m 189 -358 l 235 -62 l 414 -62 l 340 -358 l 189 -358 z "},"ẗ":{"ha":521,"x_min":15,"x_max":504,"o":"m 24 892 l 24 1043 l 188 1043 l 188 892 l 24 892 m 310 892 l 310 1043 l 474 1043 l 474 892 l 310 892 m 342 -14 q 162 49 219 -14 q 104 221 104 111 l 104 489 l 15 489 l 15 658 l 104 658 l 104 796 l 328 856 l 328 658 l 488 658 l 478 489 l 328 489 l 328 236 q 351 170 328 189 q 422 151 375 151 q 504 165 463 151 l 504 14 q 342 -14 439 -14 z "},"ṭ":{"ha":519,"x_min":15,"x_max":504,"o":"m 342 -14 q 162 49 219 -14 q 104 221 104 111 l 104 489 l 15 489 l 15 658 l 104 658 l 104 796 l 328 856 l 328 658 l 488 658 l 478 489 l 328 489 l 328 236 q 351 170 328 189 q 422 151 375 151 q 504 165 463 151 l 504 14 q 342 -14 439 -14 m 217 -242 l 217 -90 l 381 -90 l 381 -242 l 217 -242 z "},"ṯ":{"ha":519,"x_min":15,"x_max":504,"o":"m 342 -14 q 162 49 219 -14 q 104 221 104 111 l 104 489 l 15 489 l 15 658 l 104 658 l 104 796 l 328 856 l 328 658 l 488 658 l 478 489 l 328 489 l 328 236 q 351 170 328 189 q 422 151 375 151 q 504 165 463 151 l 504 14 q 342 -14 439 -14 m 50 -224 l 50 -87 l 492 -87 l 492 -224 l 50 -224 z "},"u":{"ha":813,"x_min":50,"x_max":742,"o":"m 297 -14 q 115 52 181 -14 q 50 244 50 118 l 50 658 l 274 658 l 274 257 q 301 176 274 201 q 382 150 328 150 q 458 167 422 150 q 518 208 494 183 l 518 658 l 742 658 l 742 0 l 533 0 l 526 56 q 429 6 486 25 q 297 -14 372 -14 z "},"ú":{"ha":826,"x_min":64,"x_max":756,"o":"m 299 725 l 415 997 l 599 997 l 471 725 l 299 725 m 311 -14 q 129 52 194 -14 q 64 244 64 118 l 64 658 l 288 658 l 288 257 q 315 176 288 201 q 396 150 342 150 q 472 167 436 150 q 532 208 508 183 l 532 658 l 756 658 l 756 0 l 547 0 l 540 56 q 443 6 500 25 q 311 -14 386 -14 z "},"ŭ":{"ha":826,"x_min":64,"x_max":756,"o":"m 415 725 q 242 788 308 725 q 175 964 175 850 l 322 964 q 344 883 322 917 q 415 850 365 850 q 489 883 467 850 q 511 964 511 917 l 658 964 q 591 788 658 850 q 415 725 524 725 m 311 -14 q 129 52 194 -14 q 64 244 64 118 l 64 658 l 288 658 l 288 257 q 315 176 288 201 q 396 150 342 150 q 472 167 436 150 q 532 208 508 183 l 532 658 l 756 658 l 756 0 l 547 0 l 540 56 q 443 6 500 25 q 311 -14 386 -14 z "},"ǔ":{"ha":826,"x_min":64,"x_max":756,"o":"m 342 724 l 140 983 l 311 983 l 411 839 l 515 983 l 682 983 l 481 724 l 342 724 m 311 -14 q 129 52 194 -14 q 64 244 64 118 l 64 658 l 288 658 l 288 257 q 315 176 288 201 q 396 150 342 150 q 472 167 436 150 q 532 208 508 183 l 532 658 l 756 658 l 756 0 l 547 0 l 540 56 q 443 6 500 25 q 311 -14 386 -14 z "},"û":{"ha":826,"x_min":64,"x_max":756,"o":"m 138 724 l 339 983 l 478 983 l 679 724 l 513 724 l 408 868 l 308 724 l 138 724 m 311 -14 q 129 52 194 -14 q 64 244 64 118 l 64 658 l 288 658 l 288 257 q 315 176 288 201 q 396 150 342 150 q 472 167 436 150 q 532 208 508 183 l 532 658 l 756 658 l 756 0 l 547 0 l 540 56 q 443 6 500 25 q 311 -14 386 -14 z "},"ü":{"ha":826,"x_min":64,"x_max":756,"o":"m 185 761 l 185 913 l 349 913 l 349 761 l 185 761 m 471 761 l 471 913 l 635 913 l 635 761 l 471 761 m 311 -14 q 129 52 194 -14 q 64 244 64 118 l 64 658 l 288 658 l 288 257 q 315 176 288 201 q 396 150 342 150 q 472 167 436 150 q 532 208 508 183 l 532 658 l 756 658 l 756 0 l 547 0 l 540 56 q 443 6 500 25 q 311 -14 386 -14 z "},"ǘ":{"ha":826,"x_min":64,"x_max":756,"o":"m 319 911 l 400 1096 l 568 1096 l 474 911 l 319 911 m 176 736 l 176 879 l 335 879 l 335 736 l 176 736 m 465 736 l 465 879 l 624 879 l 624 736 l 465 736 m 311 -14 q 129 52 194 -14 q 64 244 64 118 l 64 658 l 288 658 l 288 257 q 315 176 288 201 q 396 150 342 150 q 472 167 436 150 q 532 208 508 183 l 532 658 l 756 658 l 756 0 l 547 0 l 540 56 q 443 6 500 25 q 311 -14 386 -14 z "},"ǚ":{"ha":826,"x_min":64,"x_max":756,"o":"m 336 899 l 169 1075 l 335 1075 l 414 974 l 494 1075 l 656 1075 l 490 899 l 336 899 m 188 726 l 188 869 l 346 869 l 346 726 l 188 726 m 476 726 l 476 869 l 635 869 l 635 726 l 476 726 m 311 -14 q 129 52 194 -14 q 64 244 64 118 l 64 658 l 288 658 l 288 257 q 315 176 288 201 q 396 150 342 150 q 472 167 436 150 q 532 208 508 183 l 532 658 l 756 658 l 756 0 l 547 0 l 540 56 q 443 6 500 25 q 311 -14 386 -14 z "},"ǜ":{"ha":826,"x_min":64,"x_max":756,"o":"m 342 911 l 247 1096 l 415 1096 l 496 911 l 342 911 m 192 736 l 192 879 l 350 879 l 350 736 l 192 736 m 481 736 l 481 879 l 639 879 l 639 736 l 481 736 m 311 -14 q 129 52 194 -14 q 64 244 64 118 l 64 658 l 288 658 l 288 257 q 315 176 288 201 q 396 150 342 150 q 472 167 436 150 q 532 208 508 183 l 532 658 l 756 658 l 756 0 l 547 0 l 540 56 q 443 6 500 25 q 311 -14 386 -14 z "},"ǖ":{"ha":826,"x_min":64,"x_max":756,"o":"m 192 950 l 192 1085 l 633 1085 l 633 950 l 192 950 m 188 736 l 188 888 l 351 888 l 351 736 l 188 736 m 474 736 l 474 888 l 638 888 l 638 736 l 474 736 m 311 -14 q 129 52 194 -14 q 64 244 64 118 l 64 658 l 288 658 l 288 257 q 315 176 288 201 q 396 150 342 150 q 472 167 436 150 q 532 208 508 183 l 532 658 l 756 658 l 756 0 l 547 0 l 540 56 q 443 6 500 25 q 311 -14 386 -14 z "},"ụ":{"ha":826,"x_min":64,"x_max":756,"o":"m 311 -14 q 129 52 194 -14 q 64 244 64 118 l 64 658 l 288 658 l 288 257 q 315 176 288 201 q 396 150 342 150 q 472 167 436 150 q 532 208 508 183 l 532 658 l 756 658 l 756 0 l 547 0 l 540 56 q 443 6 500 25 q 311 -14 386 -14 m 324 -249 l 324 -97 l 488 -97 l 488 -249 l 324 -249 z "},"ù":{"ha":826,"x_min":64,"x_max":756,"o":"m 346 725 l 217 997 l 400 997 l 517 725 l 346 725 m 311 -14 q 129 52 194 -14 q 64 244 64 118 l 64 658 l 288 658 l 288 257 q 315 176 288 201 q 396 150 342 150 q 472 167 436 150 q 532 208 508 183 l 532 658 l 756 658 l 756 0 l 547 0 l 540 56 q 443 6 500 25 q 311 -14 386 -14 z "},"ủ":{"ha":826,"x_min":64,"x_max":756,"o":"m 325 724 l 325 836 q 424 856 399 840 q 449 900 449 872 q 425 938 449 926 q 358 950 401 950 q 315 947 339 950 q 275 938 292 943 l 275 1038 q 424 1057 331 1057 q 564 1019 515 1057 q 613 919 613 981 q 584 830 613 860 q 494 785 556 800 l 494 724 l 325 724 m 311 -14 q 129 52 194 -14 q 64 244 64 118 l 64 658 l 288 658 l 288 257 q 315 176 288 201 q 396 150 342 150 q 472 167 436 150 q 532 208 508 183 l 532 658 l 756 658 l 756 0 l 547 0 l 540 56 q 443 6 500 25 q 311 -14 386 -14 z "},"ư":{"ha":1035,"x_min":64,"x_max":1022,"o":"m 311 -14 q 129 52 194 -14 q 64 244 64 118 l 64 658 l 288 658 l 288 257 q 315 176 288 201 q 396 150 342 150 q 472 167 436 150 q 531 208 507 183 l 531 658 l 756 658 l 756 594 q 840 635 817 600 q 863 744 863 671 l 1022 744 q 960 519 1022 586 q 756 446 897 453 l 756 0 l 546 0 l 539 56 q 442 6 499 25 q 311 -14 386 -14 z "},"ứ":{"ha":1035,"x_min":64,"x_max":1022,"o":"m 314 725 l 431 997 l 614 997 l 486 725 l 314 725 m 311 -14 q 129 52 194 -14 q 64 244 64 118 l 64 658 l 288 658 l 288 257 q 315 176 288 201 q 396 150 342 150 q 472 167 436 150 q 531 208 507 183 l 531 658 l 756 658 l 756 594 q 840 635 817 600 q 863 744 863 671 l 1022 744 q 960 519 1022 586 q 756 446 897 453 l 756 0 l 546 0 l 539 56 q 442 6 499 25 q 311 -14 386 -14 z "},"ự":{"ha":1035,"x_min":64,"x_max":1022,"o":"m 311 -14 q 129 52 194 -14 q 64 244 64 118 l 64 658 l 288 658 l 288 257 q 315 176 288 201 q 396 150 342 150 q 472 167 436 150 q 531 208 507 183 l 531 658 l 756 658 l 756 594 q 840 635 817 600 q 863 744 863 671 l 1022 744 q 960 519 1022 586 q 756 446 897 453 l 756 0 l 546 0 l 539 56 q 442 6 499 25 q 311 -14 386 -14 m 329 -249 l 329 -97 l 493 -97 l 493 -249 l 329 -249 z "},"ừ":{"ha":1035,"x_min":64,"x_max":1022,"o":"m 313 725 l 183 997 l 367 997 l 483 725 l 313 725 m 311 -14 q 129 52 194 -14 q 64 244 64 118 l 64 658 l 288 658 l 288 257 q 315 176 288 201 q 396 150 342 150 q 472 167 436 150 q 531 208 507 183 l 531 658 l 756 658 l 756 594 q 840 635 817 600 q 863 744 863 671 l 1022 744 q 960 519 1022 586 q 756 446 897 453 l 756 0 l 546 0 l 539 56 q 442 6 499 25 q 311 -14 386 -14 z "},"ử":{"ha":1035,"x_min":64,"x_max":1022,"o":"m 307 724 l 307 836 q 406 856 381 840 q 431 900 431 872 q 407 938 431 926 q 340 950 383 950 q 297 947 321 950 q 257 938 274 943 l 257 1038 q 406 1057 313 1057 q 546 1019 497 1057 q 594 919 594 981 q 566 830 594 860 q 476 785 538 800 l 476 724 l 307 724 m 311 -14 q 129 52 194 -14 q 64 244 64 118 l 64 658 l 288 658 l 288 257 q 315 176 288 201 q 396 150 342 150 q 472 167 436 150 q 531 208 507 183 l 531 658 l 756 658 l 756 594 q 840 635 817 600 q 863 744 863 671 l 1022 744 q 960 519 1022 586 q 756 446 897 453 l 756 0 l 546 0 l 539 56 q 442 6 499 25 q 311 -14 386 -14 z "},"ữ":{"ha":1035,"x_min":64,"x_max":1022,"o":"m 542 733 q 458 748 499 733 q 378 776 417 763 q 304 790 340 790 q 231 776 264 790 q 174 738 199 763 l 174 886 q 227 918 193 906 q 300 931 261 931 q 383 917 344 931 q 460 888 422 903 q 538 874 497 874 q 610 888 579 874 q 658 928 640 903 l 658 778 q 613 747 644 760 q 542 733 582 733 m 311 -14 q 129 52 194 -14 q 64 244 64 118 l 64 658 l 288 658 l 288 257 q 315 176 288 201 q 396 150 342 150 q 472 167 436 150 q 531 208 507 183 l 531 658 l 756 658 l 756 594 q 840 635 817 600 q 863 744 863 671 l 1022 744 q 960 519 1022 586 q 756 446 897 453 l 756 0 l 546 0 l 539 56 q 442 6 499 25 q 311 -14 386 -14 z "},"ű":{"ha":826,"x_min":64,"x_max":756,"o":"m 115 724 l 229 974 l 422 974 l 288 724 l 115 724 m 436 724 l 550 974 l 743 974 l 608 724 l 436 724 m 311 -14 q 129 52 194 -14 q 64 244 64 118 l 64 658 l 288 658 l 288 257 q 315 176 288 201 q 396 150 342 150 q 472 167 436 150 q 532 208 508 183 l 532 658 l 756 658 l 756 0 l 547 0 l 540 56 q 443 6 500 25 q 311 -14 386 -14 z "},"ū":{"ha":826,"x_min":64,"x_max":756,"o":"m 192 774 l 192 908 l 633 908 l 633 774 l 192 774 m 311 -14 q 129 52 194 -14 q 64 244 64 118 l 64 658 l 288 658 l 288 257 q 315 176 288 201 q 396 150 342 150 q 472 167 436 150 q 532 208 508 183 l 532 658 l 756 658 l 756 0 l 547 0 l 540 56 q 443 6 500 25 q 311 -14 386 -14 z "},"ų":{"ha":826,"x_min":64,"x_max":756,"o":"m 311 -14 q 129 52 194 -14 q 64 244 64 118 l 64 658 l 288 658 l 288 257 q 315 176 288 201 q 396 150 342 150 q 472 167 436 150 q 532 208 508 183 l 532 658 l 756 658 l 756 0 l 704 0 q 641 -63 665 -29 q 617 -135 617 -97 q 633 -175 617 -162 q 678 -187 650 -187 q 715 -183 696 -187 q 747 -172 735 -179 l 747 -285 q 692 -299 728 -293 q 617 -306 656 -306 q 496 -274 546 -306 q 446 -175 446 -243 q 473 -76 446 -122 q 547 0 500 -31 l 540 56 q 443 6 500 25 q 311 -14 386 -14 z "},"ů":{"ha":826,"x_min":64,"x_max":756,"o":"m 410 724 q 276 774 325 724 q 228 897 228 825 q 276 1022 228 971 q 410 1072 325 1072 q 545 1022 497 1072 q 593 897 593 971 q 545 774 593 825 q 410 724 497 724 m 410 821 q 469 843 449 821 q 490 897 490 865 q 469 952 490 929 q 410 975 449 975 q 352 952 374 975 q 331 897 331 929 q 352 843 331 865 q 410 821 374 821 m 311 -14 q 129 52 194 -14 q 64 244 64 118 l 64 658 l 288 658 l 288 257 q 315 176 288 201 q 396 150 342 150 q 472 167 436 150 q 532 208 508 183 l 532 658 l 756 658 l 756 0 l 547 0 l 540 56 q 443 6 500 25 q 311 -14 386 -14 z "},"ũ":{"ha":826,"x_min":64,"x_max":756,"o":"m 539 739 q 455 753 496 739 q 376 782 414 768 q 301 796 338 796 q 228 782 261 796 q 171 743 196 768 l 171 892 q 224 924 190 911 q 297 936 258 936 q 381 922 342 936 q 457 894 419 908 q 535 879 494 879 q 607 894 576 879 q 656 933 638 908 l 656 783 q 610 752 642 765 q 539 739 579 739 m 311 -14 q 129 52 194 -14 q 64 244 64 118 l 64 658 l 288 658 l 288 257 q 315 176 288 201 q 396 150 342 150 q 472 167 436 150 q 532 208 508 183 l 532 658 l 756 658 l 756 0 l 547 0 l 540 56 q 443 6 500 25 q 311 -14 386 -14 z "},"v":{"ha":843,"x_min":43,"x_max":800,"o":"m 303 0 l 43 658 l 276 658 l 421 231 l 567 658 l 800 658 l 540 0 l 303 0 z "},"w":{"ha":1069,"x_min":43,"x_max":1026,"o":"m 217 0 l 43 658 l 263 658 l 351 281 l 444 568 l 444 658 l 613 658 l 721 281 l 807 658 l 1026 658 l 853 0 l 650 0 l 538 342 l 422 0 l 217 0 z "},"ẃ":{"ha":1069,"x_min":43,"x_max":1026,"o":"m 439 725 l 556 997 l 739 997 l 611 725 l 439 725 m 217 0 l 43 658 l 263 658 l 351 281 l 444 568 l 444 658 l 613 658 l 721 281 l 807 658 l 1026 658 l 853 0 l 650 0 l 538 342 l 422 0 l 217 0 z "},"ŵ":{"ha":1069,"x_min":43,"x_max":1026,"o":"m 267 724 l 468 983 l 607 983 l 808 724 l 642 724 l 538 868 l 438 724 l 267 724 m 217 0 l 43 658 l 263 658 l 351 281 l 444 568 l 444 658 l 613 658 l 721 281 l 807 658 l 1026 658 l 853 0 l 650 0 l 538 342 l 422 0 l 217 0 z "},"ẅ":{"ha":1069,"x_min":43,"x_max":1026,"o":"m 313 763 l 313 914 l 476 914 l 476 763 l 313 763 m 599 763 l 599 914 l 763 914 l 763 763 l 599 763 m 217 0 l 43 658 l 263 658 l 351 281 l 444 568 l 444 658 l 613 658 l 721 281 l 807 658 l 1026 658 l 853 0 l 650 0 l 538 342 l 422 0 l 217 0 z "},"ẁ":{"ha":1069,"x_min":43,"x_max":1026,"o":"m 439 725 l 310 997 l 493 997 l 610 725 l 439 725 m 217 0 l 43 658 l 263 658 l 351 281 l 444 568 l 444 658 l 613 658 l 721 281 l 807 658 l 1026 658 l 853 0 l 650 0 l 538 342 l 422 0 l 217 0 z "},"x":{"ha":822,"x_min":36,"x_max":786,"o":"m 36 0 l 289 335 l 46 658 l 289 658 l 411 493 l 533 658 l 776 658 l 533 335 l 786 0 l 542 0 l 411 174 l 281 0 l 36 0 z "},"y":{"ha":871,"x_min":43,"x_max":856,"o":"m 267 -244 q 181 -240 217 -244 q 111 -221 146 -235 l 111 -65 q 155 -76 135 -74 q 196 -79 175 -79 q 281 -59 253 -79 q 339 13 310 -39 l 43 658 l 278 658 l 451 240 l 622 658 l 856 658 l 604 54 q 521 -103 567 -36 q 414 -208 475 -171 q 267 -244 353 -244 z "},"ý":{"ha":871,"x_min":43,"x_max":856,"o":"m 354 725 l 471 997 l 654 997 l 526 725 l 354 725 m 267 -244 q 181 -240 217 -244 q 111 -221 146 -235 l 111 -65 q 155 -76 135 -74 q 196 -79 175 -79 q 281 -59 253 -79 q 339 13 310 -39 l 43 658 l 278 658 l 451 240 l 622 658 l 856 658 l 604 54 q 521 -103 567 -36 q 414 -208 475 -171 q 267 -244 353 -244 z "},"ŷ":{"ha":871,"x_min":43,"x_max":856,"o":"m 181 724 l 382 983 l 521 983 l 722 724 l 556 724 l 451 868 l 351 724 l 181 724 m 267 -244 q 181 -240 217 -244 q 111 -221 146 -235 l 111 -65 q 155 -76 135 -74 q 196 -79 175 -79 q 281 -59 253 -79 q 339 13 310 -39 l 43 658 l 278 658 l 451 240 l 622 658 l 856 658 l 604 54 q 521 -103 567 -36 q 414 -208 475 -171 q 267 -244 353 -244 z "},"ÿ":{"ha":871,"x_min":43,"x_max":856,"o":"m 228 785 l 228 936 l 392 936 l 392 785 l 228 785 m 514 785 l 514 936 l 678 936 l 678 785 l 514 785 m 267 -244 q 181 -240 217 -244 q 111 -221 146 -235 l 111 -65 q 155 -76 135 -74 q 196 -79 175 -79 q 281 -59 253 -79 q 339 13 310 -39 l 43 658 l 278 658 l 451 240 l 622 658 l 856 658 l 604 54 q 521 -103 567 -36 q 414 -208 475 -171 q 267 -244 353 -244 z "},"ẏ":{"ha":871,"x_min":43,"x_max":856,"o":"m 369 763 l 369 914 l 532 914 l 532 763 l 369 763 m 267 -244 q 181 -240 217 -244 q 111 -221 146 -235 l 111 -65 q 155 -76 135 -74 q 196 -79 175 -79 q 281 -59 253 -79 q 339 13 310 -39 l 43 658 l 278 658 l 451 240 l 622 658 l 856 658 l 604 54 q 521 -103 567 -36 q 414 -208 475 -171 q 267 -244 353 -244 z "},"ỵ":{"ha":871,"x_min":43,"x_max":856,"o":"m 267 -244 q 181 -240 217 -244 q 111 -221 146 -235 l 111 -65 q 155 -76 135 -74 q 196 -79 175 -79 q 281 -59 253 -79 q 339 13 310 -39 l 43 658 l 278 658 l 451 240 l 622 658 l 856 658 l 604 54 q 521 -103 567 -36 q 414 -208 475 -171 q 267 -244 353 -244 m 597 -242 l 597 -90 l 761 -90 l 761 -242 l 597 -242 z "},"ỳ":{"ha":871,"x_min":43,"x_max":856,"o":"m 364 725 l 235 997 l 418 997 l 535 725 l 364 725 m 267 -244 q 181 -240 217 -244 q 111 -221 146 -235 l 111 -65 q 155 -76 135 -74 q 196 -79 175 -79 q 281 -59 253 -79 q 339 13 310 -39 l 43 658 l 278 658 l 451 240 l 622 658 l 856 658 l 604 54 q 521 -103 567 -36 q 414 -208 475 -171 q 267 -244 353 -244 z "},"ỷ":{"ha":871,"x_min":43,"x_max":856,"o":"m 367 724 l 367 836 q 465 856 440 840 q 490 900 490 872 q 467 938 490 926 q 400 950 443 950 q 357 947 381 950 q 317 938 333 943 l 317 1038 q 465 1057 372 1057 q 606 1019 557 1057 q 654 919 654 981 q 626 830 654 860 q 536 785 597 800 l 536 724 l 367 724 m 267 -244 q 181 -240 217 -244 q 111 -221 146 -235 l 111 -65 q 155 -76 135 -74 q 196 -79 175 -79 q 281 -59 253 -79 q 339 13 310 -39 l 43 658 l 278 658 l 451 240 l 622 658 l 856 658 l 604 54 q 521 -103 567 -36 q 414 -208 475 -171 q 267 -244 353 -244 z "},"ỹ":{"ha":871,"x_min":43,"x_max":856,"o":"m 576 739 q 492 753 533 739 q 413 782 451 768 q 339 796 375 796 q 266 782 299 796 q 208 743 233 768 l 208 892 q 262 924 228 911 q 335 936 296 936 q 418 922 379 936 q 494 894 457 908 q 572 879 532 879 q 644 894 614 879 q 693 933 675 908 l 693 783 q 648 752 679 765 q 576 739 617 739 m 267 -244 q 181 -240 217 -244 q 111 -221 146 -235 l 111 -65 q 155 -76 135 -74 q 196 -79 175 -79 q 281 -59 253 -79 q 339 13 310 -39 l 43 658 l 278 658 l 451 240 l 622 658 l 856 658 l 604 54 q 521 -103 567 -36 q 414 -208 475 -171 q 267 -244 353 -244 z "},"z":{"ha":683,"x_min":43,"x_max":640,"o":"m 43 0 l 43 119 l 347 481 l 54 481 l 54 658 l 631 658 l 631 528 l 333 172 l 640 172 l 640 0 l 43 0 z "},"ź":{"ha":683,"x_min":43,"x_max":640,"o":"m 249 725 l 365 997 l 549 997 l 421 725 l 249 725 m 43 0 l 43 119 l 347 481 l 54 481 l 54 658 l 631 658 l 631 528 l 333 172 l 640 172 l 640 0 l 43 0 z "},"ž":{"ha":683,"x_min":43,"x_max":640,"o":"m 267 724 l 65 983 l 236 983 l 336 839 l 440 983 l 607 983 l 406 724 l 267 724 m 43 0 l 43 119 l 347 481 l 54 481 l 54 658 l 631 658 l 631 528 l 333 172 l 640 172 l 640 0 l 43 0 z "},"ż":{"ha":683,"x_min":43,"x_max":640,"o":"m 265 761 l 265 913 l 428 913 l 428 761 l 265 761 m 43 0 l 43 119 l 347 481 l 54 481 l 54 658 l 631 658 l 631 528 l 333 172 l 640 172 l 640 0 l 43 0 z "},"ẓ":{"ha":683,"x_min":43,"x_max":640,"o":"m 43 0 l 43 119 l 347 481 l 54 481 l 54 658 l 631 658 l 631 528 l 333 172 l 640 172 l 640 0 l 43 0 m 253 -249 l 253 -97 l 417 -97 l 417 -249 l 253 -249 z "},"ﬁ":{"ha":783,"x_min":15,"x_max":713,"o":"m 103 0 l 103 489 l 15 489 l 15 658 l 103 658 l 103 710 q 137 838 103 781 q 236 928 171 894 q 394 963 301 963 q 579 935 508 963 l 579 776 q 530 790 563 785 q 471 794 497 794 q 358 772 390 794 q 326 704 326 750 l 326 658 l 713 658 l 713 0 l 489 0 l 489 489 l 326 489 l 326 0 l 103 0 z "},"ﬂ":{"ha":783,"x_min":15,"x_max":713,"o":"m 103 0 l 103 489 l 15 489 l 15 658 l 103 658 l 103 710 q 168 883 103 813 q 354 958 233 953 q 444 954 399 960 q 532 935 489 949 l 713 935 l 713 0 l 489 0 l 489 489 l 326 489 l 326 0 l 103 0 m 326 658 l 489 658 l 489 786 q 453 792 475 789 q 415 793 431 794 q 326 704 326 792 l 326 658 z "},"ª":{"ha":467,"x_min":43,"x_max":424,"o":"m 172 528 q 81 555 119 528 q 43 642 43 582 q 194 765 43 765 l 296 765 l 296 771 q 278 806 296 796 q 211 817 260 817 q 89 797 150 817 l 89 883 q 158 901 117 894 q 239 908 199 908 q 373 874 322 908 q 424 763 424 839 l 424 536 l 308 536 l 301 565 q 247 538 278 547 q 172 528 217 528 m 217 608 q 261 617 240 608 q 296 646 282 626 l 296 689 l 225 689 q 179 681 194 689 q 164 647 164 672 q 178 617 164 625 q 217 608 192 608 z "},"º":{"ha":500,"x_min":43,"x_max":457,"o":"m 249 528 q 43 718 43 528 q 249 908 43 908 q 457 718 457 908 q 249 528 457 528 m 249 624 q 306 647 289 624 q 324 718 324 669 q 306 789 324 767 q 249 811 289 811 q 192 789 210 811 q 175 718 175 767 q 192 647 175 669 q 249 624 210 624 z "},"ⁿ":{"ha":486,"x_min":50,"x_max":443,"o":"m 50 536 l 50 900 l 171 900 l 174 869 q 314 907 231 907 q 409 873 375 907 q 443 774 443 839 l 443 536 l 314 536 l 314 753 q 301 796 314 783 q 258 808 289 808 q 217 800 240 808 q 179 778 193 792 l 179 536 l 50 536 z "},"Δ":{"ha":889,"x_min":43,"x_max":846,"o":"m 43 0 l 43 119 l 349 894 l 538 894 l 846 118 l 846 0 l 43 0 m 256 171 l 628 171 l 443 640 l 256 171 z "},"Ω":{"ha":1044,"x_min":43,"x_max":1001,"o":"m 53 0 l 53 169 l 211 169 q 86 311 129 226 q 43 510 43 396 q 99 749 43 647 q 263 908 156 851 q 522 965 369 965 q 782 908 675 965 q 945 749 889 851 q 1001 510 1001 647 q 958 311 1001 396 q 833 169 915 226 l 992 169 l 992 0 l 579 0 l 579 175 q 727 313 681 233 q 774 496 774 392 q 707 698 774 622 q 522 774 640 774 q 338 698 404 774 q 271 496 271 622 q 317 313 271 392 q 465 175 364 233 l 465 0 l 53 0 z "},"μ":{"ha":833,"x_min":71,"x_max":763,"o":"m 71 -199 l 71 658 l 294 658 l 294 257 q 322 176 294 201 q 403 150 349 150 q 479 167 443 150 q 539 208 515 183 l 539 658 l 763 658 l 763 0 l 554 0 l 547 56 q 464 6 513 25 q 350 -14 415 -14 q 294 -4 319 -14 l 294 -199 l 71 -199 z "},"π":{"ha":949,"x_min":29,"x_max":924,"o":"m 765 -14 q 583 52 642 -14 q 525 239 525 118 l 525 486 l 340 486 l 340 0 l 117 0 l 117 486 l 29 486 l 29 658 l 835 658 l 835 486 l 749 486 l 749 253 q 772 186 749 206 q 842 167 794 167 q 924 181 882 167 l 924 14 q 854 -7 892 0 q 765 -14 817 -14 z "},"ก":{"ha":871,"x_min":43,"x_max":796,"o":"m 72 0 l 72 238 q 94 344 72 296 q 176 411 117 392 l 43 449 l 43 638 q 200 724 103 685 q 422 764 297 764 q 702 688 608 764 q 796 451 796 613 l 796 0 l 572 0 l 572 450 q 534 563 572 529 q 410 596 496 596 q 309 581 356 596 q 235 542 263 565 l 235 526 l 385 483 l 385 365 q 315 322 335 351 q 296 235 296 293 l 296 0 l 72 0 z "},"ข":{"ha":840,"x_min":40,"x_max":765,"o":"m 410 -14 q 149 63 240 -14 q 57 275 57 140 l 57 317 q 74 397 57 361 q 111 460 90 432 q 149 510 132 488 q 165 554 165 533 q 156 581 165 574 q 122 589 146 589 l 40 589 l 58 750 l 275 750 q 369 721 340 750 q 397 633 397 692 q 380 549 397 586 q 339 478 363 511 q 298 409 315 444 q 281 331 281 374 l 281 269 q 410 154 281 154 q 542 276 542 154 l 542 750 l 765 750 l 765 279 q 670 64 765 142 q 410 -14 575 -14 z "},"ฃ":{"ha":842,"x_min":39,"x_max":767,"o":"m 411 -14 q 151 55 243 -14 q 60 258 60 124 l 60 278 q 84 368 60 325 q 140 449 108 411 q 197 516 172 486 q 221 567 221 546 q 199 593 221 593 q 167 578 179 593 l 167 522 l 39 522 l 39 750 l 176 750 l 176 711 q 227 738 197 726 q 297 750 257 750 q 421 629 421 750 q 400 531 421 574 q 352 453 379 489 q 304 382 325 417 q 283 306 283 347 l 283 272 q 411 154 283 154 q 543 276 543 154 l 543 750 l 767 750 l 767 279 q 672 64 767 142 q 411 -14 576 -14 z "},"ค":{"ha":882,"x_min":71,"x_max":807,"o":"m 71 0 l 71 454 q 163 683 71 603 q 439 764 254 764 q 715 683 624 764 q 807 454 807 603 l 807 0 l 583 0 l 583 463 q 546 560 583 525 q 439 596 508 596 q 331 561 367 596 q 294 463 294 526 l 294 356 q 411 392 344 392 l 493 392 l 499 215 l 408 215 q 294 183 342 215 l 294 0 l 71 0 z "},"ฅ":{"ha":882,"x_min":71,"x_max":807,"o":"m 71 0 l 71 538 q 119 702 71 640 q 271 764 168 764 q 361 748 317 764 q 438 693 406 732 q 518 748 469 732 q 613 764 567 764 q 761 705 715 764 q 807 538 807 646 l 807 0 l 583 0 l 583 526 q 574 578 583 560 q 533 596 564 596 q 497 583 511 596 q 474 551 483 571 l 404 551 q 386 583 397 571 q 353 596 375 596 q 294 526 294 596 l 294 356 q 411 392 342 392 l 493 392 l 499 215 l 407 215 q 294 183 342 215 l 294 0 l 71 0 z "},"ฆ":{"ha":865,"x_min":47,"x_max":790,"o":"m 528 -14 q 391 8 451 -14 q 283 65 331 29 l 275 0 l 68 0 l 68 269 q 92 365 68 319 q 149 448 117 410 q 205 516 181 486 q 229 567 229 546 q 207 593 229 593 q 175 578 188 593 l 175 522 l 47 522 l 47 750 l 185 750 l 185 711 q 235 738 206 726 q 306 750 265 750 q 429 629 429 750 q 408 524 429 569 q 360 438 388 478 q 313 358 333 399 q 292 268 292 317 l 292 219 q 360 174 317 193 q 449 154 403 154 q 538 183 508 154 q 567 276 567 213 l 567 750 l 790 750 l 790 257 q 719 57 790 128 q 528 -14 647 -14 z "},"ง":{"ha":793,"x_min":15,"x_max":768,"o":"m 390 -14 q 303 -8 351 -14 q 221 10 256 -3 l 15 515 l 233 515 l 383 147 q 546 397 546 156 q 512 542 546 504 q 393 581 478 581 l 338 581 l 338 750 l 432 750 q 768 397 768 750 q 720 162 768 253 q 587 28 672 71 q 390 -14 501 -14 z "},"จ":{"ha":789,"x_min":36,"x_max":746,"o":"m 385 -14 q 303 -7 346 -14 q 235 10 260 0 l 142 261 l 36 261 l 44 431 l 272 431 l 376 153 q 485 212 447 157 q 524 381 524 267 q 502 508 524 461 q 430 576 481 556 q 292 596 379 596 q 172 586 236 596 q 50 560 108 576 l 50 718 q 191 751 113 738 q 349 764 269 764 q 655 665 564 764 q 746 381 746 567 q 694 163 746 251 q 561 31 643 75 q 385 -14 479 -14 z "},"ฉ":{"ha":835,"x_min":43,"x_max":760,"o":"m 296 -14 q 116 51 182 -14 q 50 244 50 117 l 50 417 l 274 417 l 274 278 q 300 186 274 218 q 388 154 326 154 q 473 172 436 154 q 536 221 510 190 l 536 426 q 489 559 536 522 q 319 596 442 596 q 232 590 282 596 q 132 576 182 585 q 43 556 82 567 l 43 714 q 201 751 111 738 q 376 764 290 764 q 671 678 582 764 q 760 425 760 593 l 760 0 l 553 0 l 544 67 q 439 9 500 32 q 296 -14 378 -14 z "},"ช":{"ha":842,"x_min":42,"x_max":767,"o":"m 411 -14 q 150 63 242 -14 q 58 275 58 140 l 58 317 q 75 397 58 361 q 113 460 92 432 q 150 510 133 488 q 167 554 167 533 q 157 581 167 574 q 124 589 147 589 l 42 589 l 60 750 l 275 750 q 369 721 340 750 q 397 633 397 692 q 380 549 397 586 q 340 478 363 511 q 299 409 317 444 q 282 331 282 374 l 282 269 q 411 154 282 154 q 543 276 543 154 l 543 354 q 525 421 543 401 q 469 440 507 440 l 438 440 l 450 596 l 467 596 q 524 617 507 596 q 542 689 542 638 l 542 764 l 767 764 l 767 696 q 747 588 767 631 q 674 519 728 546 q 749 450 731 492 q 767 347 767 408 l 767 279 q 672 64 767 142 q 411 -14 576 -14 z "},"ซ":{"ha":843,"x_min":40,"x_max":768,"o":"m 413 -14 q 153 56 244 -14 q 61 254 61 125 l 61 282 q 85 372 61 329 q 142 451 110 414 q 198 517 174 488 q 222 567 222 546 q 200 593 222 593 q 168 578 181 593 l 168 522 l 40 522 l 40 750 l 178 750 l 178 711 q 228 738 199 726 q 299 750 258 750 q 390 718 360 750 q 419 629 419 686 q 399 531 419 574 q 352 451 379 488 q 305 380 325 415 q 285 303 285 344 l 285 269 q 413 154 285 154 q 544 276 544 154 l 544 354 q 526 421 544 401 q 471 440 508 440 l 439 440 l 451 596 l 468 596 q 526 617 508 596 q 543 689 543 638 l 543 764 l 768 764 l 768 696 q 749 588 768 631 q 675 519 729 546 q 750 450 732 492 q 768 347 768 408 l 768 279 q 673 64 768 142 q 413 -14 578 -14 z "},"ฌ":{"ha":1331,"x_min":43,"x_max":1256,"o":"m 1001 -14 q 869 8 925 -14 q 767 65 814 29 l 757 0 l 554 0 l 554 450 q 520 563 554 529 q 404 596 486 596 q 306 581 350 596 q 235 542 263 565 l 235 526 l 385 483 l 385 365 q 315 324 335 351 q 296 243 296 297 l 296 204 q 343 157 296 157 l 408 157 l 408 0 l 217 0 q 112 41 151 0 q 72 146 72 82 l 72 238 q 94 344 72 296 q 176 411 117 392 l 43 449 l 43 638 q 197 724 103 685 q 417 764 292 764 q 687 688 599 764 q 775 451 775 613 l 775 219 q 840 174 800 193 q 922 154 879 154 q 1006 183 981 154 q 1032 276 1032 213 l 1032 750 l 1256 750 l 1256 257 q 1188 57 1256 128 q 1001 -14 1121 -14 z "},"ญ":{"ha":1351,"x_min":43,"x_max":1276,"o":"m 931 -112 q 836 -106 888 -112 q 734 -87 785 -100 q 643 -53 683 -74 l 643 106 q 736 72 685 85 q 838 52 788 58 q 924 46 888 46 q 1058 64 1018 46 q 1099 114 1099 82 q 1082 150 1099 138 q 914 125 1010 125 q 650 198 746 125 q 554 435 554 271 l 554 450 q 520 563 554 529 q 404 596 486 596 q 306 581 350 596 q 235 542 263 565 l 235 526 l 385 483 l 385 365 q 315 324 335 351 q 296 243 296 297 l 296 204 q 343 157 296 157 l 408 157 l 408 0 l 217 0 q 112 41 151 0 q 72 146 72 82 l 72 238 q 94 344 72 296 q 176 411 117 392 l 43 449 l 43 638 q 197 724 103 685 q 417 764 292 764 q 687 688 599 764 q 775 451 775 613 l 775 428 q 808 322 775 350 q 914 293 842 293 q 1020 329 988 293 q 1053 442 1053 365 l 1053 750 l 1276 750 l 1276 449 q 1213 239 1276 319 q 1254 179 1236 217 q 1272 99 1272 142 q 1181 -60 1272 -7 q 931 -112 1089 -112 z "},"ฎ":{"ha":917,"x_min":50,"x_max":842,"o":"m 217 -275 l 217 -107 q 324 -73 267 -85 q 451 -61 381 -61 q 545 -69 500 -61 q 617 -90 590 -78 l 617 450 q 581 563 617 529 q 463 596 544 596 q 363 581 408 596 q 288 542 317 565 l 288 526 l 438 483 l 438 365 q 377 323 390 350 q 364 239 364 296 l 364 175 q 318 42 364 85 q 189 0 272 0 l 50 0 l 50 157 l 90 157 q 125 168 115 157 q 135 204 135 179 l 135 243 q 153 345 135 301 q 231 411 171 389 l 96 449 l 96 638 q 253 724 157 685 q 475 764 350 764 q 749 688 657 764 q 842 451 842 611 l 842 -269 l 628 -269 q 432 -229 551 -229 q 319 -242 378 -229 q 217 -275 260 -256 z "},"ฏ":{"ha":917,"x_min":50,"x_max":842,"o":"m 608 -274 q 502 -255 549 -274 q 429 -208 456 -236 q 378 -253 411 -236 q 293 -269 346 -269 l 157 -269 l 168 -106 l 258 -106 q 317 -92 297 -106 q 347 -49 336 -79 l 485 -49 q 508 -93 492 -76 q 554 -110 524 -110 q 617 -46 617 -110 l 617 450 q 581 563 617 529 q 463 596 544 596 q 363 581 408 596 q 288 542 317 565 l 288 526 l 438 483 l 438 365 q 377 323 390 350 q 364 239 364 296 l 364 175 q 318 42 364 85 q 189 0 272 0 l 50 0 l 50 157 l 90 157 q 125 168 115 157 q 135 204 135 179 l 135 243 q 153 345 135 301 q 231 411 171 389 l 96 449 l 96 638 q 253 724 157 685 q 475 764 350 764 q 749 688 657 764 q 842 451 842 611 l 842 -50 q 781 -212 842 -151 q 608 -274 719 -274 z "},"ฐ":{"ha":847,"x_min":36,"x_max":815,"o":"m 385 -14 q 303 -7 346 -14 q 235 10 260 0 l 142 261 l 36 261 l 44 431 l 272 431 l 376 153 q 485 212 447 157 q 524 381 524 267 q 502 508 524 461 q 430 576 481 556 q 292 596 379 596 q 172 586 236 596 q 50 560 108 576 l 50 718 q 191 751 113 738 q 349 764 269 764 q 425 760 389 764 q 492 750 461 757 l 815 750 l 804 583 l 699 583 q 734 493 722 543 q 746 381 746 443 q 694 163 746 251 q 561 31 643 75 q 385 -14 479 -14 m 493 -296 q 385 -277 431 -296 q 314 -229 340 -258 q 264 -275 296 -257 q 179 -293 232 -293 l 58 -293 l 69 -133 l 150 -133 q 209 -119 189 -133 q 239 -74 229 -104 l 381 -74 q 407 -121 388 -104 q 461 -137 426 -137 q 536 -74 536 -137 l 536 -43 l 715 -43 l 715 -74 q 660 -235 715 -174 q 493 -296 606 -296 z "},"ฑ":{"ha":861,"x_min":40,"x_max":786,"o":"m 97 0 l 97 256 q 116 349 97 304 q 160 433 135 393 q 203 507 185 474 q 222 567 222 540 q 200 593 222 593 q 168 578 181 593 l 168 522 l 40 522 l 40 750 l 178 750 l 178 711 q 225 738 199 726 q 290 750 251 750 q 382 711 347 750 q 457 749 413 733 q 550 764 501 764 q 728 699 671 764 q 786 507 786 635 l 786 0 l 563 0 l 563 503 q 547 573 563 551 q 489 594 532 594 q 451 586 471 594 q 417 567 431 578 q 402 488 417 524 q 369 417 388 451 q 335 342 350 382 q 321 251 321 303 l 321 0 l 97 0 z "},"ฒ":{"ha":1376,"x_min":43,"x_max":1301,"o":"m 363 -14 q 197 24 269 -14 q 84 142 125 61 q 43 354 43 224 q 110 660 43 556 q 300 764 176 764 q 392 744 357 764 q 453 693 428 725 q 531 744 483 725 q 628 764 578 764 q 778 703 735 764 q 821 549 821 643 l 821 219 q 885 174 846 193 q 968 154 925 154 q 1052 183 1026 154 q 1078 276 1078 213 l 1078 750 l 1301 750 l 1301 257 q 1234 57 1301 128 q 1047 -14 1167 -14 q 915 8 971 -14 q 813 65 860 29 l 803 0 l 601 0 l 601 508 q 592 574 601 551 q 551 596 583 596 q 490 542 506 596 l 407 542 q 383 582 394 568 q 346 596 371 596 q 294 564 311 596 q 271 477 276 532 q 265 354 265 422 q 301 199 265 243 q 410 154 338 154 q 458 157 433 154 q 500 165 482 160 l 500 8 q 440 -8 474 -1 q 363 -14 407 -14 z "},"ณ":{"ha":1336,"x_min":43,"x_max":1261,"o":"m 810 -14 q 624 57 692 -14 q 556 257 556 128 l 556 450 q 521 563 556 529 q 404 596 486 596 q 306 581 350 596 q 235 542 263 565 l 235 526 l 385 483 l 385 365 q 315 324 335 351 q 296 243 296 297 l 296 204 q 343 157 296 157 l 408 157 l 408 0 l 217 0 q 112 41 151 0 q 72 146 72 82 l 72 238 q 94 344 72 296 q 176 411 117 392 l 43 449 l 43 638 q 197 724 103 685 q 417 764 292 764 q 687 688 599 764 q 775 451 775 613 l 775 276 q 802 183 775 213 q 888 154 829 154 q 972 174 932 154 q 1036 219 1011 193 l 1036 750 l 1261 750 l 1261 0 l 1054 0 l 1044 65 q 942 7 999 28 q 810 -14 886 -14 z "},"ด":{"ha":913,"x_min":43,"x_max":838,"o":"m 363 -14 q 197 24 269 -14 q 84 142 125 61 q 43 354 43 224 q 144 657 43 550 q 450 764 246 764 q 673 719 588 764 q 798 605 758 675 q 838 454 838 535 l 838 0 l 613 0 l 613 436 q 578 552 613 508 q 446 596 544 596 q 310 537 354 596 q 265 354 265 478 q 301 199 265 243 q 410 154 338 154 q 458 157 433 154 q 500 165 482 160 l 500 8 q 440 -8 474 -1 q 363 -14 407 -14 z "},"ต":{"ha":917,"x_min":43,"x_max":842,"o":"m 363 -14 q 197 24 269 -14 q 84 142 125 61 q 43 354 43 224 q 113 660 43 556 q 308 764 182 764 q 401 744 365 764 q 463 693 438 725 q 542 744 493 725 q 643 764 592 764 q 795 703 749 764 q 842 549 842 643 l 842 0 l 617 0 l 617 508 q 606 574 617 551 q 563 596 594 596 q 500 542 515 596 l 417 542 q 392 582 404 568 q 354 596 379 596 q 299 564 318 596 q 272 477 279 532 q 265 354 265 422 q 301 199 265 243 q 410 154 338 154 q 458 157 433 154 q 500 165 482 160 l 500 8 q 440 -8 474 -1 q 363 -14 407 -14 z "},"ถ":{"ha":871,"x_min":43,"x_max":796,"o":"m 217 0 q 112 41 151 0 q 72 146 72 82 l 72 238 q 94 344 72 296 q 176 411 117 392 l 43 449 l 43 638 q 200 724 103 685 q 422 764 297 764 q 702 688 608 764 q 796 451 796 613 l 796 0 l 572 0 l 572 450 q 534 563 572 529 q 410 596 496 596 q 309 581 356 596 q 235 542 263 565 l 235 526 l 385 483 l 385 365 q 315 324 335 351 q 296 243 296 297 l 296 204 q 343 157 296 157 l 408 157 l 408 0 l 217 0 z "},"ท":{"ha":868,"x_min":71,"x_max":793,"o":"m 71 0 l 71 750 l 278 750 l 286 683 q 397 742 333 719 q 536 764 460 764 q 724 693 654 764 q 793 496 793 622 l 793 0 l 568 0 l 568 476 q 540 567 568 539 q 451 594 511 594 q 363 576 406 594 q 294 529 319 557 l 294 0 l 71 0 z "},"ธ":{"ha":756,"x_min":43,"x_max":713,"o":"m 385 -14 q 201 3 288 -14 q 56 46 114 21 l 56 317 l 256 317 l 256 168 q 309 155 276 160 q 372 150 342 150 q 472 169 438 150 q 506 235 506 188 q 478 290 506 271 q 399 322 450 308 q 275 351 347 335 q 156 390 208 368 q 73 450 103 413 q 43 550 43 488 q 128 708 43 651 q 390 764 214 764 q 556 753 479 764 q 672 729 632 743 l 672 560 q 557 589 626 579 q 426 599 488 599 q 349 596 388 599 q 286 583 311 593 q 261 551 261 574 q 294 513 261 526 q 378 490 326 500 q 488 463 431 479 q 610 417 560 443 q 686 349 660 392 q 713 233 713 306 q 625 49 713 113 q 385 -14 538 -14 z "},"น":{"ha":868,"x_min":71,"x_max":793,"o":"m 331 -14 q 142 57 213 -14 q 71 257 71 128 l 71 750 l 294 750 l 294 276 q 324 183 294 213 q 413 154 353 154 q 501 174 458 154 q 568 219 543 193 l 568 750 l 793 750 l 793 0 l 586 0 l 576 65 q 468 8 529 29 q 331 -14 407 -14 z "},"บ":{"ha":888,"x_min":71,"x_max":813,"o":"m 442 -14 q 172 66 272 -14 q 71 310 71 146 l 71 750 l 294 750 l 294 303 q 331 190 294 226 q 442 154 367 154 q 551 190 515 154 q 588 303 588 226 l 588 750 l 813 750 l 813 310 q 712 66 813 146 q 442 -14 611 -14 z "},"ป":{"ha":888,"x_min":71,"x_max":813,"o":"m 442 -14 q 172 66 272 -14 q 71 310 71 146 l 71 750 l 294 750 l 294 303 q 331 190 294 226 q 442 154 367 154 q 551 190 515 154 q 588 303 588 226 l 588 972 l 813 972 l 813 310 q 712 66 813 146 q 442 -14 611 -14 z "},"ผ":{"ha":903,"x_min":71,"x_max":828,"o":"m 71 0 l 71 611 q 101 710 71 671 q 194 750 132 750 l 388 750 l 396 593 l 328 593 q 274 536 274 593 l 274 282 l 411 521 l 489 521 l 625 282 l 625 750 l 828 750 l 828 0 l 624 0 l 450 315 l 275 0 l 71 0 z "},"ฝ":{"ha":903,"x_min":71,"x_max":828,"o":"m 71 0 l 71 611 q 101 710 71 671 q 194 750 132 750 l 388 750 l 396 593 l 328 593 q 274 536 274 593 l 274 282 l 411 521 l 489 521 l 625 282 l 625 972 l 828 972 l 828 0 l 624 0 l 450 315 l 275 0 l 71 0 z "},"พ":{"ha":1017,"x_min":29,"x_max":988,"o":"m 192 0 l 29 750 l 236 750 l 314 307 l 421 618 l 421 750 l 576 750 l 706 307 l 782 750 l 988 750 l 824 0 l 635 0 l 513 397 l 381 0 l 192 0 z "},"ฟ":{"ha":1017,"x_min":29,"x_max":1021,"o":"m 192 0 l 29 750 l 236 750 l 314 307 l 421 618 l 421 750 l 576 750 l 706 307 l 815 972 l 1021 972 l 824 0 l 635 0 l 513 397 l 381 0 l 192 0 z "},"ภ":{"ha":917,"x_min":50,"x_max":842,"o":"m 50 0 l 50 157 l 90 157 q 125 168 115 157 q 135 204 135 179 l 135 243 q 153 345 135 301 q 231 411 171 389 l 96 449 l 96 638 q 253 724 157 685 q 475 764 350 764 q 749 688 657 764 q 842 451 842 611 l 842 0 l 617 0 l 617 450 q 581 563 617 529 q 463 596 544 596 q 363 581 408 596 q 288 542 317 565 l 288 526 l 438 483 l 438 365 q 377 323 390 350 q 364 239 364 296 l 364 175 q 318 42 364 85 q 189 0 272 0 l 50 0 z "},"ม":{"ha":868,"x_min":71,"x_max":793,"o":"m 531 -14 q 394 8 454 -14 q 286 65 333 29 l 278 0 l 71 0 l 71 750 l 294 750 l 294 219 q 363 174 319 193 q 451 154 406 154 q 540 183 511 154 q 568 276 568 213 l 568 750 l 793 750 l 793 257 q 722 57 793 128 q 531 -14 650 -14 z "},"ย":{"ha":864,"x_min":42,"x_max":789,"o":"m 417 -14 q 222 12 307 -14 q 90 92 138 38 q 42 233 42 146 q 63 322 42 282 q 128 389 85 363 q 68 447 92 408 q 44 540 44 486 q 117 708 44 651 q 307 764 189 764 q 385 758 351 764 q 444 743 419 753 l 444 585 q 356 596 407 596 q 290 582 313 596 q 267 532 267 568 q 291 479 267 493 q 361 465 315 465 l 435 465 l 443 313 l 360 313 q 264 233 264 313 q 298 174 264 194 q 411 154 332 154 q 564 278 564 154 l 564 750 l 789 750 l 789 292 q 692 59 789 132 q 417 -14 594 -14 z "},"ร":{"ha":699,"x_min":43,"x_max":656,"o":"m 331 -14 q 174 -2 249 -14 q 56 28 100 10 l 56 203 q 171 167 107 181 q 288 154 235 154 q 400 165 367 154 q 433 210 433 176 q 414 253 433 238 q 353 283 394 268 q 247 319 313 297 q 96 402 149 356 q 43 536 43 449 q 123 701 43 638 q 365 764 203 764 q 501 753 433 764 q 611 731 569 743 l 611 557 q 508 586 567 576 q 406 596 450 596 q 306 584 346 596 q 265 536 265 572 q 287 498 265 513 q 349 471 308 483 q 447 438 390 458 q 572 379 526 408 q 637 310 618 350 q 656 207 656 269 q 570 43 656 100 q 331 -14 485 -14 z "},"ฤ":{"ha":871,"x_min":43,"x_max":796,"o":"m 572 -222 l 572 450 q 534 563 572 529 q 410 596 496 596 q 309 581 356 596 q 235 542 263 565 l 235 526 l 385 483 l 385 365 q 315 324 335 351 q 296 243 296 297 l 296 204 q 343 157 296 157 l 408 157 l 408 0 l 217 0 q 112 41 151 0 q 72 146 72 82 l 72 238 q 94 344 72 296 q 176 411 117 392 l 43 449 l 43 638 q 200 724 103 685 q 422 764 297 764 q 702 688 608 764 q 796 451 796 613 l 796 -222 l 572 -222 z "},"ล":{"ha":836,"x_min":42,"x_max":761,"o":"m 300 -14 q 169 10 228 -14 q 76 86 111 33 q 42 225 42 139 q 119 402 42 340 q 336 464 196 464 l 536 464 l 536 492 q 498 572 536 547 q 371 596 460 596 q 242 586 306 596 q 118 557 179 576 l 118 718 q 256 751 176 738 q 413 764 336 764 q 673 690 585 764 q 761 464 761 617 l 761 0 l 536 0 l 536 306 l 371 306 q 290 289 319 306 q 260 224 260 272 q 285 163 260 179 q 367 146 311 146 q 412 148 390 146 q 450 156 433 150 l 450 6 q 300 -14 394 -14 z "},"ฦ":{"ha":917,"x_min":50,"x_max":842,"o":"m 617 -222 l 617 450 q 581 563 617 529 q 463 596 544 596 q 363 581 408 596 q 288 542 317 565 l 288 526 l 438 483 l 438 365 q 377 323 390 350 q 364 239 364 296 l 364 175 q 318 42 364 85 q 189 0 272 0 l 50 0 l 50 157 l 90 157 q 125 168 115 157 q 135 204 135 179 l 135 243 q 153 345 135 301 q 231 411 171 389 l 96 449 l 96 638 q 253 724 157 685 q 475 764 350 764 q 749 688 657 764 q 842 451 842 611 l 842 -222 l 617 -222 z "},"ว":{"ha":714,"x_min":32,"x_max":678,"o":"m 288 -14 q 151 -3 215 -14 q 32 33 86 8 l 32 200 q 129 167 76 179 q 233 154 182 154 q 403 206 351 154 q 456 375 456 257 q 403 544 456 492 q 235 596 351 596 q 130 584 183 596 q 32 553 76 572 l 32 717 q 289 764 146 764 q 678 375 678 764 q 288 -14 678 -14 z "},"ศ":{"ha":921,"x_min":71,"x_max":878,"o":"m 71 0 l 71 454 q 163 683 71 603 q 439 764 254 764 q 510 760 476 764 q 574 750 543 757 l 878 750 l 867 583 l 775 583 q 801 517 794 557 q 807 435 807 478 l 807 0 l 582 0 l 582 465 q 545 562 582 528 q 439 596 508 596 q 294 465 294 596 l 294 356 q 411 392 344 392 l 493 392 l 499 215 l 408 215 q 294 183 342 215 l 294 0 l 71 0 z "},"ษ":{"ha":903,"x_min":71,"x_max":894,"o":"m 442 -14 q 172 66 274 -14 q 71 310 71 146 l 71 750 l 296 750 l 296 303 q 332 190 296 226 q 442 154 368 154 q 553 190 517 154 q 589 303 589 226 l 589 376 l 449 376 l 449 547 l 589 547 l 589 750 l 813 750 l 813 547 l 894 547 l 879 376 l 813 376 l 813 310 q 712 66 813 146 q 442 -14 611 -14 z "},"ส":{"ha":869,"x_min":42,"x_max":826,"o":"m 300 -14 q 170 8 229 -14 q 76 82 111 31 q 42 219 42 133 q 119 399 42 335 q 336 464 196 464 l 538 464 l 538 492 q 499 572 538 547 q 372 596 460 596 q 243 586 306 596 q 119 557 181 576 l 119 718 q 257 751 178 738 q 413 764 336 764 q 483 760 450 764 q 547 750 517 757 l 826 750 l 815 583 l 733 583 q 754 526 747 561 q 761 453 761 490 l 761 0 l 538 0 l 538 306 l 372 306 q 290 289 319 306 q 260 224 260 272 q 285 163 260 179 q 368 146 311 146 q 413 148 390 146 q 451 156 435 150 l 451 6 q 300 -14 393 -14 z "},"ห":{"ha":858,"x_min":71,"x_max":783,"o":"m 71 0 l 71 750 l 294 750 l 294 535 l 450 535 q 535 563 511 535 q 558 646 558 590 l 558 750 l 783 750 l 783 640 q 762 526 783 576 q 685 451 740 475 q 758 385 738 429 q 779 282 779 340 l 779 0 l 554 0 l 554 253 q 531 339 554 314 q 446 364 507 364 l 294 364 l 294 0 l 71 0 z "},"ฬ":{"ha":1017,"x_min":29,"x_max":1022,"o":"m 192 0 l 29 750 l 236 750 l 315 300 l 425 563 l 425 694 l 574 694 l 707 300 l 751 596 q 748 683 761 658 q 690 708 735 708 l 642 708 l 667 853 l 726 853 q 794 871 774 853 q 824 932 814 889 l 832 972 l 1022 972 l 1008 904 q 972 817 997 849 q 903 775 947 786 q 944 607 969 732 l 824 0 l 635 0 l 513 351 l 382 0 l 192 0 z "},"อ":{"ha":824,"x_min":56,"x_max":781,"o":"m 381 -14 q 199 3 285 -14 q 56 46 113 21 l 56 443 l 389 443 l 399 289 l 274 289 l 274 168 q 324 158 297 161 q 379 154 350 154 q 519 203 479 154 q 558 371 558 253 q 535 508 558 458 q 461 576 513 557 q 324 596 410 596 q 195 586 264 596 q 64 557 126 576 l 64 718 q 217 752 132 740 q 378 764 301 764 q 685 664 589 764 q 781 371 781 564 q 686 85 781 183 q 381 -14 592 -14 z "},"ฮ":{"ha":879,"x_min":56,"x_max":836,"o":"m 381 -14 q 199 3 285 -14 q 56 46 113 21 l 56 443 l 389 443 l 399 289 l 274 289 l 274 168 q 324 158 297 161 q 379 154 350 154 q 519 203 479 154 q 558 371 558 253 q 535 508 558 458 q 461 576 513 557 q 324 596 410 596 q 195 586 264 596 q 64 557 126 576 l 64 718 q 217 752 132 740 q 378 764 301 764 q 451 760 417 764 q 517 750 486 757 l 836 750 l 825 583 l 731 583 q 767 486 754 539 q 781 371 781 433 q 686 85 781 183 q 381 -14 592 -14 z "},"ะ":{"ha":450,"x_min":43,"x_max":410,"o":"m 43 433 l 43 658 l 221 658 l 221 592 l 410 592 l 403 433 l 43 433 m 43 68 l 43 293 l 221 293 l 221 225 l 410 225 l 403 68 l 43 68 z "},"า":{"ha":621,"x_min":6,"x_max":546,"o":"m 322 0 l 322 453 q 294 560 322 525 q 189 596 267 596 q 94 585 142 596 q 6 558 46 574 l 6 717 q 110 750 47 736 q 236 764 172 764 q 473 692 400 764 q 546 476 546 621 l 546 0 l 322 0 z "},"ำ":{"ha":621,"x_min":-364,"x_max":546,"o":"m -185 799 q -312 847 -260 799 q -364 968 -364 894 q -312 1091 -364 1043 q -185 1139 -260 1139 q -59 1091 -111 1139 q -7 968 -7 1043 q -59 847 -7 894 q -185 799 -111 799 m -185 911 q -144 928 -161 911 q -128 968 -128 946 q -144 1009 -128 992 q -185 1026 -161 1026 q -226 1009 -208 1026 q -243 968 -243 992 q -226 928 -243 946 q -185 911 -208 911 m 322 0 l 322 453 q 294 560 322 525 q 189 596 267 596 q 94 585 142 596 q 6 558 46 574 l 6 717 q 110 750 47 736 q 236 764 172 764 q 473 692 400 764 q 546 476 546 621 l 546 0 l 322 0 z "},"เ":{"ha":443,"x_min":72,"x_max":399,"o":"m 228 0 q 110 39 149 0 q 72 150 72 78 l 72 750 l 297 750 l 297 208 q 347 157 297 157 l 399 157 l 399 0 l 228 0 z "},"แ":{"ha":807,"x_min":71,"x_max":764,"o":"m 600 0 q 483 39 521 0 q 444 150 444 78 l 444 750 l 669 750 l 669 208 q 719 157 669 157 l 764 157 l 764 0 l 600 0 m 225 0 q 109 39 147 0 q 71 150 71 78 l 71 750 l 294 750 l 294 208 q 344 157 294 157 l 390 157 l 390 0 l 225 0 z "},"โ":{"ha":447,"x_min":-19,"x_max":456,"o":"m 268 0 q 151 39 189 0 q 113 150 113 78 l 113 769 q 80 893 113 849 q -19 958 47 938 l -19 1103 l 456 1103 l 456 944 l 261 944 q 338 778 338 893 l 338 208 q 388 157 338 157 l 439 157 l 439 0 l 268 0 z "},"ใ":{"ha":426,"x_min":-26,"x_max":425,"o":"m 204 0 q 88 39 126 0 q 50 150 50 78 l 50 590 q 72 695 50 651 q 122 771 93 739 q 172 829 150 803 q 193 882 193 856 q 117 939 193 939 q -26 897 42 939 l -26 1051 q 78 1092 18 1078 q 201 1107 139 1107 q 367 1065 310 1107 q 425 939 425 1022 q 402 842 425 883 q 349 765 379 801 q 297 687 319 729 q 274 588 274 644 l 274 208 q 324 157 274 157 l 376 157 l 376 0 l 204 0 z "},"ไ":{"ha":436,"x_min":-26,"x_max":435,"o":"m 242 0 q 126 39 164 0 q 88 150 88 78 l 88 758 q 108 869 88 821 q 165 944 129 918 l -26 944 l -26 1103 l 435 1103 l 435 958 q 339 885 367 938 q 311 747 311 832 l 311 208 q 361 157 311 157 l 414 157 l 414 0 l 242 0 z "},"ๅ":{"ha":621,"x_min":6,"x_max":546,"o":"m 322 -222 l 322 453 q 294 560 322 525 q 189 596 267 596 q 94 585 142 596 q 6 558 46 574 l 6 717 q 110 750 47 736 q 236 764 172 764 q 473 692 400 764 q 546 476 546 621 l 546 -222 l 322 -222 z "},"ℊ":{"ha":832,"x_min":43,"x_max":760,"o":"m 350 -244 q 292 -242 328 -244 q 221 -237 256 -240 q 167 -231 186 -233 l 167 -65 q 239 -78 194 -74 q 314 -83 283 -83 q 485 -61 433 -83 q 536 18 536 -39 l 536 43 q 351 -4 463 -4 q 194 24 264 -4 q 83 121 124 53 q 43 306 43 189 q 85 506 43 424 q 197 630 126 588 q 357 672 268 672 q 473 653 426 672 q 554 601 519 635 l 567 658 l 760 658 l 760 60 q 717 -97 760 -28 q 583 -205 674 -165 q 350 -244 493 -244 m 414 158 q 483 169 453 158 q 536 201 513 181 l 536 458 q 415 508 492 508 q 304 458 338 508 q 271 307 271 407 q 302 190 271 221 q 414 158 333 158 z "},"₀":{"ha":507,"x_min":40,"x_max":467,"o":"m 253 -178 q 92 -125 144 -178 q 40 21 40 -72 q 91 174 40 119 q 253 228 142 228 q 416 174 365 228 q 467 21 467 119 q 415 -125 467 -72 q 253 -178 363 -178 m 253 -68 q 308 -47 293 -68 q 324 21 324 -25 q 309 95 324 72 q 253 118 294 118 q 198 95 213 118 q 183 21 183 72 q 199 -47 183 -25 q 253 -68 214 -68 z "},"₁":{"ha":304,"x_min":28,"x_max":274,"o":"m 115 -167 l 115 78 l 28 61 l 28 179 l 274 228 l 274 -167 l 115 -167 z "},"₂":{"ha":422,"x_min":43,"x_max":379,"o":"m 43 -167 l 43 -100 q 86 -51 64 -69 q 139 -8 108 -32 q 199 41 183 26 q 215 74 215 56 q 150 113 215 113 q 101 106 128 113 q 51 90 75 100 l 51 201 q 120 219 75 211 q 208 228 165 228 q 333 194 290 228 q 376 108 376 160 q 362 47 376 71 q 315 -8 347 22 q 286 -32 297 -24 q 260 -56 275 -40 l 379 -56 l 379 -167 l 43 -167 z "}}}
